<?xml version="1.0" encoding="utf-8"?>
<!-- Generator: Adobe Illustrator 15.1.0, SVG Export Plug-In . SVG Version: 6.00 Build 0)  -->
<!DOCTYPE svg PUBLIC "-//W3C//DTD SVG 1.1//EN" "http://www.w3.org/Graphics/SVG/1.1/DTD/svg11.dtd">
<svg version="1.1" id="Layer_1" xmlns="http://www.w3.org/2000/svg" xmlns:xlink="http://www.w3.org/1999/xlink" x="0px" y="0px"
	 width="1128" height="132" enable-background="new 0 0 1128 132" xml:space="preserve">
<polyline fill="#F2F2F2" stroke="#000000" stroke-miterlimit="10" points="1127.5,0 1127.5,131.5 1108.5,131.5 1108.5,0 "/>
<polyline fill="#F2F2F2" stroke="#000000" stroke-miterlimit="10" points="19.5,0 19.5,131.5 0.5,131.5 0.5,0 "/>
<polyline fill="#F2F2F2" stroke="#000000" stroke-miterlimit="10" points="39.5,0 39.5,131.5 20.5,131.5 20.5,0 "/>
<polyline fill="#F2F2F2" stroke="#000000" stroke-miterlimit="10" points="60.5,0 60.5,131.5 40.5,131.5 40.5,0 "/>
<polyline fill="#F2F2F2" stroke="#000000" stroke-miterlimit="10" points="80.5,0 80.5,131.5 61.5,131.5 61.5,0 "/>
<polyline fill="#F2F2F2" stroke="#000000" stroke-miterlimit="10" points="100.5,0 100.5,131.5 81.5,131.5 81.5,0 "/>
<polyline fill="#F2F2F2" stroke="#000000" stroke-miterlimit="10" points="120.5,0 120.5,131.5 101.5,131.5 101.5,0 "/>
<polyline fill="#F2F2F2" stroke="#000000" stroke-miterlimit="10" points="140.5,0 140.5,131.5 121.5,131.5 121.5,0 "/>
<polyline fill="#F2F2F2" stroke="#000000" stroke-miterlimit="10" points="201.5,0 201.5,131.5 182.5,131.5 182.5,0 "/>
<polyline fill="#F2F2F2" stroke="#000000" stroke-miterlimit="10" points="221.5,0 221.5,131.5 202.5,131.5 202.5,0 "/>
<polyline fill="#F2F2F2" stroke="#000000" stroke-miterlimit="10" points="241.5,0 241.5,131.5 222.5,131.5 222.5,0 "/>
<polyline fill="#F2F2F2" stroke="#000000" stroke-miterlimit="10" points="261.5,0 261.5,131.5 242.5,131.5 242.5,0 "/>
<polyline fill="#F2F2F2" stroke="#000000" stroke-miterlimit="10" points="281.5,0 281.5,131.5 262.5,131.5 262.5,0 "/>
<polyline fill="#F2F2F2" stroke="#000000" stroke-miterlimit="10" points="302.5,0 302.5,131.5 282.5,131.5 282.5,0 "/>
<polyline fill="#F2F2F2" stroke="#000000" stroke-miterlimit="10" points="322.5,0 322.5,131.5 303.5,131.5 303.5,0 "/>
<polyline fill="#F2F2F2" stroke="#000000" stroke-miterlimit="10" points="342.5,0 342.5,131.5 323.5,131.5 323.5,0 "/>
<polyline fill="#F2F2F2" stroke="#000000" stroke-miterlimit="10" points="362.5,0 362.5,131.5 343.5,131.5 343.5,0 "/>
<polyline fill="#F2F2F2" stroke="#000000" stroke-miterlimit="10" points="382.5,0 382.5,131.5 363.5,131.5 363.5,0 "/>
<polyline fill="#F2F2F2" stroke="#000000" stroke-miterlimit="10" points="402.5,0 402.5,131.5 383.5,131.5 383.5,0 "/>
<polyline fill="#F2F2F2" stroke="#000000" stroke-miterlimit="10" points="463.5,0 463.5,131.5 444.5,131.5 444.5,0 "/>
<polyline fill="#F2F2F2" stroke="#000000" stroke-miterlimit="10" points="483.5,0 483.5,131.5 464.5,131.5 464.5,0 "/>
<polyline fill="#F2F2F2" stroke="#000000" stroke-miterlimit="10" points="503.5,0 503.5,131.5 484.5,131.5 484.5,0 "/>
<polyline fill="#F2F2F2" stroke="#000000" stroke-miterlimit="10" points="523.5,0 523.5,131.5 504.5,131.5 504.5,0 "/>
<polyline fill="#F2F2F2" stroke="#000000" stroke-miterlimit="10" points="543.5,0 543.5,131.5 524.5,131.5 524.5,0 "/>
<polyline fill="#F2F2F2" stroke="#000000" stroke-miterlimit="10" points="563.5,0 563.5,131.5 544.5,131.5 544.5,0 "/>
<polyline fill="#F2F2F2" stroke="#000000" stroke-miterlimit="10" points="583.5,0 583.5,131.5 564.5,131.5 564.5,0 "/>
<polyline fill="#F2F2F2" stroke="#000000" stroke-miterlimit="10" points="603.5,0 603.5,131.5 584.5,131.5 584.5,0 "/>
<polyline fill="#F2F2F2" stroke="#000000" stroke-miterlimit="10" points="623.5,0 623.5,131.5 604.5,131.5 604.5,0 "/>
<polyline fill="#F2F2F2" stroke="#000000" stroke-miterlimit="10" points="643.5,0 643.5,131.5 624.5,131.5 624.5,0 "/>
<polyline fill="#F2F2F2" stroke="#000000" stroke-miterlimit="10" points="663.5,0 663.5,131.5 644.5,131.5 644.5,0 "/>
<polyline fill="#F2F2F2" stroke="#000000" stroke-miterlimit="10" points="724.5,0 724.5,131.5 705.5,131.5 705.5,0 "/>
<polyline fill="#F2F2F2" stroke="#000000" stroke-miterlimit="10" points="744.5,0 744.5,131.5 725.5,131.5 725.5,0 "/>
<polyline fill="#F2F2F2" stroke="#000000" stroke-miterlimit="10" points="764.5,0 764.5,131.5 745.5,131.5 745.5,0 "/>
<polyline fill="#F2F2F2" stroke="#000000" stroke-miterlimit="10" points="784.5,0 784.5,131.5 765.5,131.5 765.5,0 "/>
<polyline fill="#F2F2F2" stroke="#000000" stroke-miterlimit="10" points="805.5,0 805.5,131.5 785.5,131.5 785.5,0 "/>
<polyline fill="#F2F2F2" stroke="#000000" stroke-miterlimit="10" points="825.5,0 825.5,131.5 806.5,131.5 806.5,0 "/>
<polyline fill="#F2F2F2" stroke="#000000" stroke-miterlimit="10" points="845.5,0 845.5,131.5 826.5,131.5 826.5,0 "/>
<polyline fill="#F2F2F2" stroke="#000000" stroke-miterlimit="10" points="865.5,0 865.5,131.5 846.5,131.5 846.5,0 "/>
<polyline fill="#F2F2F2" stroke="#000000" stroke-miterlimit="10" points="885.5,0 885.5,131.5 866.5,131.5 866.5,0 "/>
<polyline fill="#F2F2F2" stroke="#000000" stroke-miterlimit="10" points="905.5,0 905.5,131.5 886.5,131.5 886.5,0 "/>
<polyline fill="#F2F2F2" stroke="#000000" stroke-miterlimit="10" points="926.5,0 926.5,131.5 906.5,131.5 906.5,0 "/>
<polyline fill="#F2F2F2" stroke="#000000" stroke-miterlimit="10" points="986.5,0 986.5,131.5 967.5,131.5 967.5,0 "/>
<polyline fill="#F2F2F2" stroke="#000000" stroke-miterlimit="10" points="1006.5,0 1006.5,131.5 987.5,131.5 987.5,0 "/>
<polyline fill="#F2F2F2" stroke="#000000" stroke-miterlimit="10" points="1026.5,0 1026.5,131.5 1007.5,131.5 1007.5,0 "/>
<polyline fill="#F2F2F2" stroke="#000000" stroke-miterlimit="10" points="1067.5,0 1067.5,131.5 1048.5,131.5 1048.5,0 "/>
<polyline fill="#F2F2F2" stroke="#000000" stroke-miterlimit="10" points="1087.5,0 1087.5,131.5 1068.5,131.5 1068.5,0 "/>
<polyline fill="#F2F2F2" stroke="#000000" stroke-miterlimit="10" points="1107.5,0 1107.5,131.5 1088.5,131.5 1088.5,0 "/>
<polyline fill="#F2F2F2" stroke="#000000" stroke-miterlimit="10" points="946.5,0 946.5,131.5 927.5,131.5 927.5,0 "/>
<polyline fill="#F2F2F2" stroke="#000000" stroke-miterlimit="10" points="966.5,0 966.5,131.5 947.5,131.5 947.5,0 "/>
<polyline fill="#F2F2F2" stroke="#000000" stroke-miterlimit="10" points="684.5,0 684.5,131.5 664.5,131.5 664.5,0 "/>
<polyline fill="#F2F2F2" stroke="#000000" stroke-miterlimit="10" points="704.5,0 704.5,131.5 685.5,131.5 685.5,0 "/>
<polyline fill="#F2F2F2" stroke="#000000" stroke-miterlimit="10" points="423.5,0 423.5,131.5 403.5,131.5 403.5,0 "/>
<polyline fill="#F2F2F2" stroke="#000000" stroke-miterlimit="10" points="443.5,0 443.5,131.5 424.5,131.5 424.5,0 "/>
<polyline fill="#F2F2F2" stroke="#000000" stroke-miterlimit="10" points="160.5,0 160.5,131.5 141.5,131.5 141.5,0 "/>
<polyline fill="#F2F2F2" stroke="#000000" stroke-miterlimit="10" points="181.5,0 181.5,131.5 161.5,131.5 161.5,0 "/>
<polyline fill="#F2F2F2" stroke="#000000" stroke-miterlimit="10" points="1047.5,0 1047.5,131.5 1027.5,131.5 1027.5,0 "/>
<rect x="16" width="12" height="84"/>
<rect x="52" width="12" height="84"/>
<rect x="75" width="12" height="84"/>
<rect x="97" width="12" height="84"/>
<rect x="132" width="12" height="84"/>
<rect x="157" width="12" height="84"/>
<rect x="193" width="12" height="84"/>
<rect x="216" width="12" height="84"/>
<rect x="238" width="12" height="84"/>
<rect x="273" width="12" height="84"/>
<rect x="298" width="12" height="84"/>
<rect x="334" width="12" height="84"/>
<rect x="357" width="12" height="84"/>
<rect x="379" width="12" height="84"/>
<rect x="414" width="12" height="84"/>
<rect x="439" width="12" height="84"/>
<rect x="475" width="12" height="84"/>
<rect x="498" width="12" height="84"/>
<rect x="520" width="12" height="84"/>
<rect x="555" width="12" height="84"/>
<rect x="580" width="12" height="84"/>
<rect x="616" width="12" height="84"/>
<rect x="639" width="12" height="84"/>
<rect x="661" width="12" height="84"/>
<rect x="696" width="12" height="84"/>
<rect x="721" width="12" height="84"/>
<rect x="757" width="12" height="84"/>
<rect x="780" width="12" height="84"/>
<rect x="802" width="12" height="84"/>
<rect x="837" width="12" height="84"/>
<rect x="862" width="12" height="84"/>
<rect x="898" width="12" height="84"/>
<rect x="921" width="12" height="84"/>
<rect x="943" width="12" height="84"/>
<rect x="978" width="12" height="84"/>
<rect x="1003" width="12" height="84"/>
<rect x="1039" width="12" height="84"/>
<rect x="1062" width="12" height="84"/>
<rect x="1084" width="12" height="84"/>
</svg>
