<?xml version="1.0" encoding="UTF-8" standalone="no"?>
<!-- Generator: Adobe Illustrator 19.0.0, SVG Export Plug-In . SVG Version: 6.00 Build 0)  -->

<svg
   xmlns:dc="http://purl.org/dc/elements/1.1/"
   xmlns:cc="http://creativecommons.org/ns#"
   xmlns:rdf="http://www.w3.org/1999/02/22-rdf-syntax-ns#"
   xmlns:svg="http://www.w3.org/2000/svg"
   xmlns="http://www.w3.org/2000/svg"
   xmlns:sodipodi="http://sodipodi.sourceforge.net/DTD/sodipodi-0.dtd"
   xmlns:inkscape="http://www.inkscape.org/namespaces/inkscape"
   version="1.1"
   id="Layer_1"
   x="0px"
   y="0px"
   viewBox="0 0 512 512"
   style="enable-background:new 0 0 512 512;"
   xml:space="preserve"
   inkscape:version="0.91 r13725"
   sodipodi:docname="alligator-left.svg"><metadata
     id="metadata81"><rdf:RDF><cc:Work
         rdf:about=""><dc:format>image/svg+xml</dc:format><dc:type
           rdf:resource="http://purl.org/dc/dcmitype/StillImage" /><dc:title></dc:title></cc:Work></rdf:RDF></metadata><defs
     id="defs79" /><sodipodi:namedview
     pagecolor="#ffffff"
     bordercolor="#666666"
     borderopacity="1"
     objecttolerance="10"
     gridtolerance="10"
     guidetolerance="10"
     inkscape:pageopacity="0"
     inkscape:pageshadow="2"
     inkscape:window-width="1280"
     inkscape:window-height="998"
     id="namedview77"
     showgrid="false"
     inkscape:zoom="2"
     inkscape:cx="257"
     inkscape:cy="267.68421"
     inkscape:window-x="1920"
     inkscape:window-y="0"
     inkscape:window-maximized="1"
     inkscape:current-layer="Layer_1" /><rect
     x="-218.80701"
     y="268.702"
     style="fill:#e6e6e6"
     width="182.899"
     height="55.080002"
     id="rect3"
     transform="scale(-1,1)" /><g
     id="g5"
     transform="matrix(-1,0,0,1,512,0)"><rect
       x="402.88901"
       y="270.95599"
       style="fill:#808080"
       width="11.271"
       height="56.409"
       id="rect7" /><rect
       x="440.83801"
       y="270.95599"
       style="fill:#808080"
       width="11.271"
       height="56.409"
       id="rect9" /><rect
       x="364.953"
       y="270.95599"
       style="fill:#808080"
       width="11.271"
       height="56.409"
       id="rect11" /><rect
       x="327.005"
       y="270.95599"
       style="fill:#808080"
       width="11.271"
       height="56.409"
       id="rect13" /></g><path
     style="fill:#3bb271"
     d="m 200.12,289.834 c 2.389,2.389 3.866,5.692 3.866,9.332 0,7.281 -5.906,13.187 -13.187,13.187 l -155.297,0 c 0,5.962 1.927,11.462 5.196,15.925 4.914,6.751 12.871,11.124 21.854,11.124 l 167.357,0 c -2.705,0 -5.308,0.451 -7.732,1.296 -9.276,3.201 -15.937,12.003 -15.937,22.372 l 0,7.889 63.397,0 c 9.569,0 18.236,-3.877 24.502,-10.155 5.59,-5.579 9.276,-13.074 10.02,-21.403 l 98.73,0 0.135,-0.011 c 0.733,8.34 4.418,15.824 10.008,21.414 6.278,6.278 14.934,10.155 24.514,10.155 l 72.966,0 0,-7.889 c 0,-13.074 -10.594,-23.668 -23.668,-23.668 l -39.075,0 24.637,-19.87 c 3.584,-2.694 6.988,-5.635 10.177,-8.802 7.495,-7.393 13.806,-15.993 18.642,-25.471 2.615,-5.128 4.801,-10.527 6.503,-16.117 l 0,-0.011 C 510.501,259.99 512,250.286 512,240.244 512,176.87 453.37,129.758 391.484,143.407 l -107.025,23.612 c -1.544,0.327 -2.367,0.518 -2.367,0.518 L 385.217,183 c 9.512,1.42 17.92,6.018 24.164,12.634 6.244,6.627 10.335,15.294 11.192,24.874 l -189.819,0 -1.082,0.766 c -5.635,-8.126 -15.035,-13.446 -25.686,-13.446 -17.267,0 -31.276,13.998 -31.276,31.276 l -94.943,0 c 0,-12.138 -9.839,-21.978 -21.978,-21.978 -6.064,0 -11.564,2.457 -15.542,6.436 -3.979,3.979 -6.435,9.479 -6.435,15.542 C 15.137,239.104 0,254.24 0,272.916 l 0,13.051 190.8,0 c 3.64,0.001 6.931,1.478 9.32,3.867 z"
     id="path15"
     inkscape:connector-curvature="0" /><g
     id="g17"
     transform="matrix(-1,0,0,1,512,0)"><path
       style="fill:#2e9e5e"
       d="m 4.272,269.141 c 1.702,5.59 3.888,10.989 6.503,16.117 4.835,9.479 11.147,18.078 18.642,25.471 3.19,3.167 6.593,6.109 10.177,8.802 l 24.637,19.87 32.308,0 -24.637,-19.87 C 68.318,316.837 64.914,313.896 61.725,310.729 54.23,303.336 47.919,294.736 43.083,285.258 40.468,280.13 38.282,274.731 36.58,269.141 l 0,-0.011 c -2.773,-9.14 -4.272,-18.844 -4.272,-28.887 0,-50.201 36.792,-90.191 82.848,-97.865 C 55.288,132.503 0,178.703 0,240.244 c 0,10.042 1.499,19.746 4.272,28.887 l 0,0.01 z"
       id="path19"
       inkscape:connector-curvature="0" /><path
       style="fill:#2e9e5e"
       d="m 57.464,339.402 -32.308,0 c -13.074,0 -23.668,10.594 -23.668,23.668 l 0,7.889 32.308,0 0,-7.889 c 0,-13.073 10.594,-23.668 23.668,-23.668 z"
       id="path21"
       inkscape:connector-curvature="0" /><path
       style="fill:#2e9e5e"
       d="m 219.055,310.662 -11.349,25.641 -22.71,3.099 -76.02,-0.011 c 0,0 6.976,-12.161 -8.69,-26.959 30.599,4.846 69.663,5.714 118.769,-1.77 z"
       id="path23"
       inkscape:connector-curvature="0" /><path
       style="fill:#2e9e5e"
       d="m 364.919,255.741 c -2.801,0 -5.072,-2.271 -5.072,-5.072 l 0,-11.564 c 0,-2.801 2.271,-5.072 5.072,-5.072 2.801,0 5.072,2.271 5.072,5.072 l 0,11.564 c 0,2.801 -2.27,5.072 -5.072,5.072 z"
       id="path25"
       inkscape:connector-curvature="0" /><path
       style="fill:#2e9e5e"
       d="m 390.278,255.741 c -2.801,0 -5.072,-2.271 -5.072,-5.072 l 0,-11.564 c 0,-2.801 2.271,-5.072 5.072,-5.072 2.801,0 5.072,2.271 5.072,5.072 l 0,11.564 c -0.001,2.801 -2.27,5.072 -5.072,5.072 z"
       id="path27"
       inkscape:connector-curvature="0" /><path
       style="fill:#2e9e5e"
       d="m 415.637,255.741 c -2.801,0 -5.072,-2.271 -5.072,-5.072 l 0,-11.564 c 0,-2.801 2.271,-5.072 5.072,-5.072 2.801,0 5.072,2.271 5.072,5.072 l 0,11.564 c -10e-4,2.801 -2.271,5.072 -5.072,5.072 z"
       id="path29"
       inkscape:connector-curvature="0" /><path
       style="fill:#2e9e5e"
       d="m 234.755,252.066 c -3.424,0 -6.199,-2.775 -6.199,-6.199 l 0,-25.359 c 0,-3.424 2.775,-6.199 6.199,-6.199 3.424,0 6.199,2.775 6.199,6.199 l 0,25.359 c 0,3.425 -2.775,6.199 -6.199,6.199 z"
       id="path31"
       inkscape:connector-curvature="0" /><path
       style="fill:#2e9e5e"
       d="m 137.749,252.066 c -3.424,0 -6.199,-2.775 -6.199,-6.199 l 0,-25.359 c 0,-3.424 2.775,-6.199 6.199,-6.199 3.424,0 6.199,2.775 6.199,6.199 l 0,25.359 c 0,3.425 -2.775,6.199 -6.199,6.199 z"
       id="path33"
       inkscape:connector-curvature="0" /><path
       style="fill:#2e9e5e"
       d="m 186.258,252.066 c -3.424,0 -6.199,-2.775 -6.199,-6.199 l 0,-25.359 c 0,-3.424 2.775,-6.199 6.199,-6.199 3.424,0 6.199,2.775 6.199,6.199 l 0,25.359 c -0.001,3.425 -2.775,6.199 -6.199,6.199 z"
       id="path35"
       inkscape:connector-curvature="0" /></g><path
     style="fill:#808080"
     d="m 222.177,340.698 7.732,-1.296 c -2.705,0 -5.309,0.451 -7.732,1.296 z"
     id="path37"
     inkscape:connector-curvature="0" /><g
     id="g39"
     transform="matrix(-1,0,0,1,512,0)"><path
       style="fill:#2e9e5e"
       d="m 471.302,328.278 c -4.914,6.751 -12.871,11.124 -21.854,11.124 l -187.813,0 11.113,-11.124 198.554,0 z"
       id="path41"
       inkscape:connector-curvature="0" /><circle
       style="fill:#2e9e5e"
       cx="457.17999"
       cy="238.271"
       r="7.8889999"
       id="circle43" /></g><path
     style="fill:#666666"
     d="m 218.384,230.594 c 0,8.17 -6.623,14.793 -14.793,14.793 -8.17,0 -14.793,-6.623 -14.793,-14.793"
     id="path45"
     inkscape:connector-curvature="0" /><g
     id="g47"
     transform="matrix(-1,0,0,1,512,0)" /><g
     id="g49"
     transform="matrix(-1,0,0,1,512,0)" /><g
     id="g51"
     transform="matrix(-1,0,0,1,512,0)" /><g
     id="g53"
     transform="matrix(-1,0,0,1,512,0)" /><g
     id="g55"
     transform="matrix(-1,0,0,1,512,0)" /><g
     id="g57"
     transform="matrix(-1,0,0,1,512,0)" /><g
     id="g59"
     transform="matrix(-1,0,0,1,512,0)" /><g
     id="g61"
     transform="matrix(-1,0,0,1,512,0)" /><g
     id="g63"
     transform="matrix(-1,0,0,1,512,0)" /><g
     id="g65"
     transform="matrix(-1,0,0,1,512,0)" /><g
     id="g67"
     transform="matrix(-1,0,0,1,512,0)" /><g
     id="g69"
     transform="matrix(-1,0,0,1,512,0)" /><g
     id="g71"
     transform="matrix(-1,0,0,1,512,0)" /><g
     id="g73"
     transform="matrix(-1,0,0,1,512,0)" /><g
     id="g75"
     transform="matrix(-1,0,0,1,512,0)" /></svg>