<?xml version="1.0" encoding="UTF-8" standalone="no"?>
<!-- Generator: Adobe Illustrator 19.0.0, SVG Export Plug-In . SVG Version: 6.00 Build 0)  -->

<svg
   xmlns:dc="http://purl.org/dc/elements/1.1/"
   xmlns:cc="http://creativecommons.org/ns#"
   xmlns:rdf="http://www.w3.org/1999/02/22-rdf-syntax-ns#"
   xmlns:svg="http://www.w3.org/2000/svg"
   xmlns="http://www.w3.org/2000/svg"
   xmlns:sodipodi="http://sodipodi.sourceforge.net/DTD/sodipodi-0.dtd"
   xmlns:inkscape="http://www.inkscape.org/namespaces/inkscape"
   version="1.1"
   id="Capa_1"
   x="0px"
   y="0px"
   viewBox="0 0 512 512"
   style="enable-background:new 0 0 512 512;"
   xml:space="preserve"
   inkscape:version="0.91 r13725"
   sodipodi:docname="bus-r.svg"><metadata
     id="metadata75"><rdf:RDF><cc:Work
         rdf:about=""><dc:format>image/svg+xml</dc:format><dc:type
           rdf:resource="http://purl.org/dc/dcmitype/StillImage" /><dc:title></dc:title></cc:Work></rdf:RDF></metadata><defs
     id="defs73" /><sodipodi:namedview
     pagecolor="#ffffff"
     bordercolor="#666666"
     borderopacity="1"
     objecttolerance="10"
     gridtolerance="10"
     guidetolerance="10"
     inkscape:pageopacity="0"
     inkscape:pageshadow="2"
     inkscape:window-width="811"
     inkscape:window-height="480"
     id="namedview71"
     showgrid="false"
     inkscape:zoom="0.4609375"
     inkscape:cx="256"
     inkscape:cy="256"
     inkscape:window-x="0"
     inkscape:window-y="25"
     inkscape:window-maximized="0"
     inkscape:current-layer="Capa_1" /><path
     style="fill:#4e99d2"
     d="m 23.904,167.2 408.72,4.848 c 27.824,0.256 50.512,22.368 51.472,50.176 l 2.96,86.016 c 0.464,13.392 -10.272,24.496 -23.68,24.496 l -439.68,0 C 10.608,332.736 0,322.128 0,309.04 L 0,190.88 C 0,177.728 10.736,167.088 23.904,167.2 Z"
     id="path3"
     inkscape:connector-curvature="0" /><path
     style="fill:#2f3235"
     d="m 96.992,319.792 c 0,-16.24 13.168,-29.408 29.408,-29.408 16.24,0 29.408,13.168 29.408,29.408 0,4.656 -1.088,9.04 -3.008,12.944 l -52.832,0 c -1.888,-3.904 -2.976,-8.288 -2.976,-12.944 z"
     id="path5"
     inkscape:connector-curvature="0" /><g
     id="g7"
     transform="matrix(-1,0,0,1,512,0)"><rect
       x="194.384"
       y="281.952"
       style="fill:#44c7f4"
       width="73.888"
       height="50.784"
       id="rect9" /><rect
       x="273.28"
       y="281.952"
       style="fill:#44c7f4"
       width="73.888"
       height="50.784"
       id="rect11" /><path
       style="fill:#44c7f4"
       d="M 11.232,189.408 C 5.024,189.408 0,194.448 0,200.64 l 0,18.8 c 0,4.144 3.36,7.504 7.504,7.504 4.144,0 7.504,-3.36 7.504,-7.504 l 0,-19.968 19.008,0 c 1.952,-3.632 4.32,-7.008 7.04,-10.048 l 0,-0.016 -29.824,0 0,0 z"
       id="path13"
       inkscape:connector-curvature="0" /></g><path
     style="fill:#2f3235"
     d="m 330.48,319.792 c 0,-16.24 13.168,-29.408 29.408,-29.408 16.24,0 29.408,13.168 29.408,29.408 0,4.656 -1.088,9.04 -3.008,12.944 l -52.832,0 c -1.888,-3.904 -2.976,-8.288 -2.976,-12.944 z"
     id="path15"
     inkscape:connector-curvature="0" /><circle
     style="fill:#3f4347"
     cx="-359.90399"
     cy="319.79199"
     r="25.007999"
     id="circle17"
     transform="scale(-1,1)" /><circle
     style="fill:#dae5ef"
     cx="-359.90399"
     cy="319.79199"
     r="15.12"
     id="circle19"
     transform="scale(-1,1)" /><circle
     style="fill:#3f4347"
     cx="-126.72"
     cy="319.79199"
     r="25.007999"
     id="circle21"
     transform="scale(-1,1)" /><circle
     style="fill:#dae5ef"
     cx="-126.72"
     cy="319.79199"
     r="15.12"
     id="circle23"
     transform="scale(-1,1)" /><rect
     x="-17.088013"
     y="281.96799"
     style="fill:#e14b4b"
     width="17.087999"
     height="25.648001"
     id="rect25"
     transform="scale(-1,1)" /><path
     style="fill:#e9eff4"
     d="m 475.92,313.392 0,-21.424 c 0,-0.992 1.056,-1.792 2.368,-1.792 l 8.144,0 0.624,18.064 c 0.08,2.416 -0.304,4.72 -0.912,6.944 l -7.856,0 c -1.312,-0.016 -2.368,-0.816 -2.368,-1.792 z"
     id="path27"
     inkscape:connector-curvature="0" /><path
     style="fill:#3f4347"
     d="m 9.968,190.896 0,43.008 366.128,0 c 8.16,0 16.096,1.856 23.264,5.296 7.152,3.456 13.568,8.48 18.672,14.848 10.192,12.736 25.632,20.144 41.936,20.144 l 15.952,0 -1.776,-51.616 c -0.768,-22.528 -19.04,-40.352 -41.6,-40.544 l -60.48,-0.72 -8.528,-0.096 -83.152,-0.976 -8.528,-0.096 -83.152,-0.992 -8.528,-0.096 -83.152,-0.976 -8.528,-0.096 -64.784,-0.768 c -7.6,-0.048 -13.744,6.096 -13.744,13.68 z"
     id="path29"
     inkscape:connector-curvature="0" /><path
     style="fill:#44c7f4"
     d="m 9.968,197.84 0,36.064 366.128,0 c 8.16,0 16.096,1.856 23.264,5.296 7.168,3.456 13.568,8.48 18.672,14.848 10.208,12.736 25.632,20.144 41.936,20.144 l 25.92,0 0.544,16 -26.464,0 c -21.28,0 -41.104,-9.52 -54.416,-26.128 -3.568,-4.448 -8,-7.968 -13.104,-10.432 -5.056,-2.416 -10.72,-3.712 -16.352,-3.712 l -376.096,0 0,-52.08 9.968,0 0,0 z"
     id="path31"
     inkscape:connector-curvature="0" /><path
     style="fill:#3f4347"
     d="m 512,201.552 0,17.904 c 0,4.144 -3.36,7.504 -7.504,7.504 -4.144,0 -7.504,-3.36 -7.504,-7.504 l 0,-17.904 15.008,0 z"
     id="path33"
     inkscape:connector-curvature="0" /><g
     id="g35"
     transform="matrix(-1,0,0,1,512,0)"><polygon
       style="fill:#5a5f63"
       points="231.632,180.208 220.784,180.336 167.216,233.904 195.248,233.904 249.152,180 240.16,180.112 "
       id="polygon37" /><path
       style="fill:#5a5f63"
       d="m 203.2,180.48 -53.44,53.44 -13.92,0 c -8.16,0 -16,1.92 -23.2,5.28 -0.32,0.16 -0.8,0.32 -1.12,0.64 l 58.88,-59.04 32.8,-0.32 z"
       id="path39"
       inkscape:connector-curvature="0" /></g><g
     id="g41"
     transform="matrix(-1,0,0,1,512,0)" /><g
     id="g43"
     transform="matrix(-1,0,0,1,512,0)" /><g
     id="g45"
     transform="matrix(-1,0,0,1,512,0)" /><g
     id="g47"
     transform="matrix(-1,0,0,1,512,0)" /><g
     id="g49"
     transform="matrix(-1,0,0,1,512,0)" /><g
     id="g51"
     transform="matrix(-1,0,0,1,512,0)" /><g
     id="g53"
     transform="matrix(-1,0,0,1,512,0)" /><g
     id="g55"
     transform="matrix(-1,0,0,1,512,0)" /><g
     id="g57"
     transform="matrix(-1,0,0,1,512,0)" /><g
     id="g59"
     transform="matrix(-1,0,0,1,512,0)" /><g
     id="g61"
     transform="matrix(-1,0,0,1,512,0)" /><g
     id="g63"
     transform="matrix(-1,0,0,1,512,0)" /><g
     id="g65"
     transform="matrix(-1,0,0,1,512,0)" /><g
     id="g67"
     transform="matrix(-1,0,0,1,512,0)" /><g
     id="g69"
     transform="matrix(-1,0,0,1,512,0)" /></svg>