<svg height="512pt" viewBox="0 0 512 512" width="512pt" xmlns="http://www.w3.org/2000/svg"><path d="m512 256c0 138.804688-110.464844 251.800781-248.277344 255.886719-2.5625.070312-5.140625.113281-7.722656.113281-13.355469 0-26.457031-1.011719-39.246094-2.988281-15.359375-2.363281-30.269531-6.09375-44.605468-11.066407-21.097657-7.304687-40.929688-17.292968-59.113282-29.550781-68.1875-45.996093-113.035156-123.964843-113.035156-212.394531 0-141.386719 114.613281-256 256-256 2.558594 0 5.109375.0429688 7.648438.113281 5.390624.160157 10.742187.480469 16.050781.972657 5.808593.523437 11.554687 1.253906 17.230469 2.175781 26.75 4.292969 52.097656 12.726562 75.398437 24.636719 82.914063 42.359374 139.671875 128.605468 139.671875 228.101562zm0 0" fill="#f76cae"/><path d="m234.664062 239.207031v-59.441406c56.464844-6.125 100.558594-54.074219 100.558594-112.140625 0-14.835938-4.804687-28.578125-12.933594-39.726562-10.042968-13.792969-25.160156-23.65625-42.589843-26.8125-5.308594-.492188-10.660157-.8125-16.050781-.972657-5.820313.335938-11.429688 1.414063-16.761719 3.148438-10.320313 3.320312-19.570313 9.066406-27.070313 16.570312-12.246094 12.234375-19.832031 29.140625-19.832031 47.792969v79.894531c-68.097656 10.792969-120.332031 69.902344-120.332031 140.996094 0 71.085937 52.234375 130.195313 120.332031 140.988281v36.4375c0 14.429688-11.734375 26.164063-26.15625 26.164063-14.429687 0-26.164063-11.734375-26.164063-26.164063v-18.378906c0-9.574219-7.761718-17.335938-17.34375-17.335938-9.570312 0-17.335937 7.761719-17.335937 17.335938v18.378906c0 .824219.019531 1.640625.050781 2.453125 18.183594 12.257813 38.015625 22.246094 59.113282 29.550781 14.335937 4.972657 29.246093 8.703126 44.605468 11.066407 11.054688-11.023438 17.910156-26.269531 17.910156-43.070313v-35.476562c47.40625-6.046875 84.175782-46.609375 84.175782-95.628906 0-49.015626-36.769532-89.578126-84.175782-95.628907zm0-171.582031c0-18.171875 14.773438-32.945312 32.945313-32.945312 18.160156 0 32.933594 14.773437 32.933594 32.945312 0 38.914062-28.597657 71.273438-65.878907 77.167969zm-34.679687 170.777344h-28.988281c-9.570313 0-17.332032 7.765625-17.332032 17.347656 0 9.570312 7.761719 17.335938 17.332032 17.335938h28.988281v121.152343c-48.871094-10.34375-85.652344-53.820312-85.652344-105.722656 0-51.910156 36.78125-95.375 85.652344-105.730469zm34.679687 156.964844v-121.050782c28.199219 5.695313 49.496094 30.667969 49.496094 60.519532 0 29.855468-21.296875 54.828124-49.496094 60.53125zm0 0" fill="#c92888"/><path d="m284.703125 239.207031v-59.441406c56.464844-6.125 100.5625-54.074219 100.5625-112.140625 0-14.835938-4.808594-28.578125-12.9375-39.726562-12.296875-16.894532-32.222656-27.898438-54.679687-27.898438-7.230469 0-14.1875 1.140625-20.71875 3.261719-10.324219 3.320312-19.570313 9.066406-27.074219 16.570312-12.246094 12.234375-19.832031 29.140625-19.832031 47.792969v79.894531c-68.097657 10.792969-120.332032 69.902344-120.332032 140.996094 0 71.085937 52.234375 130.195313 120.332032 140.988281v36.4375c0 14.429688-11.734376 26.164063-26.152344 26.164063-14.433594 0-26.164063-11.734375-26.164063-26.164063v-18.378906c0-9.574219-7.765625-17.335938-17.347656-17.335938-9.570313 0-17.335937 7.761719-17.335937 17.335938v18.378906c0 11.734375 3.34375 22.707032 9.125 32.003906 26.265624 9.113282 54.480468 14.054688 83.851562 14.054688 2.582031 0 5.160156-.042969 7.722656-.113281 12.839844-11.171875 20.980469-27.628907 20.980469-45.945313v-35.476562c47.40625-6.046875 84.175781-46.609375 84.175781-95.628906 0-49.015626-36.769531-89.578126-84.175781-95.628907zm0-171.582031c0-18.171875 14.773437-32.945312 32.945313-32.945312 2.089843 0 4.136718.199218 6.125.574218 15.242187 2.875 26.8125 16.289063 26.8125 32.371094 0 38.914062-28.601563 71.273438-65.882813 77.167969zm-34.679687 170.777344h-28.984376c-9.574218 0-17.335937 7.765625-17.335937 17.347656 0 9.570312 7.761719 17.335938 17.335937 17.335938h28.984376v121.152343c-48.871094-10.34375-85.652344-53.820312-85.652344-105.722656 0-51.910156 36.78125-95.375 85.652344-105.730469zm34.679687 35.914062c28.203125 5.695313 49.496094 30.667969 49.496094 60.519532 0 29.855468-21.292969 54.828124-49.496094 60.53125zm0 0" fill="#ffd073"/><g fill="#ff9c40"><path d="m250.023438 182.785156h12.210937v55.617188h-12.210937zm0 0"/><path d="m233.25 238.402344h-12.210938c-9.574218 0-17.335937 7.765625-17.335937 17.347656 0 9.570312 7.761719 17.335938 17.335937 17.335938h12.210938c-9.570312 0-17.335938-7.765626-17.335938-17.335938 0-9.582031 7.765626-17.347656 17.335938-17.347656zm0 0"/><path d="m362.800781 67.625c0 12.164062-2.800781 23.679688-7.777343 33.949219-12.925782 26.6875-40.4375 43.21875-70.089844 43.21875h-.230469c37.28125-5.894531 65.882813-38.253907 65.882813-77.167969 0-16.082031-11.570313-29.496094-26.8125-32.371094 1.972656-.375 4.011718-.574218 6.089843-.574218 18.160157 0 32.9375 14.773437 32.9375 32.945312zm0 0"/><path d="m262.234375 273.085938h-12.210937v121.152343c3.976562 1.351563 12.210937 0 12.210937 0zm0 0"/><path d="m346.414062 334.835938c0 3.730468-.332031 7.390624-.972656 10.941406-5.191406 28.914062-30.980468 49.589844-60.363281 49.589844h-.375c28.203125-5.703126 49.496094-30.675782 49.496094-60.53125 0-29.851563-21.292969-54.824219-49.496094-60.519532h.398437c29.371094 0 55.148438 20.667969 60.339844 49.582032.640625 3.550781.972656 7.207031.972656 10.9375zm0 0"/><path d="m184.359375 497.945312c-5.777344-9.296874-9.121094-20.269531-9.121094-32.003906v-18.378906c0-7.421875 4.675781-13.738281 11.230469-16.210938-1.902344-.714843-3.953125-1.125-6.109375-1.125-9.570313 0-17.332031 7.761719-17.332031 17.332032v18.382812c0 11.734375 3.34375 22.703125 9.121094 32.003906 26.265624 9.113282 54.480468 14.054688 83.851562 14.054688 2.027344 0 4.050781-.03125 6.066406-.078125-27.164062-.640625-53.277344-5.5-77.707031-13.976563zm0 0"/><path d="m250.023438 429.503906v36.4375c0 12.324219-8.566407 22.679688-20.050782 25.4375 1.960938.46875 4.007813.726563 6.109375.726563 14.417969 0 26.152344-11.734375 26.152344-26.164063v-36.4375c-68.09375-10.792968-120.328125-69.902344-120.328125-140.988281 0-71.09375 52.234375-130.203125 120.328125-140.996094v-79.894531c0-18.652344 7.585937-35.558594 19.832031-47.792969 7.503906-7.503906 16.75-13.25 27.074219-16.570312 4.6875-1.523438 9.59375-2.53125 14.664063-2.984375-2.027344-.183594-4.082032-.277344-6.15625-.277344-7.230469 0-14.1875 1.140625-20.71875 3.261719-10.324219 3.320312-19.570313 9.066406-27.074219 16.570312-12.246094 12.234375-19.832031 29.140625-19.832031 47.792969v79.894531c-68.097657 10.792969-120.332032 69.902344-120.332032 140.996094 0 71.085937 52.234375 130.195313 120.332032 140.988281zm0 0"/></g><path d="m377.515625 402.191406 21.90625-7.527344c6.582031-2.261718 6.582031-11.566406 0-13.828124l-21.90625-7.527344c-2.132813-.734375-3.808594-2.40625-4.539063-4.539063l-7.527343-21.910156c-2.261719-6.578125-11.570313-6.578125-13.828125 0l-7.53125 21.910156c-.730469 2.132813-2.40625 3.804688-4.539063 4.539063l-21.90625 7.527344c-6.582031 2.261718-6.582031 11.566406 0 13.828124l21.90625 7.527344c2.132813.734375 3.808594 2.40625 4.539063 4.539063l7.53125 21.910156c2.257812 6.578125 11.566406 6.578125 13.828125 0l7.527343-21.910156c.730469-2.132813 2.40625-3.804688 4.539063-4.539063zm0 0" fill="#f2efea"/><path d="m271.757812 76.980469 21.910157-7.527344c6.578125-2.261719 6.578125-11.570313 0-13.828125l-21.910157-7.53125c-2.132812-.730469-3.804687-2.40625-4.539062-4.539062l-7.527344-21.90625c-2.261718-6.582032-11.566406-6.582032-13.828125 0l-7.53125 21.90625c-.730469 2.132812-2.40625 3.808593-4.539062 4.539062l-21.90625 7.53125c-6.582031 2.257812-6.582031 11.566406 0 13.828125l21.90625 7.527344c2.132812.730469 3.808593 2.40625 4.539062 4.539062l7.53125 21.90625c2.261719 6.582031 11.566407 6.582031 13.828125 0l7.527344-21.90625c.734375-2.132812 2.40625-3.808593 4.539062-4.539062zm0 0" fill="#f2efea"/></svg>