<?xml version="1.0" encoding="UTF-8" standalone="no"?>
<svg
   xmlns:dc="http://purl.org/dc/elements/1.1/"
   xmlns:cc="http://creativecommons.org/ns#"
   xmlns:rdf="http://www.w3.org/1999/02/22-rdf-syntax-ns#"
   xmlns:svg="http://www.w3.org/2000/svg"
   xmlns="http://www.w3.org/2000/svg"
   xmlns:sodipodi="http://sodipodi.sourceforge.net/DTD/sodipodi-0.dtd"
   xmlns:inkscape="http://www.inkscape.org/namespaces/inkscape"
   height="472pt"
   viewBox="0 -124 472 472"
   width="472pt"
   id="svg2"
   version="1.1"
   inkscape:version="0.91 r13725"
   sodipodi:docname="crocodile-open-right.svg">
  <metadata
     id="metadata36">
    <rdf:RDF>
      <cc:Work
         rdf:about="">
        <dc:format>image/svg+xml</dc:format>
        <dc:type
           rdf:resource="http://purl.org/dc/dcmitype/StillImage" />
        <dc:title></dc:title>
      </cc:Work>
    </rdf:RDF>
  </metadata>
  <defs
     id="defs34" />
  <sodipodi:namedview
     pagecolor="#ffffff"
     bordercolor="#666666"
     borderopacity="1"
     objecttolerance="10"
     gridtolerance="10"
     guidetolerance="10"
     inkscape:pageopacity="0"
     inkscape:pageshadow="2"
     inkscape:window-width="1920"
     inkscape:window-height="1149"
     id="namedview32"
     showgrid="false"
     inkscape:zoom="2"
     inkscape:cx="221.90415"
     inkscape:cy="295"
     inkscape:window-x="0"
     inkscape:window-y="25"
     inkscape:window-maximized="1"
     inkscape:current-layer="svg2" />
  <path
     d="m 49.6,0 64,0 c 17.67188,0 32,14.328125 32,32 l -80,0 c -8.83594,0 -16,7.164062 -16,16 l 0,57.60156 48,-9.60156 160,0 c 2.28125,-20.382812 17.71094,-32 40,-32 24,0 35.76953,12.601562 40,24 2.20703,7.847656 2.20703,16.15234 0,24 l 12,7.6 51.6,-42 c 0,-8.83594 7.16406,-16 16,-16 8.83594,0 16,7.16406 16,16 -0.004,2.24609 -0.48828,4.46484 -1.41406,6.51172 10.30859,4.80859 24.31705,16.03639 17.41406,19.70312 L 343.6,159.90742 465.6,160 c 17.67186,0.0134 -16,32 -40,32 l -376,0 c -26.50781,0 -48,-21.49219 -48,-48 l 0,-96 C 1.6,21.492188 23.09219,0 49.6,0 Z"
     id="path4"
     inkscape:connector-curvature="0"
     style="fill:#55b56a"
     sodipodi:nodetypes="sscsscccsccccsccscssssss" />
  <path
     d="m 425.6,192 -376,0 C 29.275781,191.98047 11.166406,179.16016 4.392969,160 L 465.6,160 c 0,17.67187 -16,32 -40,32 z m 0,0"
     id="path6"
     inkscape:connector-curvature="0"
     style="fill:#318942" />
  <path
     d="m 321.6,192 -64,0 0,32 96,0 c 0,-17.67188 -14.32812,-32 -32,-32 z m 0,0"
     id="path8"
     inkscape:connector-curvature="0"
     style="fill:#55b56a" />
  <path
     d="m 344,169.2 120,0 c 4.41797,0 8,-3.58203 8,-8 0,-4.41797 -3.58203,-8 -8,-8 l -120,0 c -4.41797,0 -8,3.58203 -8,8 0,4.41797 3.58203,8 8,8 z m 0,0"
     id="path10"
     inkscape:connector-curvature="0"
     style="fill:#32393f" />
  <g
     id="g12"
     transform="matrix(-1,0,0,1,473.6,0)"
     style="fill:#ffd782">
    <path
       d="m 232,136 -8,0 c -4.41797,0 -8,-3.58203 -8,-8 0,-4.41797 3.58203,-8 8,-8 l 8,0 c 4.41797,0 8,3.58203 8,8 0,4.41797 -3.58203,8 -8,8 z m 0,0"
       id="path14"
       inkscape:connector-curvature="0" />
    <path
       d="m 272,136 -8,0 c -4.41797,0 -8,-3.58203 -8,-8 0,-4.41797 3.58203,-8 8,-8 l 8,0 c 4.41797,0 8,3.58203 8,8 0,4.41797 -3.58203,8 -8,8 z m 0,0"
       id="path16"
       inkscape:connector-curvature="0" />
    <path
       d="m 312,136 -8,0 c -4.41797,0 -8,-3.58203 -8,-8 0,-4.41797 3.58203,-8 8,-8 l 8,0 c 4.41797,0 8,3.58203 8,8 0,4.41797 -3.58203,8 -8,8 z m 0,0"
       id="path18"
       inkscape:connector-curvature="0" />
    <path
       d="m 352,136 -8,0 c -4.41797,0 -8,-3.58203 -8,-8 0,-4.41797 3.58203,-8 8,-8 l 8,0 c 4.41797,0 8,3.58203 8,8 0,4.41797 -3.58203,8 -8,8 z m 0,0"
       id="path20"
       inkscape:connector-curvature="0" />
  </g>
  <path
     d="m 289.6,104 16,0 c 4.41797,0 8,-3.58203 8,-8 0,-4.417969 -3.58203,-8 -8,-8 l -16,0 c -4.41797,0 -8,3.582031 -8,8 0,4.41797 3.58203,8 8,8 z m 0,0"
     id="path22"
     inkscape:connector-curvature="0"
     style="fill:#32393f" />
  <path
     d="m 193.6,64 0,32 32,0 c 0,-17.671875 -14.32812,-32 -32,-32 z m 0,0"
     id="path24"
     inkscape:connector-curvature="0"
     style="fill:#318942" />
  <path
     d="m 153.6,64 0,32 32,0 c 0,-17.671875 -14.32812,-32 -32,-32 z m 0,0"
     id="path26"
     inkscape:connector-curvature="0"
     style="fill:#318942" />
  <path
     d="m 113.6,64 0,32 32,0 c 0,-17.671875 -14.32812,-32 -32,-32 z m 0,0"
     id="path28"
     inkscape:connector-curvature="0"
     style="fill:#318942" />
  <path
     d="m 161.6,192 -64,0 0,32 96,0 c 0,-17.67188 -14.32812,-32 -32,-32 z m 0,0"
     id="path30"
     inkscape:connector-curvature="0"
     style="fill:#55b56a" />
  <path
     d="M 348.95262,166.20977 451.3083,107.3555 c 3.76837,-2.1668 4.88473,-6.69191 2.49325,-10.106249 -2.39148,-3.414337 -7.3858,-4.425818 -11.15417,-2.259019 L 340.2917,153.8445 c -3.76837,2.16681 -4.88474,6.69191 -2.49324,10.10625 2.39147,3.41434 7.3858,4.42582 11.15416,2.25902 z m 0,0"
     id="path10-3"
     inkscape:connector-curvature="0"
     style="fill:#32393f" />
</svg>
