<?xml version="1.0" encoding="UTF-8" standalone="no"?>
<svg
   xmlns:dc="http://purl.org/dc/elements/1.1/"
   xmlns:cc="http://creativecommons.org/ns#"
   xmlns:rdf="http://www.w3.org/1999/02/22-rdf-syntax-ns#"
   xmlns:svg="http://www.w3.org/2000/svg"
   xmlns="http://www.w3.org/2000/svg"
   xmlns:sodipodi="http://sodipodi.sourceforge.net/DTD/sodipodi-0.dtd"
   xmlns:inkscape="http://www.inkscape.org/namespaces/inkscape"
   height="472pt"
   viewBox="0 -124 472 472"
   width="472pt"
   id="svg2"
   version="1.1"
   inkscape:version="0.91 r13725"
   sodipodi:docname="crocodile-right.svg">
  <metadata
     id="metadata36">
    <rdf:RDF>
      <cc:Work
         rdf:about="">
        <dc:format>image/svg+xml</dc:format>
        <dc:type
           rdf:resource="http://purl.org/dc/dcmitype/StillImage" />
        <dc:title></dc:title>
      </cc:Work>
    </rdf:RDF>
  </metadata>
  <defs
     id="defs34" />
  <sodipodi:namedview
     pagecolor="#ffffff"
     bordercolor="#666666"
     borderopacity="1"
     objecttolerance="10"
     gridtolerance="10"
     guidetolerance="10"
     inkscape:pageopacity="0"
     inkscape:pageshadow="2"
     inkscape:window-width="640"
     inkscape:window-height="480"
     id="namedview32"
     showgrid="false"
     inkscape:zoom="0.4"
     inkscape:cx="295"
     inkscape:cy="295"
     inkscape:window-x="2141"
     inkscape:window-y="242"
     inkscape:window-maximized="0"
     inkscape:current-layer="svg2" />
  <path
     d="m 48,0 64,0 c 17.67187,0 32,14.328125 32,32 L 64,32 C 55.164062,32 48,39.164062 48,48 L 48,105.60156 96,96 256,96 c 2.28125,-20.382812 17.71094,-32 40,-32 24,0 35.76953,12.601562 40,24 2.20703,7.847656 2.20703,16.15234 0,24 l 24,16 56,0 c 0,-8.83594 7.16406,-16 16,-16 8.83594,0 16,7.16406 16,16 -0.004,2.24609 -0.48828,4.46484 -1.41406,6.51172 C 456.89453,139.32031 464,146.39844 464,154.21484 L 464,160 c 0,17.67187 -16,32 -40,32 L 48,192 C 21.492188,192 0,170.50781 0,144 L 0,48 C 0,21.492188 21.492188,0 48,0 Z m 0,0"
     id="path4"
     inkscape:connector-curvature="0"
     style="fill:#55b56a" />
  <path
     d="M 424,192 48,192 C 27.675781,191.98047 9.566406,179.16016 2.792969,160 L 464,160 c 0,17.67187 -16,32 -40,32 z m 0,0"
     id="path6"
     inkscape:connector-curvature="0"
     style="fill:#318942" />
  <path
     d="m 320,192 -64,0 0,32 96,0 c 0,-17.67188 -14.32813,-32 -32,-32 z m 0,0"
     id="path8"
     inkscape:connector-curvature="0"
     style="fill:#55b56a" />
  <path
     d="m 344,168 120,0 c 4.41797,0 8,-3.58203 8,-8 0,-4.41797 -3.58203,-8 -8,-8 l -120,0 c -4.41797,0 -8,3.58203 -8,8 0,4.41797 3.58203,8 8,8 z m 0,0"
     id="path10"
     inkscape:connector-curvature="0"
     style="fill:#32393f" />
  <g
     id="g12"
     transform="matrix(-1,0,0,1,472,0)"
     style="fill:#ffd782">
    <path
       d="m 232,136 -8,0 c -4.41797,0 -8,-3.58203 -8,-8 0,-4.41797 3.58203,-8 8,-8 l 8,0 c 4.41797,0 8,3.58203 8,8 0,4.41797 -3.58203,8 -8,8 z m 0,0"
       id="path14"
       inkscape:connector-curvature="0" />
    <path
       d="m 272,136 -8,0 c -4.41797,0 -8,-3.58203 -8,-8 0,-4.41797 3.58203,-8 8,-8 l 8,0 c 4.41797,0 8,3.58203 8,8 0,4.41797 -3.58203,8 -8,8 z m 0,0"
       id="path16"
       inkscape:connector-curvature="0" />
    <path
       d="m 312,136 -8,0 c -4.41797,0 -8,-3.58203 -8,-8 0,-4.41797 3.58203,-8 8,-8 l 8,0 c 4.41797,0 8,3.58203 8,8 0,4.41797 -3.58203,8 -8,8 z m 0,0"
       id="path18"
       inkscape:connector-curvature="0" />
    <path
       d="m 352,136 -8,0 c -4.41797,0 -8,-3.58203 -8,-8 0,-4.41797 3.58203,-8 8,-8 l 8,0 c 4.41797,0 8,3.58203 8,8 0,4.41797 -3.58203,8 -8,8 z m 0,0"
       id="path20"
       inkscape:connector-curvature="0" />
  </g>
  <path
     d="m 288,104 16,0 c 4.41797,0 8,-3.58203 8,-8 0,-4.417969 -3.58203,-8 -8,-8 l -16,0 c -4.41797,0 -8,3.582031 -8,8 0,4.41797 3.58203,8 8,8 z m 0,0"
     id="path22"
     inkscape:connector-curvature="0"
     style="fill:#32393f" />
  <path
     d="m 192,64 0,32 32,0 C 224,78.328125 209.67187,64 192,64 Z m 0,0"
     id="path24"
     inkscape:connector-curvature="0"
     style="fill:#318942" />
  <path
     d="m 152,64 0,32 32,0 C 184,78.328125 169.67187,64 152,64 Z m 0,0"
     id="path26"
     inkscape:connector-curvature="0"
     style="fill:#318942" />
  <path
     d="m 112,64 0,32 32,0 C 144,78.328125 129.67187,64 112,64 Z m 0,0"
     id="path28"
     inkscape:connector-curvature="0"
     style="fill:#318942" />
  <path
     d="m 160,192 -64,0 0,32 96,0 c 0,-17.67188 -14.32813,-32 -32,-32 z m 0,0"
     id="path30"
     inkscape:connector-curvature="0"
     style="fill:#55b56a" />
</svg>
