<svg height="472pt" viewBox="0 -124 472 472" width="472pt" xmlns="http://www.w3.org/2000/svg"><path d="m424 0h-64c-17.671875 0-32 14.328125-32 32h80c8.835938 0 16 7.164062 16 16v57.601562l-48-9.601562h-160c-2.28125-20.382812-17.710938-32-40-32-24 0-35.769531 12.601562-40 24-2.207031 7.847656-2.207031 16.152344 0 24l-24 16h-56c0-8.835938-7.164062-16-16-16s-16 7.164062-16 16c.003906 2.246094.488281 4.464844 1.414062 6.511719-10.308593 4.808593-17.414062 11.886719-17.414062 19.703125v5.785156c0 17.671875 16 32 40 32h376c26.507812 0 48-21.492188 48-48v-96c0-26.507812-21.492188-48-48-48zm0 0" fill="#55b56a"/><path d="m48 192h376c20.324219-.019531 38.433594-12.839844 45.207031-32h-461.207031c0 17.671875 16 32 40 32zm0 0" fill="#318942"/><path d="m152 192h64v32h-96c0-17.671875 14.328125-32 32-32zm0 0" fill="#55b56a"/><path d="m128 168h-120c-4.417969 0-8-3.582031-8-8s3.582031-8 8-8h120c4.417969 0 8 3.582031 8 8s-3.582031 8-8 8zm0 0" fill="#32393f"/><g fill="#ffd782"><path d="m232 136h-8c-4.417969 0-8-3.582031-8-8s3.582031-8 8-8h8c4.417969 0 8 3.582031 8 8s-3.582031 8-8 8zm0 0"/><path d="m272 136h-8c-4.417969 0-8-3.582031-8-8s3.582031-8 8-8h8c4.417969 0 8 3.582031 8 8s-3.582031 8-8 8zm0 0"/><path d="m312 136h-8c-4.417969 0-8-3.582031-8-8s3.582031-8 8-8h8c4.417969 0 8 3.582031 8 8s-3.582031 8-8 8zm0 0"/><path d="m352 136h-8c-4.417969 0-8-3.582031-8-8s3.582031-8 8-8h8c4.417969 0 8 3.582031 8 8s-3.582031 8-8 8zm0 0"/></g><path d="m184 104h-16c-4.417969 0-8-3.582031-8-8s3.582031-8 8-8h16c4.417969 0 8 3.582031 8 8s-3.582031 8-8 8zm0 0" fill="#32393f"/><path d="m280 64v32h-32c0-17.671875 14.328125-32 32-32zm0 0" fill="#318942"/><path d="m320 64v32h-32c0-17.671875 14.328125-32 32-32zm0 0" fill="#318942"/><path d="m360 64v32h-32c0-17.671875 14.328125-32 32-32zm0 0" fill="#318942"/><path d="m312 192h64v32h-96c0-17.671875 14.328125-32 32-32zm0 0" fill="#55b56a"/></svg>