<?xml version="1.0" encoding="UTF-8" standalone="no"?>
<svg
   xmlns:dc="http://purl.org/dc/elements/1.1/"
   xmlns:cc="http://creativecommons.org/ns#"
   xmlns:rdf="http://www.w3.org/1999/02/22-rdf-syntax-ns#"
   xmlns:svg="http://www.w3.org/2000/svg"
   xmlns="http://www.w3.org/2000/svg"
   xmlns:sodipodi="http://sodipodi.sourceforge.net/DTD/sodipodi-0.dtd"
   xmlns:inkscape="http://www.inkscape.org/namespaces/inkscape"
   id="Layer_1"
   enable-background="new 0 0 464 464"
   height="512"
   viewBox="0 0 464 464"
   width="512"
   version="1.1"
   inkscape:version="0.91 r13725"
   sodipodi:docname="cybertruck-l.svg">
  <metadata
     id="metadata23">
    <rdf:RDF>
      <cc:Work
         rdf:about="">
        <dc:format>image/svg+xml</dc:format>
        <dc:type
           rdf:resource="http://purl.org/dc/dcmitype/StillImage" />
        <dc:title></dc:title>
      </cc:Work>
    </rdf:RDF>
  </metadata>
  <defs
     id="defs21" />
  <sodipodi:namedview
     pagecolor="#ffffff"
     bordercolor="#666666"
     borderopacity="1"
     objecttolerance="10"
     gridtolerance="10"
     guidetolerance="10"
     inkscape:pageopacity="0"
     inkscape:pageshadow="2"
     inkscape:window-width="811"
     inkscape:window-height="480"
     id="namedview19"
     showgrid="false"
     inkscape:zoom="0.4609375"
     inkscape:cx="256"
     inkscape:cy="256"
     inkscape:window-x="0"
     inkscape:window-y="25"
     inkscape:window-maximized="0"
     inkscape:current-layer="Layer_1" />
  <path
     d="m8 307.779c-4.418 0-8-3.582-8-8v-88.652c0-3.237 1.95-6.155 4.941-7.392l224.521-92.905c1.645-.681 3.47-.793 5.186-.32l223.479 61.649c3.469.957 5.873 4.113 5.873 7.712v119.908c0 4.418-3.582 8-8 8z"
     fill="#d6f4fc"
     id="path3" />
  <path
     d="m464 179.869v52.24c0 4.418-3.582 8-8 8h-448c-4.418 0-8-3.582-8-8v-20.98c0-3.24 1.95-6.16 4.94-7.39l224.52-92.91c1.65-.68 3.47-.79 5.19-.32l223.48 61.65c3.47.96 5.87 4.11 5.87 7.71z"
     fill="#e8f8fc"
     id="path5" />
  <path
     d="m334 183.765v24.014c0 4.418-3.582 8-8 8h-210.852c-8.662 0-11.146-11.846-3.214-15.326l117.394-51.502c1.726-.757 3.663-.881 5.471-.349l93.458 27.488c3.405 1.001 5.743 4.126 5.743 7.675z"
     fill="#4d4e59"
     id="path7" />
  <circle
     cx="377"
     cy="307.779"
     fill="#42434d"
     r="46"
     id="circle9" />
  <circle
     cx="77"
     cy="307.779"
     fill="#42434d"
     r="46"
     id="circle11" />
  <g
     fill="#4d4e59"
     id="g13">
    <path
       d="m102.718 269.63c5.514 3.724 2.568 12.354-4.082 12.127-25.382-.868-48.57 19.729-47.609 47.633.231 6.697-8.371 9.72-12.131 4.173-20.315-29.968.698-70.319 36.204-71.746 10.25-.412 19.792 2.528 27.618 7.813z"
       id="path15" />
    <path
       d="m402.718 269.63c5.514 3.724 2.568 12.354-4.082 12.127-25.382-.868-48.57 19.729-47.609 47.633.231 6.697-8.371 9.72-12.131 4.173-20.315-29.968.698-70.319 36.204-71.746 10.25-.412 19.792 2.528 27.618 7.813z"
       id="path17" />
  </g>
</svg>
