<?xml version="1.0" encoding="UTF-8" standalone="no"?>
<svg
   xmlns:dc="http://purl.org/dc/elements/1.1/"
   xmlns:cc="http://creativecommons.org/ns#"
   xmlns:rdf="http://www.w3.org/1999/02/22-rdf-syntax-ns#"
   xmlns:svg="http://www.w3.org/2000/svg"
   xmlns="http://www.w3.org/2000/svg"
   xmlns:sodipodi="http://sodipodi.sourceforge.net/DTD/sodipodi-0.dtd"
   xmlns:inkscape="http://www.inkscape.org/namespaces/inkscape"
   id="Layer_1"
   enable-background="new 0 0 464 464"
   height="512"
   viewBox="0 0 464 464"
   width="512"
   version="1.1"
   inkscape:version="0.91 r13725"
   sodipodi:docname="cybertruck-r.svg">
  <metadata
     id="metadata23">
    <rdf:RDF>
      <cc:Work
         rdf:about="">
        <dc:format>image/svg+xml</dc:format>
        <dc:type
           rdf:resource="http://purl.org/dc/dcmitype/StillImage" />
        <dc:title></dc:title>
      </cc:Work>
    </rdf:RDF>
  </metadata>
  <defs
     id="defs21" />
  <sodipodi:namedview
     pagecolor="#ffffff"
     bordercolor="#666666"
     borderopacity="1"
     objecttolerance="10"
     gridtolerance="10"
     guidetolerance="10"
     inkscape:pageopacity="0"
     inkscape:pageshadow="2"
     inkscape:window-width="811"
     inkscape:window-height="480"
     id="namedview19"
     showgrid="false"
     inkscape:zoom="0.4609375"
     inkscape:cx="256"
     inkscape:cy="256"
     inkscape:window-x="0"
     inkscape:window-y="25"
     inkscape:window-maximized="0"
     inkscape:current-layer="Layer_1" />
  <path
     d="m 456,307.779 c 4.418,0 8,-3.582 8,-8 l 0,-88.652 c 0,-3.237 -1.95,-6.155 -4.941,-7.392 L 234.538,110.83 c -1.645,-0.681 -3.47,-0.793 -5.186,-0.32 L 5.873,172.159 C 2.404,173.116 0,176.272 0,179.871 l 0,119.908 c 0,4.418 3.582,8 8,8 z"
     id="path3"
     inkscape:connector-curvature="0"
     style="fill:#d6f4fc" />
  <path
     d="m 0,179.869 0,52.24 c 0,4.418 3.582,8 8,8 l 448,0 c 4.418,0 8,-3.582 8,-8 l 0,-20.98 c 0,-3.24 -1.95,-6.16 -4.94,-7.39 l -224.52,-92.91 c -1.65,-0.68 -3.47,-0.79 -5.19,-0.32 L 5.87,172.159 C 2.4,173.119 0,176.269 0,179.869 Z"
     id="path5"
     inkscape:connector-curvature="0"
     style="fill:#e8f8fc" />
  <path
     d="m 130,183.765 0,24.014 c 0,4.418 3.582,8 8,8 l 210.852,0 c 8.662,0 11.146,-11.846 3.214,-15.326 L 234.672,148.951 c -1.726,-0.757 -3.663,-0.881 -5.471,-0.349 l -93.458,27.488 c -3.405,1.001 -5.743,4.126 -5.743,7.675 z"
     id="path7"
     inkscape:connector-curvature="0"
     style="fill:#4d4e59" />
  <circle
     cx="-87"
     cy="307.77899"
     r="46"
     id="circle9"
     transform="scale(-1,1)"
     style="fill:#42434d" />
  <circle
     cx="-387"
     cy="307.77899"
     r="46"
     id="circle11"
     transform="scale(-1,1)"
     style="fill:#42434d" />
  <g
     id="g13"
     transform="matrix(-1,0,0,1,464,0)"
     style="fill:#4d4e59">
    <path
       d="m 102.718,269.63 c 5.514,3.724 2.568,12.354 -4.082,12.127 -25.382,-0.868 -48.57,19.729 -47.609,47.633 0.231,6.697 -8.371,9.72 -12.131,4.173 -20.315,-29.968 0.698,-70.319 36.204,-71.746 10.25,-0.412 19.792,2.528 27.618,7.813 z"
       id="path15"
       inkscape:connector-curvature="0" />
    <path
       d="m 402.718,269.63 c 5.514,3.724 2.568,12.354 -4.082,12.127 -25.382,-0.868 -48.57,19.729 -47.609,47.633 0.231,6.697 -8.371,9.72 -12.131,4.173 -20.315,-29.968 0.698,-70.319 36.204,-71.746 10.25,-0.412 19.792,2.528 27.618,7.813 z"
       id="path17"
       inkscape:connector-curvature="0" />
  </g>
</svg>
