<svg xmlns="http://www.w3.org/2000/svg" xmlns:xlink="http://www.w3.org/1999/xlink" version="1.1" style="" xml:space="preserve" width="512.1209716796875" height="512.1209716796875"><rect id="backgroundrect" width="100%" height="100%" x="0" y="0" fill="none" stroke="none"/>




















<g class="currentLayer" style=""><title>Layer 1</title><g id="svg_1" class="">
	<path style="fill:#FFA000;" d="M245.334,490.727c-5.891,0-10.667-4.776-10.667-10.667V330.727c0-5.891,4.776-10.667,10.667-10.667   s10.667,4.776,10.667,10.667V480.06C256.001,485.952,251.225,490.727,245.334,490.727z" id="svg_2"/>
	<path style="fill:#FFA000;" d="M472.662,237.074l-6.4-4.971l-6.4,4.949c-26.453,20.075-102.933,40.341-214.528,40.341   S57.259,257.127,30.977,237.052l-6.4-4.949l-6.4,4.971c-10.444,6.417-17.198,17.434-18.176,29.653   c0,49.067,123.413,74.667,245.333,74.667s245.333-25.6,245.333-74.667C489.727,254.54,483.041,243.529,472.662,237.074z" id="svg_3"/>
</g><g class="" id="svg_27" fill="#919191" fill-opacity="1">
	<path style="" d="M245.334,490.727c-5.891,0-10.667-4.776-10.667-10.667V330.727c0-5.891,4.776-10.667,10.667-10.667   s10.667,4.776,10.667,10.667V480.06C256.001,485.952,251.225,490.727,245.334,490.727z" id="svg_29" fill="#919191" fill-opacity="1"/>
	<path style="" d="M472.662,237.074l-6.4-4.971l-6.4,4.949c-26.453,20.075-102.933,40.341-214.528,40.341   S57.259,257.127,30.977,237.052l-6.4-4.949l-6.4,4.971c-10.444,6.417-17.198,17.434-18.176,29.653   c0,49.067,123.413,74.667,245.333,74.667s245.333-25.6,245.333-74.667C489.727,254.54,483.041,243.529,472.662,237.074z" id="svg_31" fill="#919191" fill-opacity="1"/>
</g><path style="" d="M308.2350988473892,151.847 l-8.128,-0.8750000000000002 l-2.539,7.787 c-15.963000000000001,9.782 -34.721000000000004,13.991 -53.333,11.968 c-18.526,1.919 -37.177,-2.188 -53.184,-11.712 l-2.6670000000000007,-7.808 l-8.149000000000001,0.6400000000000002 C92.53409884738922,158.524 -1.097901152610779,181.01 -1.097901152610779,224.06 c0,49.067 123.413,74.667 245.333,74.667 s245.333,-25.6 245.333,-74.667 C489.5680988473892,181.01 395.93609884738925,158.524 308.2350988473892,151.847 z" id="svg_4" class="" fill="#b6b6b6" fill-opacity="1"/><path style="fill:#FFA000;" d="M245.334,149.394c-5.891,0-10.667-4.776-10.667-10.667V32.06c0-5.891,4.776-10.667,10.667-10.667  s10.667,4.776,10.667,10.667v106.667C256.001,144.618,251.225,149.394,245.334,149.394z" id="svg_5" class=""/><path style="" d="M245.334,149.394 c-5.891,0 -10.667,-4.776 -10.667,-10.667 V32.06 c0,-5.891 4.776,-10.667 10.667,-10.667 s10.667,4.776 10.667,10.667 v106.667 C256.001,144.618 251.225,149.394 245.334,149.394 z" class="" id="svg_25" fill="#919191" fill-opacity="1"/><g id="svg_6" class="" fill="#4141e8" fill-opacity="1">
	<path style="" d="M352.001,213.394c-5.891,0.011-10.675-4.757-10.686-10.648c-0.005-2.84,1.123-5.565,3.134-7.571   L493.782,45.842c4.093-4.237,10.845-4.354,15.083-0.262c4.237,4.093,4.354,10.845,0.262,15.083   c-0.086,0.089-0.173,0.176-0.262,0.262L359.531,210.258C357.536,212.26,354.827,213.388,352.001,213.394z" id="svg_7" fill="#4141e8" fill-opacity="1"/>
	<path style="" d="M138.667,234.727c-3.118,0-6.08-1.364-8.107-3.733L2.561,81.66   c-3.829-4.477-3.304-11.211,1.173-15.04c4.477-3.829,11.211-3.304,15.04,1.173l128,149.333c3.829,4.477,3.304,11.21-1.173,15.039   C143.669,233.819,141.21,234.727,138.667,234.727z" id="svg_8" fill="#4141e8" fill-opacity="1"/>
</g><path style="fill:#FFA000;" d="M245.334,128.06c-37.163,0-74.667,9.899-74.667,32s37.504,32,74.667,32s74.667-9.899,74.667-32  S282.497,128.06,245.334,128.06z" id="svg_9" class=""/><path style="" d="M245.334,128.06 c-37.163,0 -74.667,9.899000000000001 -74.667,32 s37.504,32 74.667,32 s74.667,-9.899000000000001 74.667,-32 S282.497,128.06 245.334,128.06 z" class="" id="svg_26" fill="#919191" fill-opacity="1"/><g id="svg_10">
</g><g id="svg_11">
</g><g id="svg_12">
</g><g id="svg_13">
</g><g id="svg_14">
</g><g id="svg_15">
</g><g id="svg_16">
</g><g id="svg_17">
</g><g id="svg_18">
</g><g id="svg_19">
</g><g id="svg_20">
</g><g id="svg_21">
</g><g id="svg_22">
</g><g id="svg_23">
</g><g id="svg_24">
</g></g></svg>