<?xml version="1.0" encoding="iso-8859-1"?>
<!-- Generator: Adobe Illustrator 19.0.0, SVG Export Plug-In . SVG Version: 6.00 Build 0)  -->
<svg version="1.1" id="Capa_1" xmlns="http://www.w3.org/2000/svg" xmlns:xlink="http://www.w3.org/1999/xlink" x="0px" y="0px"
	 viewBox="0 0 512 512" style="enable-background:new 0 0 512 512;" xml:space="preserve">
<g>
	<g>
		<path d="M511.4,250.139C452.041,294.067,320.852,300,256,300S59.959,294.067,0.6,250.139C-10.328,317.908,186.793,330,256,330
			C325.107,330,522.326,317.894,511.4,250.139z"/>
	</g>
</g>
<g>
	<g>
		<path d="M390.284,130.045C395.546,191.395,318.197,210,256,210c-62.19,0-139.547-18.602-134.284-79.955
			C64.647,139.303,0,157.903,0,195c0,59.326,167.802,75,256,75s256-15.674,256-75C512,157.903,447.353,139.303,390.284,130.045z"/>
	</g>
</g>
<g>
	<g>
		<path d="M271,91.507V15c0-8.291-6.709-15-15-15c-8.291,0-15,6.709-15,15v76.507c-46.882,2.444-90,16.395-90,44.493
			c0,31.084,52.734,45,105,45s105-13.916,105-45C361,107.902,317.882,93.952,271,91.507z"/>
	</g>
</g>
<g>
	<g>
		<path d="M256,360c-24.792,0-59.165-0.941-95.4-4.453c14.313,18.239,43.716,31.082,80.4,33.858V497c0,8.291,6.709,15,15,15
			s15-6.709,15-15V389.405c36.683-2.776,66.086-15.619,80.4-33.858C315.165,359.059,280.792,360,256,360z"/>
	</g>
</g>
<g>
</g>
<g>
</g>
<g>
</g>
<g>
</g>
<g>
</g>
<g>
</g>
<g>
</g>
<g>
</g>
<g>
</g>
<g>
</g>
<g>
</g>
<g>
</g>
<g>
</g>
<g>
</g>
<g>
</g>
</svg>
