<svg id="Layer_2" height="512" viewBox="0 0 128 128" width="512" xmlns="http://www.w3.org/2000/svg" data-name="Layer 2"><path d="m81.875 38.75a9.5 9.5 0 0 0 -9.5-9.5h-16.75a9.5 9.5 0 0 0 -9.5 9.5 68.654 68.654 0 0 0 -43.293 15.371l-1.082.879h124.5l-1.082-.879a68.654 68.654 0 0 0 -43.293-15.371z" fill="#ffa726"/><path d="m51.625 33.25h16.75a9.5 9.5 0 0 1 9.5 9.5 68.645 68.645 0 0 1 39.125 12.25h9.254l-1.082-.879a68.654 68.654 0 0 0 -43.297-15.371 9.5 9.5 0 0 0 -9.5-9.5h-16.75a9.494 9.494 0 0 0 -8.41 5.09 9.451 9.451 0 0 1 4.41-1.09z" fill="#fb8c00"/><path d="m46.125 82.422a9.5 9.5 0 0 0 9.5 9.5h16.75a9.5 9.5 0 0 0 9.5-9.5 68.654 68.654 0 0 0 43.293-15.371l1.082-.879h-124.5l1.082.879a68.654 68.654 0 0 0 43.293 15.371z" fill="#ffa726"/><path d="m59.875 55h8.25v11.172h-8.25z" fill="#424242"/><path d="m59.875 55h8.25v4.5h-8.25z" fill="#212121"/><path d="m59.875 91.922h8.25v34.328h-8.25z" fill="#424242"/><path d="m61.875 1.75h4.25a2 2 0 0 1 2 2v6.172a0 0 0 0 1 0 0h-8.25a0 0 0 0 1 0 0v-6.172a2 2 0 0 1 2-2z" fill="#424242"/><path d="m59.875 18.172h8.25v11.078h-8.25z" fill="#424242"/><rect fill="#757575" height="23.75" rx="4.125" transform="matrix(0 1 -1 0 78.047 -49.953)" width="8.25" x="59.875" y="2.172"/><g fill="#fff176"><path d="m37.167 18.577a1.75 1.75 0 0 1 -1.75-1.75v-12.014a1.75 1.75 0 0 1 3.5 0v12.014a1.75 1.75 0 0 1 -1.75 1.75z"/><path d="m37.167 18.577a1.75 1.75 0 0 1 -1.75-1.75v-12.014a1.75 1.75 0 0 1 3.5 0v12.014a1.75 1.75 0 0 1 -1.75 1.75z"/><path d="m28.007 22.371a1.743 1.743 0 0 1 -1.237-.513l-8.5-8.5a1.75 1.75 0 0 1 2.475-2.475l8.5 8.5a1.75 1.75 0 0 1 -1.237 2.987z"/><path d="m28.007 22.371a1.743 1.743 0 0 1 -1.237-.513l-8.5-8.5a1.75 1.75 0 0 1 2.475-2.475l8.5 8.5a1.75 1.75 0 0 1 -1.237 2.987z"/><path d="m24.212 31.531h-12.012a1.75 1.75 0 0 1 0-3.5h12.012a1.75 1.75 0 0 1 0 3.5z"/><path d="m24.212 31.531h-12.012a1.75 1.75 0 0 1 0-3.5h12.012a1.75 1.75 0 0 1 0 3.5z"/><path d="m90.833 18.577a1.75 1.75 0 0 1 -1.75-1.75v-12.014a1.75 1.75 0 0 1 3.5 0v12.014a1.75 1.75 0 0 1 -1.75 1.75z"/><path d="m90.833 18.577a1.75 1.75 0 0 1 -1.75-1.75v-12.014a1.75 1.75 0 0 1 3.5 0v12.014a1.75 1.75 0 0 1 -1.75 1.75z"/><path d="m99.993 22.371a1.75 1.75 0 0 1 -1.237-2.987l8.5-8.5a1.75 1.75 0 0 1 2.475 2.475l-8.5 8.5a1.743 1.743 0 0 1 -1.238.512z"/><path d="m99.993 22.371a1.75 1.75 0 0 1 -1.237-2.987l8.5-8.5a1.75 1.75 0 0 1 2.475 2.475l-8.5 8.5a1.743 1.743 0 0 1 -1.238.512z"/><path d="m115.8 31.531h-12.012a1.75 1.75 0 0 1 0-3.5h12.012a1.75 1.75 0 1 1 0 3.5z"/><path d="m115.8 31.531h-12.012a1.75 1.75 0 0 1 0-3.5h12.012a1.75 1.75 0 1 1 0 3.5z"/></g><path d="m51.625 87.922h16.75a9.5 9.5 0 0 0 9.5-9.5 68.645 68.645 0 0 0 39.125-12.25h9.254l-1.082.879a68.654 68.654 0 0 1 -43.297 15.371 9.5 9.5 0 0 1 -9.5 9.5h-16.75a9.494 9.494 0 0 1 -8.41-5.09 9.451 9.451 0 0 0 4.41 1.09z" fill="#fb8c00"/><path d="m59.875 91.922h8.25v4.5h-8.25z" fill="#212121"/></svg>