<?xml version="1.0" encoding="iso-8859-1"?>
<!-- Generator: Adobe Illustrator 19.0.0, SVG Export Plug-In . SVG Version: 6.00 Build 0)  -->
<svg version="1.1" id="Capa_1" xmlns="http://www.w3.org/2000/svg" xmlns:xlink="http://www.w3.org/1999/xlink" x="0px" y="0px"
	 viewBox="0 0 512.121 512.121" style="enable-background:new 0 0 512.121 512.121;" xml:space="preserve">
<g>
	<path style="fill:#FFA000;" d="M245.334,490.727c-5.891,0-10.667-4.776-10.667-10.667V330.727c0-5.891,4.776-10.667,10.667-10.667
		s10.667,4.776,10.667,10.667V480.06C256.001,485.952,251.225,490.727,245.334,490.727z"/>
	<path style="fill:#FFA000;" d="M472.662,237.074l-6.4-4.971l-6.4,4.949c-26.453,20.075-102.933,40.341-214.528,40.341
		S57.259,257.127,30.977,237.052l-6.4-4.949l-6.4,4.971c-10.444,6.417-17.198,17.434-18.176,29.653
		c0,49.067,123.413,74.667,245.333,74.667s245.333-25.6,245.333-74.667C489.727,254.54,483.041,243.529,472.662,237.074z"/>
</g>
<path style="fill:#FFC107;" d="M309.334,151.847l-8.128-0.875l-2.539,7.787c-15.963,9.782-34.721,13.991-53.333,11.968
	c-18.526,1.919-37.177-2.188-53.184-11.712l-2.667-7.808l-8.149,0.64C93.633,158.524,0.001,181.01,0.001,224.06
	c0,49.067,123.413,74.667,245.333,74.667s245.333-25.6,245.333-74.667C490.667,181.01,397.035,158.524,309.334,151.847z"/>
<path style="fill:#FFA000;" d="M245.334,149.394c-5.891,0-10.667-4.776-10.667-10.667V32.06c0-5.891,4.776-10.667,10.667-10.667
	s10.667,4.776,10.667,10.667v106.667C256.001,144.618,251.225,149.394,245.334,149.394z"/>
<g>
	<path style="fill:#795548;" d="M352.001,213.394c-5.891,0.011-10.675-4.757-10.686-10.648c-0.005-2.84,1.123-5.565,3.134-7.571
		L493.782,45.842c4.093-4.237,10.845-4.354,15.083-0.262c4.237,4.093,4.354,10.845,0.262,15.083
		c-0.086,0.089-0.173,0.176-0.262,0.262L359.531,210.258C357.536,212.26,354.827,213.388,352.001,213.394z"/>
	<path style="fill:#795548;" d="M138.667,234.727c-3.118,0-6.08-1.364-8.107-3.733L2.561,81.66
		c-3.829-4.477-3.304-11.211,1.173-15.04c4.477-3.829,11.211-3.304,15.04,1.173l128,149.333c3.829,4.477,3.304,11.21-1.173,15.039
		C143.669,233.819,141.21,234.727,138.667,234.727z"/>
</g>
<path style="fill:#FFA000;" d="M245.334,128.06c-37.163,0-74.667,9.899-74.667,32s37.504,32,74.667,32s74.667-9.899,74.667-32
	S282.497,128.06,245.334,128.06z"/>
<g>
</g>
<g>
</g>
<g>
</g>
<g>
</g>
<g>
</g>
<g>
</g>
<g>
</g>
<g>
</g>
<g>
</g>
<g>
</g>
<g>
</g>
<g>
</g>
<g>
</g>
<g>
</g>
<g>
</g>
</svg>
