<?xml version="1.0" encoding="iso-8859-1"?>
<!-- Generator: Adobe Illustrator 19.0.0, SVG Export Plug-In . SVG Version: 6.00 Build 0)  -->
<svg version="1.1" id="Layer_1" xmlns="http://www.w3.org/2000/svg" xmlns:xlink="http://www.w3.org/1999/xlink" x="0px" y="0px"
	 viewBox="0 0 511.981 511.981" style="enable-background:new 0 0 511.981 511.981;" xml:space="preserve">
<path style="fill:#F5F7FA;" d="M498.637,190.336c0,37.749-108.777,68.341-242.982,68.341c-134.198,0-242.991-30.592-242.991-68.341
	c0-37.733,108.793-68.325,242.991-68.325C389.86,122.011,498.637,152.603,498.637,190.336z"/>
<path style="fill:#5D9CEC;" d="M440.983,271.989l-57.997,18c0,0-93.997,10.5-108.995,10.25c-15-0.25-89.997,0-89.997,0
	l-95.997-20.25L29,257.583l-7-1.593v151.994l33.999,28l125.995,29.998H285.99l95.996-9l67.997-23.998l41.998-32.998V255.99
	L440.983,271.989z"/>
<g>
	<polygon style="fill:#434A54;" points="471.327,414.655 439.327,436.655 352.643,461.325 246.655,465.325 146.659,459.325 
		100.848,446.671 43.999,427.327 22,407.983 12.664,401.999 12.664,438.655 39.335,465.981 103.333,488.653 196.657,495.997 
		284.646,495.997 400.641,483.997 450.639,473.325 485.982,448.999 498.637,434.655 498.637,397.329 	"/>
	<polygon style="fill:#434A54;" points="463.983,230.006 364.643,255.99 273.335,266.005 145.995,260.661 76.662,244.662 
		28.664,226.006 12.664,216.007 22,255.99 183.994,297.333 303.333,297.333 403.985,280.661 465.327,260.661 498.637,235.334 
		498.637,210.663 	"/>
</g>
<path d="M511.981,223.991v-31.999c0-25.405-27.468-47.186-79.419-62.998c-14.827-4.515-31.171-8.39-48.67-11.593L507.95,19.03
	c4.609-3.656,5.375-10.375,1.719-15c-3.656-4.609-10.375-5.375-14.984-1.719L355.206,112.917c-30.936-4.093-64.561-6.25-99.215-6.25
	c-34.663,0-68.278,2.156-99.223,6.25L17.297,2.312C12.679-1.344,5.97-0.578,2.313,4.031c-3.664,4.625-2.891,11.343,1.727,15
	l124.058,98.371c-17.507,3.203-33.851,7.078-48.686,11.593c-51.951,15.811-79.411,37.592-79.411,62.997v31.999
	c0,9.438,3.797,18.391,11.242,26.718v133.277h-0.578c-5.891,0-10.664,4.781-10.664,10.672v31.998
	c0,25.389,27.46,47.186,79.411,62.998c47.318,14.389,110.026,22.326,176.579,22.326c66.561,0,129.261-7.938,176.571-22.326
	c51.951-15.813,79.419-37.609,79.419-62.998v-31.998c0-5.891-4.781-10.672-10.656-10.672h-0.594V250.708
	C508.184,242.381,511.981,233.428,511.981,223.991z M255.991,277.333c37.467,0,73.7-2.531,106.652-7.281v10.438
	c-32.702,4.906-68.998,7.5-106.652,7.5c-37.663,0-73.95-2.594-106.66-7.5v-10.438C182.291,274.802,218.531,277.333,255.991,277.333z
	 M432.562,254.99c18.921-5.749,34.577-12.296,46.857-19.53v6.156c-9.843,8.156-26.749,16.967-53.061,24.967
	c-12.968,3.938-27.187,7.375-42.373,10.281v-10.297C401.454,263.364,417.766,259.489,432.562,254.99z M127.996,276.864
	c-15.188-2.906-29.397-6.344-42.373-10.281c-26.304-8-43.21-16.811-53.053-24.967v-6.156c12.28,7.234,27.937,13.781,46.842,19.53
	c14.804,4.5,31.116,8.375,48.584,11.578V276.864z M32.57,267.458c12.28,7.234,27.937,13.781,46.842,19.531
	c14.804,4.5,31.116,8.375,48.584,11.578v147.729c-12.195-2.625-23.679-5.625-34.288-9c-37.709-12.031-61.138-28.375-61.138-42.639
	L32.57,267.458L32.57,267.458z M149.331,302.05c32.96,4.75,69.2,7.281,106.66,7.281c37.467,0,73.7-2.531,106.652-7.281v148.309
	c-32.437,5.404-68.826,8.295-106.652,8.295c-37.835,0-74.208-2.891-106.66-8.295V302.05z M383.986,298.567
	c17.468-3.203,33.78-7.078,48.576-11.578c18.921-5.75,34.577-12.297,46.857-19.531v127.199c0,14.264-23.437,30.607-61.153,42.639
	c-10.594,3.375-22.094,6.375-34.28,9L383.986,298.567L383.986,298.567z M85.623,149.4c19.241-5.844,41.201-10.594,65.036-14.093
	l66.896,53.044c1.961,1.547,4.297,2.313,6.617,2.313c3.148,0,6.266-1.391,8.367-4.046c3.664-4.609,2.883-11.312-1.727-14.984
	l-50.436-39.983c24.054-2.406,49.506-3.656,75.614-3.656s51.561,1.25,75.622,3.656l-50.436,39.983
	c-4.625,3.672-5.406,10.375-1.734,14.984c2.109,2.656,5.219,4.046,8.359,4.046c2.327,0,4.655-0.766,6.624-2.313l66.904-53.044
	c23.827,3.5,45.779,8.25,65.028,14.093c47.405,14.437,64.278,31.467,64.278,42.592s-16.873,28.155-64.278,42.592
	c-16.249,4.938-34.468,9.094-54.091,12.375c-0.453,0.063-0.875,0.125-1.313,0.219c-34.827,5.749-74.092,8.812-114.965,8.812
	c-40.874,0-80.138-3.063-114.965-8.812c-0.43-0.094-0.859-0.156-1.305-0.219c-19.632-3.281-37.842-7.438-54.099-12.375
	c-47.397-14.438-64.287-31.468-64.287-42.592S38.225,163.837,85.623,149.4z M21.336,426.655v-6.172
	c10.266,12.5,29.952,25.656,65.889,37.123c12.538,4,26.209,7.5,40.771,10.469v11.453c-15.188-2.891-29.397-6.328-42.373-10.297
	C38.225,454.825,21.336,437.78,21.336,426.655z M149.331,483.153V471.95c32.749,5.25,69.067,8.031,106.66,8.031
	c37.592,0,73.903-2.781,106.652-8.031v11.203c-32.702,4.891-68.998,7.5-106.652,7.5
	C218.328,490.653,182.041,488.044,149.331,483.153z M426.359,469.231c-12.968,3.969-27.187,7.406-42.373,10.297v-11.453
	c14.562-2.969,28.233-6.469,40.78-10.469c35.936-11.467,55.622-24.623,65.871-37.123v6.172
	C490.637,437.78,473.764,454.825,426.359,469.231z"/>
<g>
</g>
<g>
</g>
<g>
</g>
<g>
</g>
<g>
</g>
<g>
</g>
<g>
</g>
<g>
</g>
<g>
</g>
<g>
</g>
<g>
</g>
<g>
</g>
<g>
</g>
<g>
</g>
<g>
</g>
</svg>
