<?xml version="1.0" encoding="iso-8859-1"?>
<!-- Generator: Adobe Illustrator 19.0.0, SVG Export Plug-In . SVG Version: 6.00 Build 0)  -->
<svg version="1.1" id="Capa_1" xmlns="http://www.w3.org/2000/svg" xmlns:xlink="http://www.w3.org/1999/xlink" x="0px" y="0px"
	 viewBox="0 0 468.293 468.293" style="enable-background:new 0 0 468.293 468.293;" xml:space="preserve">
<path style="fill:#E56353;" d="M67.461,204.139v117.6c0,37.015,71.177,67.022,158.979,67.022s158.979-30.007,158.979-67.022v-117.6
	H67.461z"/>
<g>
	<polyline style="fill:#FCD462;" points="67.461,204.138 125.838,373.647 173.447,204.138 	"/>
	<polyline style="fill:#FCD462;" points="173.447,204.138 231.956,388.72 279.433,204.138 	"/>
	<polyline style="fill:#FCD462;" points="279.433,204.138 339.886,368.682 385.419,204.138 	"/>
</g>
<ellipse style="fill:#3A556A;" cx="226.441" cy="208.478" rx="158.982" ry="53.323"/>
<ellipse style="fill:#EBF0F3;" cx="226.441" cy="204.113" rx="158.982" ry="53.323"/>
<ellipse style="fill:#E1E6E9;" cx="226.441" cy="204.113" rx="101.707" ry="34.117"/>
<g>
	<path style="fill:#DC8744;" d="M273.191,199.782l189.037-61.727c4.692-1.532,7.204-6.627,5.562-11.282
		c-1.642-4.655-6.794-7.046-11.41-5.295l-185.924,70.55c-3.016-3.553-7.997-5.091-12.653-3.448
		c-6.027,2.126-9.19,8.736-7.063,14.763c2.126,6.027,8.736,9.189,14.763,7.063C270.158,208.763,273.071,204.441,273.191,199.782z"/>
	<path style="fill:#DC8744;" d="M190.09,170.508L12.773,80.486c-4.402-2.234-9.78-0.408-11.91,4.045s-0.178,9.787,4.324,11.812
		l181.355,81.582c-0.379,4.645,2.055,9.254,6.509,11.385c5.765,2.758,12.675,0.321,15.433-5.444
		c2.758-5.765,0.321-12.675-5.445-15.433C198.585,166.302,193.469,167.298,190.09,170.508z"/>
</g>
<g>
</g>
<g>
</g>
<g>
</g>
<g>
</g>
<g>
</g>
<g>
</g>
<g>
</g>
<g>
</g>
<g>
</g>
<g>
</g>
<g>
</g>
<g>
</g>
<g>
</g>
<g>
</g>
<g>
</g>
</svg>
