<?xml version="1.0" encoding="iso-8859-1"?>
<!-- Generator: Adobe Illustrator 19.0.0, SVG Export Plug-In . SVG Version: 6.00 Build 0)  -->
<svg version="1.1" id="Capa_1" xmlns="http://www.w3.org/2000/svg" xmlns:xlink="http://www.w3.org/1999/xlink" x="0px" y="0px"
   height="512" width="512"
	 viewBox="0 0 511.999 511.999" style="enable-background:new 0 0 511.999 511.999;" xml:space="preserve">
<path style="fill:#966857;" d="M226,90.003H46.001c-8.291,0-15-6.709-15-15s6.709-15,15-15H226c8.291,0,15,6.709,15,15
	S234.291,90.003,226,90.003z"/>
<g>
	<path style="fill:#32D736;" d="M164.749,419.501l-44.374-115l-13.358-59.767L56.25,294.502l-43.749,86.249l-8.3,58.05
		C20.4,474.2,87.701,497,167.199,506.6L164.749,419.501z"/>
	<path style="fill:#32D736;" d="M344.799,506.9c-28.5,3.3-58.801,5.099-88.8,5.099s-60.3-1.8-88.8-5.4l12.001-75.299L219.1,323.302
		l32.699-77.7l4.2,7.2l39,65.4l47.401,125.1L344.799,506.9z"/>
</g>
<g>
	<path style="fill:#10BB67;" d="M496.373,378.876l-48.75-69.374l-48.525-71.381l-26.226,75.131l-22.5,114.374l-5.574,79.275
		c79.498-9.6,147.099-32.701,163.298-67.799L496.373,378.876z"/>
	<path style="fill:#10BB67;" d="M344.799,506.9c-28.5,3.3-58.801,5.099-88.8,5.099V252.801l39,65.399l47.401,125.1L344.799,506.9z"
		/>
</g>
<g>
	<path style="fill:#FEDB41;" d="M71.824,211.296c-1.765,1.765-71.822,15.707-71.822,15.707v70.94v124.058
		c0,5.918,1.613,11.473,4.058,16.824l88.304-152.782L71.824,211.296z"/>
	<path style="fill:#FEDB41;" d="M255.799,302.002l-82.033-63.882c-2.294,2.999-81.402,47.922-81.402,47.922l0.17,0.157l74.666,220.4
		L255.799,302.002z"/>
</g>
<g>
	<polygon style="fill:#FCBF29;" points="312.84,240.96 255.799,302.002 344.799,506.9 399.098,290.001 	"/>
	<path style="fill:#FCBF29;" d="M445.175,222.237l-46.077,67.763l108.998,149.1c2.701-5.4,3.9-11.1,3.9-17.1V288.238v-61.236
		L445.175,222.237z"/>
</g>
<path style="fill:#4C5CE2;" d="M256,152.003c-88.199,0-255.998,15.601-255.998,74.999S178.467,302.002,256,302.002
	c88.199,0,255.998-15.601,255.998-74.999S344.199,152.003,256,152.003z"/>
<path style="fill:#3D4EE0;" d="M511.998,227.002c0,59.399-167.799,74.999-255.998,74.999V152.003
	C344.199,152.003,511.998,167.603,511.998,227.002z"/>
<path style="fill:#EFE6DE;" d="M256,272.002c-34.356,0-92.197-3.363-142.145-12.842c-26.226-4.977-47.329-11.008-62.724-17.927
	c-16.885-7.588-20.571-13.397-21.109-14.416c0.607-2.9,14.444-18.125,71.175-30.254c63.206-13.512,134.467-14.562,154.802-14.562
	s91.597,1.05,154.802,14.562c58.067,12.414,71.196,28.073,71.196,30.438c0,2.365-13.129,18.024-71.196,30.438
	C347.596,270.951,276.334,272.002,256,272.002z"/>
<path style="fill:#DFCCBF;" d="M410.801,257.439c58.067-12.414,71.196-28.073,71.196-30.438c0-2.365-13.129-18.024-71.196-30.438
	C347.596,183.052,276.334,182.002,256,182.002v89.999C276.334,272.002,347.596,270.951,410.801,257.439z"/>
<path style="fill:#FEA832;" d="M256,30.004c-24.901,0-45,20.099-45,45s20.099,45,45,45s45-20.099,45-45S280.899,30.004,256,30.004z"
	/>
<path style="fill:#805142;" d="M333.372,189.143c-3.384,0-6.782-1.143-9.595-3.472c-6.357-5.303-7.222-14.766-1.919-21.138
	L454.469,5.394c5.317-6.357,14.736-7.222,21.138-1.919c6.357,5.303,7.222,14.766,1.919,21.138l-132.611,159.14
	C341.941,187.312,337.678,189.143,333.372,189.143z"/>
<g>
	<path style="fill:#FE9923;" d="M256,120.003V30.004c24.901,0,45,20.099,45,45S280.899,120.003,256,120.003z"/>
	<path style="fill:#FE9923;" d="M315.999,243.59c-24.814,0-45-20.186-45-45s20.186-45,45-45c24.814,0,45,20.186,45,45
		S340.813,243.59,315.999,243.59z"/>
</g>
<g>
</g>
<g>
</g>
<g>
</g>
<g>
</g>
<g>
</g>
<g>
</g>
<g>
</g>
<g>
</g>
<g>
</g>
<g>
</g>
<g>
</g>
<g>
</g>
<g>
</g>
<g>
</g>
<g>
</g>
</svg>
