<svg xmlns="http://www.w3.org/2000/svg" xmlns:xlink="http://www.w3.org/1999/xlink" version="1.1" style="" xml:space="preserve" width="507.9010925292969" height="534.4066162109375"><rect id="backgroundrect" width="100%" height="100%" x="0" y="0" fill="none" stroke="none" class="" style=""/>

















<g class="currentLayer" style=""><title>Layer 1</title><path style="" d="M221.434,512.7747586445809 C308.9,546.9087586445809 395.3,443.44175864458083 347.3,363.44175864458083 c0,-1.067 -1.067,-1.067 -1.067,-2.133 c4.267,43.733 -6.4,75.733 -26.667,93.867 c10.667,-25.6 3.2,-55.467 -9.6,-81.067 c-12.8,-24.533 -30.933,-46.933 -44.8,-70.4 c-13.867,-24.533 -24.533,-52.267 -18.133,-80 c-25.6,19.2 -43.733,48 -51.2,78.933 c-7.467,30.933 -3.2,65.067 10.667,93.867 c-16,-11.733 -27.733,-30.933 -28.8,-51.2 c-17.067,20.267 -27.733,46.933 -26.667,73.6 C151.034,460.50875864458084 184.1,497.84175864458086 221.434,512.7747586445809 z" id="svg_2" class="selected" stroke="#000000" stroke-width="10" stroke-opacity="1" fill="#ffffff" fill-opacity="1"/><g id="svg_3">
</g><g id="svg_4">
</g><g id="svg_5">
</g><g id="svg_6">
</g><g id="svg_7">
</g><g id="svg_8">
</g><g id="svg_9">
</g><g id="svg_10">
</g><g id="svg_11">
</g><g id="svg_12">
</g><g id="svg_13">
</g><g id="svg_14">
</g><g id="svg_15">
</g><g id="svg_16">
</g><g id="svg_17">
</g></g></svg>