<svg xmlns="http://www.w3.org/2000/svg" xmlns:xlink="http://www.w3.org/1999/xlink" version="1.1" style="" xml:space="preserve" width="507.90109886079154" height="534.4065931647488"><rect id="backgroundrect" width="100%" height="100%" x="0" y="0" fill="none" stroke="none" class="" style=""/>

















<g class="currentLayer" style=""><title>Layer 1</title><path style="fill:#F3705A;" d="M140.367,475.5065609498024 C116.9,448.8395609498024 93.434,421.1065609498024 78.5,388.0395609498024 c-14.933,-35.2 -19.2,-75.733 -11.733,-114.133 s24.533,-74.667 49.067,-105.6 c-2.133,26.667 7.467,54.4 25.6,74.667 c-10.667,-51.2 6.4,-106.667 40.533,-147.2 S263.034,28.572560949802398 312.1,10.439560949802399 c-24.533,25.6 -27.733,66.133 -18.133,100.267 c9.6,34.133 29.867,64 48,94.933 c18.133,30.933 35.2,62.933 36.267,98.133 c9.6,-18.133 20.267,-36.267 26.667,-56.533 c6.4,-20.267 9.6,-41.6 4.267,-61.867 c19.2,23.467 29.867,46.933 35.2,76.8 c5.333,29.867 4.267,60.8 1.067,90.667 c-4.267,33.067 -12.8,67.2 -30.933,94.933 c-21.333,33.067 -55.467,56.533 -92.8,69.333 C255.567,528.8395609498024 190.5,519.2395609498024 140.367,475.5065609498024 z" id="svg_1" class="" stroke="#000000" stroke-opacity="1" stroke-width="10"/><path style="fill:#FFD15C;" d="M221.434,512.7747586445809 C308.9,546.9087586445809 395.3,443.44175864458083 347.3,363.44175864458083 c0,-1.067 -1.067,-1.067 -1.067,-2.133 c4.267,43.733 -6.4,75.733 -26.667,93.867 c10.667,-25.6 3.2,-55.467 -9.6,-81.067 c-12.8,-24.533 -30.933,-46.933 -44.8,-70.4 c-13.867,-24.533 -24.533,-52.267 -18.133,-80 c-25.6,19.2 -43.733,48 -51.2,78.933 c-7.467,30.933 -3.2,65.067 10.667,93.867 c-16,-11.733 -27.733,-30.933 -28.8,-51.2 c-17.067,20.267 -27.733,46.933 -26.667,73.6 C151.034,460.50875864458084 184.1,497.84175864458086 221.434,512.7747586445809 z" id="svg_2" class="" stroke="#000000" stroke-opacity="1" stroke-width="10"/><g id="svg_3">
</g><g id="svg_4">
</g><g id="svg_5">
</g><g id="svg_6">
</g><g id="svg_7">
</g><g id="svg_8">
</g><g id="svg_9">
</g><g id="svg_10">
</g><g id="svg_11">
</g><g id="svg_12">
</g><g id="svg_13">
</g><g id="svg_14">
</g><g id="svg_15">
</g><g id="svg_16">
</g><g id="svg_17">
</g></g></svg>