<svg height="512" viewBox="0 0 58 58" width="512" xmlns="http://www.w3.org/2000/svg"><g id="010---Frog" fill="none" transform="translate(0 -1)"><path id="Shape" d="m21 52.52c.0291291.5831934.0224499 1.1676246-.02 1.75-.1328158 2.6525152-2.3241645 4.7338565-4.98 4.73h-11c-1.10320187-.0032948-1.9967052-.8967981-2-2 .03539017-1.1327024.97702621-2.0252484 2.11-2h-3.11c-.53059053.0028231-1.0395388-.2101411-1.41-.59-.57892902-.5876616-.73883809-1.4699343-.40298356-2.2233974.33585452-.7534631 1.09891916-1.2243223 1.92298356-1.1866026h9.94c.6946318.002999 1.3289966-.3939654 1.63-1.02 2.42-1.015 4.376-.909 7.32 2.54z" fill="#f29c1f"/><path id="Shape" d="m57.99 52.82c.0505268.5591277-.136272 1.1137476-.5147658 1.5283789-.3784938.4146314-.9138284.6510924-1.4752342.6516211h-3.11c.8235938-.0366503 1.5857547.4343196 1.9213982 1.1873093s.1764209 1.6346643-.4013982 2.2226907c-.3704612.3798589-.8794095.5928231-1.41.59h-11c-2.7614237 0-5-2.2385763-5-5v-1.48c1.888-4.278 3.78-4.652 7.32-2.54.3010034.6260346.9353682 1.022999 1.63 1.02h9.94c1.0626957-.0203758 1.9691259.7651971 2.1 1.82z" fill="#f29c1f"/><path id="Shape" d="m12 56c0 .5522847-.4477153 1-1 1h-8c.03539017-1.1327024.97702621-2.0252484 2.11-2h5.89c.5522847 0 1 .4477153 1 1z" fill="#e57e25"/><path id="Shape" d="m55 57h-8c-.5522847 0-1-.4477153-1-1s.4477153-1 1-1h5.89c1.1329738-.0252484 2.0746098.8672976 2.11 2z" fill="#e57e25"/><path id="Shape" d="m21 52.52c-.6584809.0119725-1.3169452-.0247946-1.97-.11v-.01c-2.0202036-.1214998-3.9248306-.983032-5.35-2.42.5032675-.9358279.1763586-2.1020976-.74-2.64-1.8458078-1.1068759-3.54570583-2.4405903-5.06-3.97-5.07-5.08-7.29-11.09-4.95-13.44s8.36-.12 13.44 4.95c.6498236.6396753 1.260909 1.317546 1.83 2.03 3.209 16.78 2.8 14.248 2.8 15.61z" fill="#4fba6f"/><path id="Shape" d="m45.06 47.34c-.9159166.538243-1.2427128 1.7041108-.74 2.64-1.751 1.928-4.72 2.576-7.32 2.54 0-1.366-.406 1.151 2.8-15.61.5692497-.7123192 1.1803268-1.3901807 1.83-2.03 5.08-5.07 11.09-7.29 13.44-4.95 3.25 3.264-2.339 12.889-10.01 17.41z" fill="#4fba6f"/><path id="Shape" d="m18.106 44.448c-1.1986163-1.8598274-2.6392445-3.5519938-4.284-5.032-3.053-3.039-5.834-4.193-6.994-4.4-.53739155-.1015115-.89355475-.615896-.79947981-1.1546391.09407494-.5387432.60348798-.9019813 1.14347981-.8153609 1.727.3 4.876 1.779 8.062 4.95 1.431 1.407 3.709 3.655 4.66 5.552.1607695.3193954.1389313.7002985-.0572885.9992267-.1962198.2989283-.5370107.4704673-.8940001.4500001-.3569893-.0204673-.6759419-.2298313-.8367114-.5492268z" fill="#4c8056"/><path id="Shape" d="m38.552 44.894c-.493729-.2474353-.6934057-.8482561-.446-1.342 1.3-2.6 7.867-9.654 12.722-10.5.3542939-.066925.717182.0620583.949759.3375779.232577.2755195.2988255.6549081.1733872.992944-.1254383.338036-.423138.5823706-.7791462.6394781-1.16.2-3.941 1.357-7 4.4-1.6437775 1.4800256-3.0837007 3.1718177-4.282 5.031-.2491805.4895349-.8465762.6864344-1.338.441z" fill="#4c8056"/><path id="Shape" d="m41.88 37.02c-.8-3.961-2.727-5.828-4.53-7.87l-2.18.69c-4.01973 1.2410021-8.32027 1.2410021-12.34 0l-2.18-.69c-1.953 2.211-3.734 3.953-4.53 7.87-.331 1.694-.24 2.716-.24 6.86-.0042772 3.1256025 1.1134957 6.1489118 3.15 8.52v.01c.5841551.6855524 1.2376298 1.3088667 1.95 1.86.031-.139.02-.15.02-2.72 2.0781681 2.2020807 4.9721391 3.4501656 8 3.4501656s5.9218319-1.2480849 8-3.4501656c-.0420585.9063704-.0353822 1.8143461.02 2.72 1.8561595-1.4429178 3.2981505-3.3506236 4.18-5.53 1.147-2.924.92-4.918.92-9.23-.0000749-.8357706-.0804441-1.6696011-.24-2.49z" fill="#24ae5f"/><path id="Shape" d="m40 39v5c0 6.0751322-4.9248678 11-11 11s-11-4.9248678-11-11v-5c-.0040323-1.9717859.5283002-3.9075404 1.54-5.6 6.1229835 2.1393229 12.7915555 2.13227 18.91-.02 1.0145591 1.6990477 1.5501751 3.6410878 1.55 5.62z" fill="#4fba6f"/><path id="Shape" d="m34.4 39.8c-3.2016285-2.4040023-7.6063715-2.4040023-10.808 0-.4420658.2840191-1.0285394.1774711-1.3424545-.2438914-.313915-.4213625-.2481865-1.0138012.1504545-1.3561086 3.9094806-2.9293352 9.2825194-2.9293352 13.192 0 .31449.202054.4900315.5626387.4550868.9348062-.0349448.3721675-.2745407.6937728-.6211461.8337531s-.7423435.0749616-1.0259407-.1685593z" fill="#4c8056"/><path id="Shape" d="m49 18.96c.011 5.66-4.789 10.56-11.7 12.773-12.94 4.13-28.275-2.306-28.3-12.693-.00623535-1.9299209 1.3683976-3.588235 3.266-3.94.3337627-1.5817343 1.1490986-3.0213229 2.334-4.121-1.99-4.516 1.036-9.952 5.87-9.962 2.6424314.04221827 4.9951808 1.68297223 5.948 4.148 1.6996336-.21587272 3.4195361-.2192319 5.12-.01.9431412-2.46810932 3.2883771-4.11807969 5.93-4.172 4.84-.01 7.882 5.413 5.91 9.938 1.1890565 1.0965118 2.0093058 2.5343933 2.348 4.116 1.8931853.3494097 3.2689145 1.9978475 3.274 3.923z" fill="#4fba6f"/><g fill="#4c8056"><path id="Shape" d="m41 25h-24c-.5522847 0-1-.4477153-1-1s.4477153-1 1-1h24c.5522847 0 1 .4477153 1 1s-.4477153 1-1 1z"/><path id="Shape" d="m20.5 12.357c-2.2496462-.1629096-3.9493771-2.1056504-3.812-4.357-.1373771-2.25134961 1.5623538-4.19409036 3.812-4.357 2.2496462.16290964 3.9493771 2.10565039 3.812 4.357.1373771 2.2513496-1.5623538 4.1940904-3.812 4.357zm0-6.536c-.886 0-1.634 1-1.634 2.179s.748 2.179 1.634 2.179 1.634-1 1.634-2.179-.748-2.179-1.634-2.179z"/><path id="Shape" d="m37.5 12.357c-2.2496462-.1629096-3.9493771-2.1056504-3.812-4.357-.1373771-2.25134961 1.5623538-4.19409036 3.812-4.357 2.2496462.16290964 3.9493771 2.10565039 3.812 4.357.1373771 2.2513496-1.5623538 4.1940904-3.812 4.357zm0-6.536c-.886 0-1.634 1-1.634 2.179s.748 2.179 1.634 2.179 1.634-1 1.634-2.179-.748-2.179-1.634-2.179z"/></g><ellipse id="Oval" cx="20.5" cy="8" fill="#f29c1f" rx="2.5" ry="3"/><ellipse id="Oval" cx="37.5" cy="8" fill="#f29c1f" rx="2.5" ry="3"/><path id="Shape" d="m20.5 11.179c-.5522847 0-1-.4477153-1-1v-4.358c0-.55228475.4477153-1 1-1s1 .44771525 1 1v4.358c0 .5522847-.4477153 1-1 1z" fill="#393f4a"/><path id="Shape" d="m37.5 11.179c-.5522847 0-1-.4477153-1-1v-4.358c0-.55228475.4477153-1 1-1s1 .44771525 1 1v4.358c0 .5522847-.4477153 1-1 1z" fill="#393f4a"/><path id="Shape" d="m18 18c0 .5522847-.4477153 1-1 1s-1-.4477153-1-1c-.001355-.8858082-.3941118-1.7257355-1.0730257-2.2947117-.6789139-.5689761-1.5745736-.8088296-2.4469743-.6552883-.0694404.0116131-.1396158.0182964-.21.02.1698056-.7178606.424955-1.412807.76-2.07 2.7497008.0164985 4.9700495 2.2502497 4.97 5z" fill="#4c8056"/><path id="Shape" d="m45.73 15.07c-.179 0-.393-.07-.73-.07-1.6548028.0049422-2.9950578 1.3451972-3 3 0 .5522847-.4477153 1-1 1s-1-.4477153-1-1c-.0000495-2.7497503 2.2202992-4.9835015 4.97-5 .335045.657193.5901944 1.3521394.76 2.07z" fill="#4c8056"/></g></svg>