<?xml version="1.0" encoding="UTF-8" standalone="no"?>
<!-- Generator: Adobe Illustrator 19.0.0, SVG Export Plug-In . SVG Version: 6.00 Build 0)  -->

<svg
   xmlns:dc="http://purl.org/dc/elements/1.1/"
   xmlns:cc="http://creativecommons.org/ns#"
   xmlns:rdf="http://www.w3.org/1999/02/22-rdf-syntax-ns#"
   xmlns:svg="http://www.w3.org/2000/svg"
   xmlns="http://www.w3.org/2000/svg"
   xmlns:sodipodi="http://sodipodi.sourceforge.net/DTD/sodipodi-0.dtd"
   xmlns:inkscape="http://www.inkscape.org/namespaces/inkscape"
   version="1.1"
   id="Layer_1"
   x="0px"
   y="0px"
   height="512" 
   width="512"
   viewBox="0 0 512 512"
   style="enable-background:new 0 0 512 512;"
   xml:space="preserve"
   inkscape:version="0.91 r13725"
   sodipodi:docname="log1-r.svg"><metadata
     id="metadata65"><rdf:RDF><cc:Work
         rdf:about=""><dc:format>image/svg+xml</dc:format><dc:type
           rdf:resource="http://purl.org/dc/dcmitype/StillImage" /><dc:title></dc:title></cc:Work></rdf:RDF></metadata><defs
     id="defs63" /><sodipodi:namedview
     pagecolor="#ffffff"
     bordercolor="#666666"
     borderopacity="1"
     objecttolerance="10"
     gridtolerance="10"
     guidetolerance="10"
     inkscape:pageopacity="0"
     inkscape:pageshadow="2"
     inkscape:window-width="811"
     inkscape:window-height="480"
     id="namedview61"
     showgrid="false"
     inkscape:zoom="0.4609375"
     inkscape:cx="256"
     inkscape:cy="256"
     inkscape:window-x="0"
     inkscape:window-y="25"
     inkscape:window-maximized="0"
     inkscape:current-layer="Layer_1" /><path
     style="fill:#9e5a23"
     d="m 44.138,176.552 423.724,0 c -24.717,0 -44.138,35.31 -44.138,79.448 0,44.138 19.421,79.448 44.138,79.448 l -423.724,0 C 19.421,335.448 0,300.138 0,256 0,211.862 19.421,176.552 44.138,176.552"
     id="path3"
     inkscape:connector-curvature="0" /><g
     id="g5"
     transform="matrix(-1,0,0,1,512,0)"><path
       style="fill:#844414"
       d="m 158.897,220.69 -77.683,0 c -5.297,0 -8.828,-3.531 -8.828,-8.828 0,-5.297 3.531,-8.828 8.828,-8.828 l 77.683,0 c 5.297,0 8.828,3.531 8.828,8.828 -0.001,5.297 -3.532,8.828 -8.828,8.828"
       id="path7"
       inkscape:connector-curvature="0" /><path
       style="fill:#844414"
       d="m 335.448,220.69 -141.241,0 c -5.297,0 -8.828,-3.531 -8.828,-8.828 0,-5.297 3.531,-8.828 8.828,-8.828 l 141.241,0 c 5.297,0 8.828,3.531 8.828,8.828 0,5.297 -3.531,8.828 -8.828,8.828"
       id="path9"
       inkscape:connector-curvature="0" /><path
       style="fill:#844414"
       d="m 494.345,220.69 -123.586,0 c -5.297,0 -8.828,-3.531 -8.828,-8.828 0,-5.297 3.531,-8.828 8.828,-8.828 l 123.586,0 c 5.297,0 8.828,3.531 8.828,8.828 -10e-4,5.297 -3.532,8.828 -8.828,8.828"
       id="path11"
       inkscape:connector-curvature="0" /><path
       style="fill:#844414"
       d="m 291.31,264.828 -26.483,0 c -5.297,0 -8.828,-3.531 -8.828,-8.828 0,-5.297 3.531,-8.828 8.828,-8.828 l 26.483,0 c 5.297,0 8.828,3.531 8.828,8.828 0,5.297 -3.531,8.828 -8.828,8.828"
       id="path13"
       inkscape:connector-curvature="0" /><path
       style="fill:#844414"
       d="m 211.862,264.828 -88.276,0 c -5.297,0 -8.828,-3.531 -8.828,-8.828 0,-5.297 3.531,-8.828 8.828,-8.828 l 88.276,0 c 5.297,0 8.828,3.531 8.828,8.828 0,5.297 -3.531,8.828 -8.828,8.828"
       id="path15"
       inkscape:connector-curvature="0" /><path
       style="fill:#844414"
       d="m 379.586,264.828 -52.966,0 c -5.297,0 -8.828,-3.531 -8.828,-8.828 0,-5.297 3.531,-8.828 8.828,-8.828 l 52.966,0 c 5.297,0 8.828,3.531 8.828,8.828 0,5.297 -3.531,8.828 -8.828,8.828"
       id="path17"
       inkscape:connector-curvature="0" /><path
       style="fill:#844414"
       d="m 503.172,264.828 -79.448,0 c -5.297,0 -8.828,-3.531 -8.828,-8.828 0,-5.297 3.531,-8.828 8.828,-8.828 l 79.448,0 c 5.297,0 8.828,3.531 8.828,8.828 0,5.297 -3.531,8.828 -8.828,8.828"
       id="path19"
       inkscape:connector-curvature="0" /><path
       style="fill:#844414"
       d="m 167.724,308.966 -86.51,0 c -5.297,0 -8.828,-3.531 -8.828,-8.828 0,-5.297 3.531,-8.828 8.828,-8.828 l 86.51,0 c 5.297,0 8.828,3.531 8.828,8.828 0,5.296 -3.531,8.828 -8.828,8.828"
       id="path21"
       inkscape:connector-curvature="0" /><path
       style="fill:#844414"
       d="m 459.034,308.966 -70.621,0 c -5.297,0 -8.828,-3.531 -8.828,-8.828 0,-5.297 3.531,-8.828 8.828,-8.828 l 70.621,0 c 5.297,0 8.828,3.531 8.828,8.828 0,5.296 -3.531,8.828 -8.828,8.828"
       id="path23"
       inkscape:connector-curvature="0" /><path
       style="fill:#844414"
       d="m 326.621,308.966 -105.931,0 c -5.297,0 -8.828,-3.531 -8.828,-8.828 0,-5.297 3.531,-8.828 8.828,-8.828 l 105.931,0 c 5.297,0 8.828,3.531 8.828,8.828 -0.001,5.296 -3.532,8.828 -8.828,8.828"
       id="path25"
       inkscape:connector-curvature="0" /></g><path
     style="fill:#ce8d5b"
     d="m 423.724,256 c 0,44.138 19.421,79.448 44.138,79.448 24.717,0 44.138,-35.31 44.138,-79.448 0,-44.138 -19.421,-79.448 -44.138,-79.448 -24.717,0 -44.138,35.31 -44.138,79.448"
     id="path27"
     inkscape:connector-curvature="0" /><path
     style="fill:#844414"
     d="m 467.862,304.552 c 2.648,0 6.179,-1.766 7.945,-4.414 2.648,-5.297 9.71,-20.303 9.71,-44.138 0,-23.835 -7.062,-38.841 -9.71,-44.138 -2.648,-4.414 -7.945,-5.297 -12.359,-3.531 -4.414,2.648 -5.297,7.945 -3.531,12.359 2.648,4.414 7.945,15.89 7.945,35.31 0,19.42 -5.297,30.897 -7.945,35.31 -2.648,4.414 -0.883,9.71 3.531,12.359 1.766,0 2.649,0.883 4.414,0.883"
     id="path29"
     inkscape:connector-curvature="0" /><g
     id="g31"
     transform="matrix(-1,0,0,1,512,0)" /><g
     id="g33"
     transform="matrix(-1,0,0,1,512,0)" /><g
     id="g35"
     transform="matrix(-1,0,0,1,512,0)" /><g
     id="g37"
     transform="matrix(-1,0,0,1,512,0)" /><g
     id="g39"
     transform="matrix(-1,0,0,1,512,0)" /><g
     id="g41"
     transform="matrix(-1,0,0,1,512,0)" /><g
     id="g43"
     transform="matrix(-1,0,0,1,512,0)" /><g
     id="g45"
     transform="matrix(-1,0,0,1,512,0)" /><g
     id="g47"
     transform="matrix(-1,0,0,1,512,0)" /><g
     id="g49"
     transform="matrix(-1,0,0,1,512,0)" /><g
     id="g51"
     transform="matrix(-1,0,0,1,512,0)" /><g
     id="g53"
     transform="matrix(-1,0,0,1,512,0)" /><g
     id="g55"
     transform="matrix(-1,0,0,1,512,0)" /><g
     id="g57"
     transform="matrix(-1,0,0,1,512,0)" /><g
     id="g59"
     transform="matrix(-1,0,0,1,512,0)" /></svg>
