<?xml version="1.0" encoding="UTF-8" standalone="no"?>
<svg
   xmlns:dc="http://purl.org/dc/elements/1.1/"
   xmlns:cc="http://creativecommons.org/ns#"
   xmlns:rdf="http://www.w3.org/1999/02/22-rdf-syntax-ns#"
   xmlns:svg="http://www.w3.org/2000/svg"
   xmlns="http://www.w3.org/2000/svg"
   xmlns:sodipodi="http://sodipodi.sourceforge.net/DTD/sodipodi-0.dtd"
   xmlns:inkscape="http://www.inkscape.org/namespaces/inkscape"
   id="Capa_1"
   enable-background="new 0 0 512 512"
   height="620"
   viewBox="0 0 512 620"
   width="512"
   version="1.1"
   inkscape:version="0.91 r13725"
   sodipodi:docname="policecar-l.svg">
  <metadata
     id="metadata80">
    <rdf:RDF>
      <cc:Work
         rdf:about="">
        <dc:format>image/svg+xml</dc:format>
        <dc:type
           rdf:resource="http://purl.org/dc/dcmitype/StillImage" />
        <dc:title></dc:title>
      </cc:Work>
    </rdf:RDF>
  </metadata>
  <defs
     id="defs78" />
  <sodipodi:namedview
     pagecolor="#ffffff"
     bordercolor="#666666"
     borderopacity="1"
     objecttolerance="10"
     gridtolerance="10"
     guidetolerance="10"
     inkscape:pageopacity="0"
     inkscape:pageshadow="2"
     inkscape:window-width="1280"
     inkscape:window-height="998"
     id="namedview76"
     showgrid="false"
     fit-margin-bottom="160"
     fit-margin-top="0"
     fit-margin-left="0"
     fit-margin-right="0"
     inkscape:zoom="0.4609375"
     inkscape:cx="260.33898"
     inkscape:cy="339.60601"
     inkscape:window-x="1920"
     inkscape:window-y="0"
     inkscape:window-maximized="1"
     inkscape:current-layer="Capa_1" />
  <g
     id="g3"
     transform="matrix(-1,0,0,1,512,-3.8029966)">
    <g
       id="g5">
      <path
         d="m 301,223.803 -90,0 0,-90 90,0 z"
         id="path7"
         inkscape:connector-curvature="0"
         style="fill:#ff641a" />
    </g>
    <path
       d="m 256,133.803 45,0 0,90 -45,0 z"
       id="path9"
       inkscape:connector-curvature="0"
       style="fill:#f03800" />
    <g
       id="g11">
      <path
         d="m 211,313.803 -126.801,0 39.99,-120 56.811,0 c 16.569,0 30,13.431 30,30 z"
         id="path13"
         inkscape:connector-curvature="0"
         style="fill:#363d4d" />
    </g>
    <g
       id="g15">
      <path
         d="m 405.037,313.803 -224.037,0 0,-120 144.027,0 z"
         id="path17"
         inkscape:connector-curvature="0"
         style="fill:#485866" />
    </g>
    <path
       d="m 256,313.803 149.037,0 -80.01,-120 -69.027,0 z"
       id="path19"
       inkscape:connector-curvature="0"
       style="fill:#363d4d" />
    <g
       id="g21">
      <path
         d="m 90,433.803 -45,0 c -24.853,0 -45,-20.147 -45,-45 l 0,-105 90,0 c 16.569,0 30,13.431 30,30 l 0,90 -15,0 c -8.262,0 -15,6.724 -15,15 z"
         id="path23"
         inkscape:connector-curvature="0"
         style="fill:#6aa9ff" />
    </g>
    <g
       id="g25">
      <g
         id="g27">
        <path
           d="m 482,358.803 28.499,-15 c -6.899,-34.2 -37.2,-60 -73.499,-60 l -45,0 c -16.569,0 -30,13.431 -30,30 l 0,90 15,0 c 8.401,0 15,6.599 15,15 l 0,15 120,0 0,-60 z"
           id="path29"
           inkscape:connector-curvature="0"
           style="fill:#2682ff" />
      </g>
    </g>
    <g
       id="Car_police_2_">
      <g
         id="g32">
        <path
           d="m 512,358.803 0,15 -60,0 0,-30 58.499,0 c 0.9,4.799 1.501,9.9 1.501,15 z"
           id="path34"
           inkscape:connector-curvature="0"
           style="fill:#f2b130" />
      </g>
      <g
         id="g36">
        <path
           d="m 331,133.803 60,0 0,30 -60,0 z"
           id="path38"
           inkscape:connector-curvature="0"
           style="fill:#f2b130" />
      </g>
      <g
         id="g40">
        <path
           d="m 306.68,66.304 63.64,0 0,29.997 -63.64,0 z"
           transform="matrix(0.707,-0.707,0.707,0.707,41.655,263.169)"
           id="path42"
           inkscape:connector-curvature="0"
           style="fill:#f2b130" />
      </g>
      <g
         id="g44">
        <path
           d="m 121,133.803 60,0 0,30 -60,0 z"
           id="path46"
           inkscape:connector-curvature="0"
           style="fill:#ffd24d" />
      </g>
      <g
         id="g48">
        <path
           d="m 158.502,49.483 29.997,0 0,63.64 -29.997,0 z"
           transform="matrix(0.707,-0.707,0.707,0.707,-6.673,146.496)"
           id="path50"
           inkscape:connector-curvature="0"
           style="fill:#ffd24d" />
      </g>
    </g>
    <g
       id="g52">
      <path
         d="m 362,433.803 -242,0 0,-15 c 0,-8.276 -6.738,-15 -15,-15 l -15,0 0,-120 302,0 0,120 -15,0 c -8.262,0 -15,6.724 -15,15 z"
         id="path54"
         inkscape:connector-curvature="0"
         style="fill:#e6f2ff" />
    </g>
    <path
       d="m 362,418.803 c 0,-8.276 6.738,-15 15,-15 l 15,0 0,-120 -136,0 0,150 106,0 z"
       id="path56"
       inkscape:connector-curvature="0"
       style="fill:#ccddff" />
    <g
       id="g58">
      <path
         d="m 211,343.803 90,0 0,30 -90,0 z"
         id="path60"
         inkscape:connector-curvature="0"
         style="fill:#485866" />
    </g>
    <path
       d="m 256,343.803 45,0 0,30 -45,0 z"
       id="path62"
       inkscape:connector-curvature="0"
       style="fill:#363d4d" />
    <g
       id="g64">
      <path
         d="m 377,463.803 c -24.814,0 -45,-20.186 -45,-45 0,-24.814 20.186,-45 45,-45 24.814,0 45,20.186 45,45 0,24.814 -20.186,45 -45,45 z"
         id="path66"
         inkscape:connector-curvature="0"
         style="fill:#242833" />
      <circle
         cx="377"
         cy="418.80301"
         r="15"
         id="circle68"
         style="fill:#ccddff" />
    </g>
    <g
       id="g70">
      <path
         d="m 105,463.803 c -24.814,0 -45,-20.186 -45,-45 0,-24.814 20.186,-45 45,-45 24.814,0 45,20.186 45,45 0,24.814 -20.186,45 -45,45 z"
         id="path72"
         inkscape:connector-curvature="0"
         style="fill:#363d4d" />
      <circle
         cx="105"
         cy="418.80301"
         r="15"
         id="circle74"
         style="fill:#e6f2ff" />
    </g>
  </g>
</svg>
