<?xml version="1.0" encoding="UTF-8" standalone="no"?>
<svg
   xmlns:dc="http://purl.org/dc/elements/1.1/"
   xmlns:cc="http://creativecommons.org/ns#"
   xmlns:rdf="http://www.w3.org/1999/02/22-rdf-syntax-ns#"
   xmlns:svg="http://www.w3.org/2000/svg"
   xmlns="http://www.w3.org/2000/svg"
   xmlns:sodipodi="http://sodipodi.sourceforge.net/DTD/sodipodi-0.dtd"
   xmlns:inkscape="http://www.inkscape.org/namespaces/inkscape"
   height="591pt"
   version="1.1"
   viewBox="1 -179 591.6 591"
   width="591pt"
   id="svg2"
   inkscape:version="0.91 r13725"
   sodipodi:docname="policecar2-l.svg">
  <metadata
     id="metadata49">
    <rdf:RDF>
      <cc:Work
         rdf:about="">
        <dc:format>image/svg+xml</dc:format>
        <dc:type
           rdf:resource="http://purl.org/dc/dcmitype/StillImage" />
        <dc:title></dc:title>
      </cc:Work>
    </rdf:RDF>
  </metadata>
  <defs
     id="defs47" />
  <sodipodi:namedview
     pagecolor="#ffffff"
     bordercolor="#666666"
     borderopacity="1"
     objecttolerance="10"
     gridtolerance="10"
     guidetolerance="10"
     inkscape:pageopacity="0"
     inkscape:pageshadow="2"
     inkscape:window-width="811"
     inkscape:window-height="480"
     id="namedview45"
     showgrid="false"
     inkscape:zoom="0.31945854"
     inkscape:cx="369.375"
     inkscape:cy="369.375"
     inkscape:window-x="0"
     inkscape:window-y="25"
     inkscape:window-maximized="0"
     inkscape:current-layer="svg2" />
  <g
     id="surface1">
    <path
       d="M 40.828125 143.316406 L 33.101562 112.390625 C 31.355469 105.390625 24.261719 101.121094 17.25 102.867188 C 12.554688 104.042969 8.890625 107.707031 7.726562 112.390625 L 0 143.316406 L 0 161.691406 C 0 168.457031 5.480469 173.9375 12.25 173.9375 L 61.242188 173.9375 L 61.242188 143.316406 Z M 40.828125 143.316406 "
       style=" stroke:none;fill-rule:nonzero;fill:rgb(34.117647%,39.607843%,45.098039%);fill-opacity:1;"
       id="path5" />
    <path
       d="M 446.226562 56.660156 C 428.039062 46.554688 407.5625 41.25 386.75 41.25 L 303.480469 41.25 C 280.527344 41.25 258.03125 47.699219 238.566406 59.867188 L 186.707031 92.28125 L 510.34375 92.28125 Z M 446.226562 56.660156 "
       style=" stroke:none;fill-rule:nonzero;fill:rgb(41.176471%,80%,84.313725%);fill-opacity:1;"
       id="path7" />
    <path
       d="M 204.136719 92.28125 L 347.035156 92.28125 L 347.035156 194.351562 L 204.136719 194.351562 Z M 204.136719 92.28125 "
       style=" stroke:none;fill-rule:nonzero;fill:rgb(76.470588%,78.823529%,81.960784%);fill-opacity:1;"
       id="path9" />
    <path
       d="M 186.703125 92.28125 L 89.820312 109.429688 C 77.828125 111.5625 66.785156 117.339844 58.179688 125.964844 C 47.0625 137.101562 40.828125 152.1875 40.828125 167.917969 L 40.828125 173.9375 L 61.242188 194.351562 L 204.136719 194.351562 L 204.136719 92.28125 Z M 186.703125 92.28125 "
       style=" stroke:none;fill-rule:nonzero;fill:rgb(41.176471%,48.235294%,54.901961%);fill-opacity:1;"
       id="path11" />
    <path
       d="M 347.035156 92.28125 L 347.035156 194.351562 L 419.921875 194.351562 C 414.023438 172.867188 426.648438 150.65625 448.132812 144.757812 C 451.765625 143.757812 455.535156 143.277344 459.308594 143.316406 L 484.828125 92.28125 C 484.828125 92.28125 347.035156 92.28125 347.035156 92.28125 Z M 347.035156 92.28125 "
       style=" stroke:none;fill-rule:nonzero;fill:rgb(76.470588%,78.823529%,81.960784%);fill-opacity:1;"
       id="path13" />
    <path
       d="M 571.585938 133.109375 C 571.585938 115.441406 558.816406 100.367188 541.382812 97.457031 L 530.757812 95.679688 L 530.757812 133.109375 C 530.757812 133.109375 571.585938 133.109375 571.585938 133.109375 Z M 571.585938 133.109375 "
       style=" stroke:none;fill-rule:nonzero;fill:rgb(86.666667%,21.960784%,10.196078%);fill-opacity:1;"
       id="path15" />
    <path
       d="M 577.710938 133.109375 L 530.757812 133.109375 L 530.757812 95.683594 L 510.34375 92.28125 L 484.828125 92.28125 L 459.308594 143.316406 C 481.59375 143.050781 499.871094 160.894531 500.136719 183.175781 C 500.179688 186.953125 499.699219 190.707031 498.699219 194.351562 L 540.964844 194.351562 L 580.515625 186.441406 C 587.191406 185.105469 592 179.234375 592 172.425781 L 592 147.402344 C 592 139.511719 585.601562 133.109375 577.710938 133.109375 Z M 577.710938 133.109375 "
       style=" stroke:none;fill-rule:nonzero;fill:rgb(41.176471%,48.235294%,54.901961%);fill-opacity:1;"
       id="path17" />
    <path
       d="M 275.585938 122.902344 L 316.414062 122.902344 L 316.414062 143.316406 L 275.585938 143.316406 Z M 275.585938 122.902344 "
       style=" stroke:none;fill-rule:nonzero;fill:rgb(64.313725%,69.019608%,74.901961%);fill-opacity:1;"
       id="path19" />
    <path
       d="M 367.449219 0.421875 L 347.035156 0.421875 L 347.035156 41.25 L 367.449219 41.25 C 378.726562 41.25 387.863281 32.113281 387.863281 20.835938 C 387.863281 9.554688 378.726562 0.421875 367.449219 0.421875 Z M 367.449219 0.421875 "
       style=" stroke:none;fill-rule:nonzero;fill:rgb(26.27451%,58.039216%,80%);fill-opacity:1;"
       id="path21" />
    <path
       d="M 326.621094 0.421875 C 315.34375 0.421875 306.207031 9.554688 306.207031 20.835938 C 306.207031 32.113281 315.34375 41.25 326.621094 41.25 L 347.035156 41.25 L 347.035156 0.421875 Z M 326.621094 0.421875 "
       style=" stroke:none;fill-rule:nonzero;fill:rgb(86.666667%,21.960784%,10.196078%);fill-opacity:1;"
       id="path23" />
    <path
       d="M 336.828125 0.421875 L 357.242188 0.421875 L 357.242188 41.25 L 336.828125 41.25 Z M 336.828125 0.421875 "
       style=" stroke:none;fill-rule:nonzero;fill:rgb(76.470588%,78.823529%,81.960784%);fill-opacity:1;"
       id="path25" />
    <path
       d="M 336.828125 92.28125 L 357.242188 92.28125 L 357.242188 194.351562 L 336.828125 194.351562 Z M 336.828125 92.28125 "
       style=" stroke:none;fill-rule:nonzero;fill:rgb(64.313725%,69.019608%,74.901961%);fill-opacity:1;"
       id="path27" />
    <path
       d="M 91.863281 122.902344 L 61.742188 122.902344 C 60.566406 123.925781 59.324219 124.824219 58.21875 125.964844 C 53.21875 130.988281 49.15625 136.855469 46.238281 143.316406 L 91.863281 143.316406 Z M 91.863281 122.902344 "
       style=" stroke:none;fill-rule:nonzero;fill:rgb(81.568627%,84.313725%,87.45098%);fill-opacity:1;"
       id="path29" />
    <path
       d="M 134.179688 133.109375 C 107.164062 133.449219 85.523438 155.636719 85.871094 182.65625 C 86.207031 209.671875 108.394531 231.3125 135.414062 230.964844 C 161.953125 230.628906 183.386719 209.191406 183.722656 182.65625 C 183.722656 155.289062 161.542969 133.109375 134.179688 133.109375 Z M 134.179688 133.109375 "
       style=" stroke:none;fill-rule:nonzero;fill:rgb(34.117647%,39.607843%,45.098039%);fill-opacity:1;"
       id="path31" />
    <path
       d="M 459.308594 133.109375 C 431.464844 133.457031 409.183594 156.300781 409.53125 184.144531 C 409.878906 211.988281 432.722656 234.269531 460.566406 233.925781 C 487.921875 233.585938 510.007812 211.488281 510.34375 184.144531 C 510.34375 155.964844 487.492188 133.109375 459.308594 133.109375 Z M 459.308594 133.109375 "
       style=" stroke:none;fill-rule:nonzero;fill:rgb(34.117647%,39.607843%,45.098039%);fill-opacity:1;"
       id="path33" />
    <path
       d="M 153.101562 184.144531 C 153.101562 195.417969 143.964844 204.558594 132.691406 204.558594 C 121.414062 204.558594 112.277344 195.417969 112.277344 184.144531 C 112.277344 172.871094 121.414062 163.730469 132.691406 163.730469 C 143.964844 163.730469 153.101562 172.871094 153.101562 184.144531 Z M 153.101562 184.144531 "
       style=" stroke:none;fill-rule:nonzero;fill:rgb(76.470588%,78.823529%,81.960784%);fill-opacity:1;"
       id="path35" />
    <path
       d="M 479.722656 184.144531 C 479.722656 195.417969 470.585938 204.558594 459.308594 204.558594 C 448.035156 204.558594 438.898438 195.417969 438.898438 184.144531 C 438.898438 172.871094 448.035156 163.730469 459.308594 163.730469 C 470.585938 163.730469 479.722656 172.871094 479.722656 184.144531 Z M 479.722656 184.144531 "
       style=" stroke:none;fill-rule:nonzero;fill:rgb(76.470588%,78.823529%,81.960784%);fill-opacity:1;"
       id="path37" />
    <path
       d="M 446.226562 56.660156 C 443.613281 55.210938 440.867188 54.078125 438.160156 52.832031 L 270.484375 92.28125 L 510.34375 92.28125 Z M 446.226562 56.660156 "
       style=" stroke:none;fill-rule:nonzero;fill:rgb(38.039216%,74.117647%,78.039216%);fill-opacity:1;"
       id="path39" />
    <path
       d="M 336.828125 41.25 L 357.242188 41.25 L 357.242188 92.28125 L 336.828125 92.28125 Z M 336.828125 41.25 "
       style=" stroke:none;fill-rule:nonzero;fill:rgb(31.764706%,61.568627%,65.098039%);fill-opacity:1;"
       id="path41" />
    <path
       d="M 336.828125 20.835938 L 357.242188 20.835938 L 357.242188 41.25 L 336.828125 41.25 Z M 336.828125 20.835938 "
       style=" stroke:none;fill-rule:nonzero;fill:rgb(71.764706%,74.117647%,76.862745%);fill-opacity:1;"
       id="path43" />
  </g>
</svg>
