<svg id="Capa_1" enable-background="new 0 0 512 512" height="512" viewBox="0 0 512 512" width="512" xmlns="http://www.w3.org/2000/svg"><g><g><path d="m301 223.803h-90v-90h90z" fill="#ff641a"/></g><path d="m256 133.803h45v90h-45z" fill="#f03800"/><g><path d="m211 313.803h-126.801l39.99-120h56.811c16.569 0 30 13.431 30 30z" fill="#363d4d"/></g><g><path d="m405.037 313.803h-224.037v-120h144.027z" fill="#485866"/></g><path d="m256 313.803h149.037l-80.01-120h-69.027z" fill="#363d4d"/><g><path d="m90 433.803h-45c-24.853 0-45-20.147-45-45v-105h90c16.569 0 30 13.431 30 30v90h-15c-8.262 0-15 6.724-15 15z" fill="#6aa9ff"/></g><g><g><path d="m482 358.803 28.499-15c-6.899-34.2-37.2-60-73.499-60h-45c-16.569 0-30 13.431-30 30v90h15c8.401 0 15 6.599 15 15v15h120v-60z" fill="#2682ff"/></g></g><g id="Car_police_2_"><g><path d="m512 358.803v15h-60v-30h58.499c.9 4.799 1.501 9.9 1.501 15z" fill="#f2b130"/></g><g><path d="m331 133.803h60v30h-60z" fill="#f2b130"/></g><g><path d="m306.68 66.304h63.64v29.997h-63.64z" fill="#f2b130" transform="matrix(.707 -.707 .707 .707 41.655 263.169)"/></g><g><path d="m121 133.803h60v30h-60z" fill="#ffd24d"/></g><g><path d="m158.502 49.483h29.997v63.64h-29.997z" fill="#ffd24d" transform="matrix(.707 -.707 .707 .707 -6.673 146.496)"/></g></g><g><path d="m362 433.803h-242v-15c0-8.276-6.738-15-15-15h-15v-120h302v120h-15c-8.262 0-15 6.724-15 15z" fill="#e6f2ff"/></g><path d="m362 418.803c0-8.276 6.738-15 15-15h15v-120h-136v150h106z" fill="#cdf"/><g><path d="m211 343.803h90v30h-90z" fill="#485866"/></g><path d="m256 343.803h45v30h-45z" fill="#363d4d"/><g><path d="m377 463.803c-24.814 0-45-20.186-45-45s20.186-45 45-45 45 20.186 45 45-20.186 45-45 45z" fill="#242833"/><circle cx="377" cy="418.803" fill="#cdf" r="15"/></g><g><path d="m105 463.803c-24.814 0-45-20.186-45-45s20.186-45 45-45 45 20.186 45 45-20.186 45-45 45z" fill="#363d4d"/><circle cx="105" cy="418.803" fill="#e6f2ff" r="15"/></g></g></svg>