<?xml version="1.0" encoding="UTF-8" standalone="no"?>
<svg
   xmlns:dc="http://purl.org/dc/elements/1.1/"
   xmlns:cc="http://creativecommons.org/ns#"
   xmlns:rdf="http://www.w3.org/1999/02/22-rdf-syntax-ns#"
   xmlns:svg="http://www.w3.org/2000/svg"
   xmlns="http://www.w3.org/2000/svg"
   xmlns:sodipodi="http://sodipodi.sourceforge.net/DTD/sodipodi-0.dtd"
   xmlns:inkscape="http://www.inkscape.org/namespaces/inkscape"
   height="591pt"
   version="1.1"
   viewBox="1 -179 591.6 591"
   width="591pt"
   id="svg2"
   inkscape:version="0.91 r13725"
   sodipodi:docname="policecar2-r.svg">
  <metadata
     id="metadata49">
    <rdf:RDF>
      <cc:Work
         rdf:about="">
        <dc:format>image/svg+xml</dc:format>
        <dc:type
           rdf:resource="http://purl.org/dc/dcmitype/StillImage" />
        <dc:title></dc:title>
      </cc:Work>
    </rdf:RDF>
  </metadata>
  <defs
     id="defs47" />
  <sodipodi:namedview
     pagecolor="#ffffff"
     bordercolor="#666666"
     borderopacity="1"
     objecttolerance="10"
     gridtolerance="10"
     guidetolerance="10"
     inkscape:pageopacity="0"
     inkscape:pageshadow="2"
     inkscape:window-width="811"
     inkscape:window-height="480"
     id="namedview45"
     showgrid="false"
     inkscape:zoom="0.31945854"
     inkscape:cx="369.375"
     inkscape:cy="369.375"
     inkscape:window-x="0"
     inkscape:window-y="25"
     inkscape:window-maximized="0"
     inkscape:current-layer="svg2" />
  <g
     id="surface1"
     transform="matrix(-1,0,0,1,592,0)">
    <path
       d="m 40.828125,143.31641 -7.726563,-30.92578 c -1.746093,-7 -8.839843,-11.26954 -15.851562,-9.52344 -4.695312,1.17578 -8.359375,4.83984 -9.523438,9.52344 L 0,143.31641 l 0,18.375 c 0,6.76562 5.480469,12.24609 12.25,12.24609 l 48.992188,0 0,-30.62109 z m 0,0"
       style="fill:#576373;fill-opacity:1;fill-rule:nonzero;stroke:none"
       id="path5"
       inkscape:connector-curvature="0" />
    <path
       d="M 446.22656,56.660156 C 428.03906,46.554688 407.5625,41.25 386.75,41.25 l -83.26953,0 c -22.95313,0 -45.44922,6.449219 -64.91406,18.617188 l -51.85938,32.414062 323.63672,0 z m 0,0"
       style="fill:#68ccd7;fill-opacity:1;fill-rule:nonzero;stroke:none"
       id="path7"
       inkscape:connector-curvature="0" />
    <path
       d="m 204.13672,92.28125 142.89844,0 0,102.07031 -142.89844,0 z m 0,0"
       style="fill:#c2c7cf;fill-opacity:1;fill-rule:nonzero;stroke:none"
       id="path9"
       inkscape:connector-curvature="0" />
    <path
       d="M 186.70312,92.28125 89.820312,109.42969 C 77.828125,111.5625 66.785156,117.33984 58.179688,125.96484 47.0625,137.10156 40.828125,152.1875 40.828125,167.91797 l 0,6.01953 20.414063,20.41406 142.894532,0 0,-102.07031 z m 0,0"
       style="fill:#687a8a;fill-opacity:1;fill-rule:nonzero;stroke:none"
       id="path11"
       inkscape:connector-curvature="0" />
    <path
       d="m 347.03516,92.28125 0,102.07031 72.88671,0 c -5.89843,-21.48437 6.72657,-43.69531 28.21094,-49.59375 3.63281,-1 7.40235,-1.48047 11.17578,-1.4414 l 25.51953,-51.03516 c 0,0 -137.79296,0 -137.79296,0 z m 0,0"
       style="fill:#c2c7cf;fill-opacity:1;fill-rule:nonzero;stroke:none"
       id="path13"
       inkscape:connector-curvature="0" />
    <path
       d="m 571.58594,133.10937 c 0,-17.66796 -12.76953,-32.74218 -30.20313,-35.652339 l -10.625,-1.777343 0,37.429682 c 0,0 40.82813,0 40.82813,0 z m 0,0"
       style="fill:#dc3519;fill-opacity:1;fill-rule:nonzero;stroke:none"
       id="path15"
       inkscape:connector-curvature="0" />
    <path
       d="m 577.71094,133.10937 -46.95313,0 0,-37.425776 -20.41406,-3.402344 -25.51563,0 -25.51953,51.03516 c 22.28516,-0.26563 40.5625,17.57812 40.82813,39.85937 0.043,3.77734 -0.4375,7.53125 -1.4375,11.17578 l 42.26562,0 39.55078,-7.91015 C 587.19141,185.10547 592,179.23437 592,172.42578 l 0,-25.02344 c 0,-7.89062 -6.39844,-14.29297 -14.28906,-14.29297 z m 0,0"
       style="fill:#687a8a;fill-opacity:1;fill-rule:nonzero;stroke:none"
       id="path17"
       inkscape:connector-curvature="0" />
    <path
       d="m 275.58594,122.90234 40.82812,0 0,20.41407 -40.82812,0 z m 0,0"
       style="fill:#a3b0bd;fill-opacity:1;fill-rule:nonzero;stroke:none"
       id="path19"
       inkscape:connector-curvature="0" />
    <path
       d="m 367.44922,0.421875 -20.41406,0 0,40.828125 20.41406,0 c 11.27734,0 20.41406,-9.136719 20.41406,-20.414062 0,-11.28125 -9.13672,-20.414063 -20.41406,-20.414063 z m 0,0"
       style="fill:#4294cc;fill-opacity:1;fill-rule:nonzero;stroke:none"
       id="path21"
       inkscape:connector-curvature="0" />
    <path
       d="m 326.62109,0.421875 c -11.27734,0 -20.41406,9.132813 -20.41406,20.414063 0,11.277343 9.13672,20.414062 20.41406,20.414062 l 20.41407,0 0,-40.828125 z m 0,0"
       style="fill:#dc3519;fill-opacity:1;fill-rule:nonzero;stroke:none"
       id="path23"
       inkscape:connector-curvature="0" />
    <path
       d="m 336.82812,0.421875 20.41407,0 0,40.828125 -20.41407,0 z m 0,0"
       style="fill:#c2c7cf;fill-opacity:1;fill-rule:nonzero;stroke:none"
       id="path25"
       inkscape:connector-curvature="0" />
    <path
       d="m 336.82812,92.28125 20.41407,0 0,102.07031 -20.41407,0 z m 0,0"
       style="fill:#a3b0bd;fill-opacity:1;fill-rule:nonzero;stroke:none"
       id="path27"
       inkscape:connector-curvature="0" />
    <path
       d="m 91.863281,122.90234 -30.121093,0 c -1.175782,1.02344 -2.417969,1.92188 -3.523438,3.0625 -5,5.02344 -9.0625,10.89063 -11.980469,17.35157 l 45.625,0 z m 0,0"
       style="fill:#cfd7de;fill-opacity:1;fill-rule:nonzero;stroke:none"
       id="path29"
       inkscape:connector-curvature="0" />
    <path
       d="m 134.17969,133.10937 c -27.01563,0.33985 -48.656252,22.52735 -48.308596,49.54688 0.335937,27.01562 22.523436,48.65625 49.542966,48.30859 26.53906,-0.33593 47.97266,-21.77343 48.3086,-48.30859 0,-27.36719 -22.17969,-49.54688 -49.54297,-49.54688 z m 0,0"
       style="fill:#576373;fill-opacity:1;fill-rule:nonzero;stroke:none"
       id="path31"
       inkscape:connector-curvature="0" />
    <path
       d="m 459.30859,133.10937 c -27.84375,0.34766 -50.125,23.19141 -49.77734,51.03516 0.34766,27.84375 23.19141,50.125 51.03516,49.78125 27.35546,-0.33984 49.4414,-22.4375 49.77734,-49.78125 0,-28.17969 -22.85156,-51.03516 -51.03516,-51.03516 z m 0,0"
       style="fill:#576373;fill-opacity:1;fill-rule:nonzero;stroke:none"
       id="path33"
       inkscape:connector-curvature="0" />
    <path
       d="m 153.10156,184.14453 c 0,11.27344 -9.13672,20.41406 -20.41015,20.41406 -11.27735,0 -20.41407,-9.14062 -20.41407,-20.41406 0,-11.27344 9.13672,-20.41406 20.41407,-20.41406 11.27343,0 20.41015,9.14062 20.41015,20.41406 z m 0,0"
       style="fill:#c2c7cf;fill-opacity:1;fill-rule:nonzero;stroke:none"
       id="path35"
       inkscape:connector-curvature="0" />
    <path
       d="m 479.72266,184.14453 c 0,11.27344 -9.13672,20.41406 -20.41407,20.41406 -11.27343,0 -20.41015,-9.14062 -20.41015,-20.41406 0,-11.27344 9.13672,-20.41406 20.41015,-20.41406 11.27735,0 20.41407,9.14062 20.41407,20.41406 z m 0,0"
       style="fill:#c2c7cf;fill-opacity:1;fill-rule:nonzero;stroke:none"
       id="path37"
       inkscape:connector-curvature="0" />
    <path
       d="m 446.22656,56.660156 c -2.61328,-1.449218 -5.35937,-2.582031 -8.0664,-3.828125 l -167.67579,39.449219 239.85938,0 z m 0,0"
       style="fill:#61bdc7;fill-opacity:1;fill-rule:nonzero;stroke:none"
       id="path39"
       inkscape:connector-curvature="0" />
    <path
       d="m 336.82812,41.25 20.41407,0 0,51.03125 -20.41407,0 z m 0,0"
       style="fill:#4f9ca6;fill-opacity:1;fill-rule:nonzero;stroke:none"
       id="path41"
       inkscape:connector-curvature="0" />
    <path
       d="m 336.82812,20.835938 20.41407,0 0,20.414062 -20.41407,0 z m 0,0"
       style="fill:#b5bdc2;fill-opacity:1;fill-rule:nonzero;stroke:none"
       id="path43"
       inkscape:connector-curvature="0" />
  </g>
</svg>
