<?xml version="1.0" encoding="iso-8859-1"?>
<!-- Generator: Adobe Illustrator 19.0.0, SVG Export Plug-In . SVG Version: 6.00 Build 0)  -->
<svg version="1.1" id="Capa_1" xmlns="http://www.w3.org/2000/svg" xmlns:xlink="http://www.w3.org/1999/xlink" x="0px" y="0px"
	 viewBox="0 0 481.6 481.6" style="enable-background:new 0 0 481.6 481.6;" xml:space="preserve">
<rect y="8.8" style="fill:#30B8B8;" width="480" height="464"/>
<g>
	<path style="fill:#2D849C;" d="M480,88.8c-15.2,0-29.6-6.4-40-18.4c-12.8-16-36-18.4-52-5.6c-2.4,1.6-4,4-5.6,5.6
		c-19.2,21.6-52,24-74.4,5.6c-1.6-1.6-4-3.2-5.6-5.6c-12.8-16-36-18.4-52-5.6c-2.4,1.6-4,4-5.6,5.6c-19.2,21.6-52,24-74.4,5.6
		c-1.6-1.6-4-3.2-5.6-5.6c-12.8-16-36-18.4-52-5.6c-2.4,1.6-4,4-5.6,5.6C88,92,55.2,94.4,32.8,76c-0.8-1.6-2.4-3.2-4-5.6
		C21.6,61.6,11.2,56.8,0,56.8v-16c15.2,0,29.6,6.4,40,18.4c7.2,8.8,17.6,13.6,28.8,13.6S90.4,68,97.6,59.2c19.2-21.6,52-24,74.4-5.6
		c1.6,1.6,4,3.2,5.6,5.6c12.8,16,36,18.4,52,5.6c2.4-1.6,4-4,5.6-5.6c19.2-21.6,52-24,74.4-5.6c0.8,1.6,2.4,3.2,4,5.6
		c12.8,16,36,18.4,52,5.6c2.4-1.6,4-4,5.6-5.6c19.2-21.6,52-24,74.4-5.6c2.4,1.6,4,3.2,5.6,5.6c7.2,8.8,17.6,13.6,28.8,13.6V88.8z"
		/>
	<path style="fill:#2D849C;" d="M480,152.8c-15.2,0-29.6-6.4-40-18.4c-12.8-16-36-18.4-52-5.6c-2.4,1.6-4,4-5.6,5.6
		c-19.2,21.6-52,24-74.4,5.6c-1.6-1.6-4-3.2-5.6-5.6c-12.8-16-36-18.4-52-5.6c-2.4,1.6-4,4-5.6,5.6c-19.2,21.6-52,24-74.4,5.6
		c-1.6-1.6-4-3.2-5.6-5.6c-12.8-16-36-18.4-52-5.6c-2.4,1.6-4,4-5.6,5.6c-19.2,21.6-52,24-74.4,5.6c-0.8-1.6-2.4-3.2-4-5.6
		c-7.2-8.8-17.6-13.6-28.8-13.6v-16c15.2,0,29.6,6.4,40,18.4c7.2,8.8,17.6,13.6,28.8,13.6s21.6-4.8,28.8-13.6
		c19.2-21.6,52-24,74.4-5.6c1.6,1.6,4,3.2,5.6,5.6c12.8,16,36,18.4,52,5.6c2.4-1.6,4-4,5.6-5.6c19.2-21.6,52-24,74.4-5.6
		c1.6,1.6,4,3.2,5.6,5.6c12.8,16,36,18.4,52,5.6c2.4-1.6,4-4,5.6-5.6c19.2-21.6,52-24,74.4-5.6c1.6,1.6,4,3.2,5.6,5.6
		c7.2,8.8,17.6,13.6,28.8,13.6v16H480z"/>
	<path style="fill:#2D849C;" d="M480,216.8c-15.2,0-29.6-6.4-40-18.4c-12.8-16-36-18.4-52-5.6c-2.4,1.6-4,4-5.6,5.6
		c-19.2,21.6-52,24-74.4,5.6c-1.6-1.6-4-3.2-5.6-5.6c-12.8-16-36-18.4-52-5.6c-2.4,1.6-4,4-5.6,5.6c-19.2,21.6-52,24-74.4,5.6
		c-1.6-1.6-4-3.2-5.6-5.6c-12.8-16-36-18.4-52-5.6c-2.4,1.6-4,4-5.6,5.6c-19.2,21.6-52,24-74.4,5.6c-0.8-1.6-2.4-3.2-4-5.6
		c-7.2-8.8-17.6-13.6-28.8-13.6v-16c15.2,0,29.6,6.4,40,18.4c7.2,8.8,17.6,13.6,28.8,13.6s21.6-4.8,28.8-13.6
		c19.2-21.6,52-24,74.4-5.6c1.6,1.6,4,3.2,5.6,5.6c12.8,16,36,18.4,52,5.6c2.4-1.6,4-4,5.6-5.6c19.2-21.6,52-24,74.4-5.6
		c1.6,1.6,4,3.2,5.6,5.6c12.8,16,36,18.4,52,5.6c2.4-1.6,4-4,5.6-5.6c19.2-21.6,52-24,74.4-5.6c1.6,1.6,4,3.2,5.6,5.6
		c7.2,8.8,17.6,13.6,28.8,13.6v16H480z"/>
	<path style="fill:#2D849C;" d="M480,288.8c-15.2,0-29.6-6.4-40-18.4c-12.8-16-36-18.4-52-5.6c-2.4,1.6-4,4-5.6,5.6
		c-19.2,21.6-52,24-74.4,5.6c-1.6-1.6-4-3.2-5.6-5.6c-12.8-16-36-18.4-52-5.6c-2.4,1.6-4,4-5.6,5.6c-19.2,21.6-52,24-74.4,5.6
		c-1.6-1.6-4-3.2-5.6-5.6c-12.8-16-36-18.4-52-5.6c-2.4,1.6-4,4-5.6,5.6c-19.2,21.6-52,24-74.4,5.6c-0.8-1.6-2.4-3.2-4-5.6
		c-7.2-8.8-17.6-13.6-28.8-13.6v-16c15.2,0,29.6,6.4,40,18.4c7.2,8.8,17.6,13.6,28.8,13.6s21.6-4.8,28.8-13.6
		c19.2-21.6,52-24,74.4-5.6c1.6,1.6,4,3.2,5.6,5.6c12.8,16,36,18.4,52,5.6c2.4-1.6,4-4,5.6-5.6c19.2-21.6,52-24,74.4-5.6
		c1.6,1.6,4,3.2,5.6,5.6c12.8,16,36,18.4,52,5.6c2.4-1.6,4-4,5.6-5.6c19.2-21.6,52-24,74.4-5.6c1.6,1.6,4,3.2,5.6,5.6
		c7.2,8.8,17.6,13.6,28.8,13.6v16H480z"/>
	<path style="fill:#2D849C;" d="M480,432.8c-15.2,0-29.6-6.4-40-18.4c-12.8-16-36-18.4-52-5.6c-2.4,1.6-4,4-5.6,5.6
		c-19.2,21.6-52,24-74.4,5.6c-1.6-1.6-4-3.2-5.6-5.6c-12.8-16-36-18.4-52-5.6c-2.4,1.6-4,4-5.6,5.6c-19.2,21.6-52,24-74.4,5.6
		c-1.6-1.6-4-3.2-5.6-5.6c-12.8-16-36-18.4-52-5.6c-2.4,1.6-4,4-5.6,5.6c-19.2,21.6-52,24-74.4,5.6c-0.8-1.6-2.4-3.2-4-5.6
		c-7.2-8.8-17.6-13.6-28.8-13.6v-16c15.2,0,29.6,6.4,40,18.4c7.2,8.8,17.6,13.6,28.8,13.6s21.6-4.8,28.8-13.6
		c19.2-21.6,52-24,74.4-5.6c1.6,1.6,4,3.2,5.6,5.6c12.8,16,36,18.4,52,5.6c2.4-1.6,4-4,5.6-5.6c19.2-21.6,52-24,74.4-5.6
		c1.6,1.6,4,3.2,5.6,5.6c12.8,16,36,18.4,52,5.6c2.4-1.6,4-4,5.6-5.6c19.2-21.6,52-24,74.4-5.6c1.6,1.6,4,3.2,5.6,5.6
		c7.2,8.8,17.6,13.6,28.8,13.6v16H480z"/>
	<path style="fill:#2D849C;" d="M480,360.8c-15.2,0-29.6-6.4-40-18.4c-12.8-16-36-18.4-52-5.6c-2.4,1.6-4,4-5.6,5.6
		c-19.2,21.6-52,24-74.4,5.6c-1.6-1.6-4-3.2-5.6-5.6c-12.8-16-36-18.4-52-5.6c-2.4,1.6-4,4-5.6,5.6c-19.2,21.6-52,24-74.4,5.6
		c-1.6-1.6-4-3.2-5.6-5.6c-12.8-16-36-18.4-52-5.6c-2.4,1.6-4,4-5.6,5.6c-19.2,21.6-52,24-74.4,5.6c-0.8-1.6-2.4-3.2-4-5.6
		c-7.2-8.8-17.6-13.6-28.8-13.6v-16c15.2,0,29.6,6.4,40,18.4c7.2,8.8,17.6,13.6,28.8,13.6s21.6-4.8,28.8-13.6
		c19.2-21.6,52-24,74.4-5.6c1.6,1.6,4,3.2,5.6,5.6c12.8,16,36,18.4,52,5.6c2.4-1.6,4-4,5.6-5.6c19.2-21.6,52-24,74.4-5.6
		c1.6,1.6,4,3.2,5.6,5.6c12.8,16,36,18.4,52,5.6c2.4-1.6,4-4,5.6-5.6c19.2-21.6,52-24,74.4-5.6c1.6,1.6,4,3.2,5.6,5.6
		c7.2,8.8,17.6,13.6,28.8,13.6v16H480z"/>
</g>
<g>
</g>
<g>
</g>
<g>
</g>
<g>
</g>
<g>
</g>
<g>
</g>
<g>
</g>
<g>
</g>
<g>
</g>
<g>
</g>
<g>
</g>
<g>
</g>
<g>
</g>
<g>
</g>
<g>
</g>
</svg>
