<?xml version="1.0" encoding="UTF-8" standalone="no"?>
<!-- Generator: Adobe Illustrator 19.0.0, SVG Export Plug-In . SVG Version: 6.00 Build 0)  -->

<svg
   xmlns:dc="http://purl.org/dc/elements/1.1/"
   xmlns:cc="http://creativecommons.org/ns#"
   xmlns:rdf="http://www.w3.org/1999/02/22-rdf-syntax-ns#"
   xmlns:svg="http://www.w3.org/2000/svg"
   xmlns="http://www.w3.org/2000/svg"
   xmlns:sodipodi="http://sodipodi.sourceforge.net/DTD/sodipodi-0.dtd"
   xmlns:inkscape="http://www.inkscape.org/namespaces/inkscape"
   version="1.1"
   id="Capa_1"
   x="0px"
   y="0px"
   viewBox="0 0 468.299 468.299"
   style="enable-background:new 0 0 468.299 468.299;"
   xml:space="preserve"
   inkscape:version="0.91 r13725"
   sodipodi:docname="scooter-r.svg"><metadata
     id="metadata129"><rdf:RDF><cc:Work
         rdf:about=""><dc:format>image/svg+xml</dc:format><dc:type
           rdf:resource="http://purl.org/dc/dcmitype/StillImage" /><dc:title></dc:title></cc:Work></rdf:RDF></metadata><defs
     id="defs127" /><sodipodi:namedview
     pagecolor="#ffffff"
     bordercolor="#666666"
     borderopacity="1"
     objecttolerance="10"
     gridtolerance="10"
     guidetolerance="10"
     inkscape:pageopacity="0"
     inkscape:pageshadow="2"
     inkscape:window-width="811"
     inkscape:window-height="480"
     id="namedview125"
     showgrid="false"
     inkscape:zoom="0.50395152"
     inkscape:cx="234.14951"
     inkscape:cy="234.14951"
     inkscape:window-x="0"
     inkscape:window-y="25"
     inkscape:window-maximized="0"
     inkscape:current-layer="Capa_1" /><path
     style="fill:#e56353"
     d="m 70.096,279.125 c 0.961,-0.083 1.942,-0.104 2.924,-0.104 l 102.708,0 c 25.859,0 46.831,20.951 46.831,46.811 l 0.283,61.414 70.165,0 c 45.149,4.217 34.336,-95.382 22.15,-180.289 l 29.244,0 c 42.125,75.191 38.811,213.061 -13.368,213.061 l -304.824,0 0,-94.185 c 0,-24.88 19.385,-45.204 43.887,-46.708 z"
     id="path3"
     inkscape:connector-curvature="0" /><path
     style="fill:#27a2db"
     d="m 372.37,180.117 c 6.464,0.293 11.647,8.134 11.647,17.787 0,9.653 -5.183,17.494 -11.647,17.787 l 0,-35.574 z"
     id="path5"
     inkscape:connector-curvature="0" /><path
     style="fill:#64798a"
     d="m 335.595,183.592 5.602,-2.809 -17.229,-34.352 c -3.193,-6.371 -9.605,-10.328 -16.732,-10.328 l -0.433,0 0,6.266 0.433,0 c 4.741,0 9.006,2.632 11.131,6.87 l 17.228,34.353 z"
     id="path7"
     inkscape:connector-curvature="0" /><path
     style="fill:#3a556a"
     d="m 299.339,161.255 c 4.846,0.313 9.42,-9.88 10.235,-22.768 0.815,-12.888 -2.444,-23.583 -7.269,-23.875 l -2.966,46.643 z"
     id="path9"
     inkscape:connector-curvature="0" /><g
     id="g11"
     transform="matrix(-1,0,0,1,468.299,0)"><path
       style="fill:#ce412d"
       d="m 166.99,419.933 -15.958,0 c -0.042,-35.071 -28.471,-63.814 -63.521,-63.814 -3.655,0 -7.227,0.313 -10.716,0.919 7.29,-2.757 15.186,-4.282 23.416,-4.282 36.888,0 66.779,30.288 66.779,67.177 z"
       id="path13"
       inkscape:connector-curvature="0" /><path
       style="fill:#ce412d"
       d="m 442.09,325.831 0,94.185 -18.883,0 c 0.313,-16.147 -4.366,-71.354 -79.292,-95.042 0,0 30.643,-9.065 73.819,30.288 0,0 3.572,-30.497 -19.53,-76.138 24.501,1.505 43.886,21.829 43.886,46.707 z"
       id="path15"
       inkscape:connector-curvature="0" /></g><path
     style="fill:#2f4859"
     d="m 24.017,265.339 c 0,13.285 10.757,24.022 24.022,24.022 l 152.671,0 c 13.285,0 24.022,-10.737 24.022,-24.022 0,-13.264 -10.736,-24.022 -24.022,-24.022 l -152.672,0 c -13.264,0 -24.021,10.758 -24.021,24.022 z"
     id="path17"
     inkscape:connector-curvature="0" /><path
     style="fill:#ce412d"
     d="m 49.029,419.933 15.958,0 c 0.042,-35.071 28.471,-63.814 63.521,-63.814 3.655,0 7.227,0.313 10.716,0.919 -7.29,-2.757 -15.186,-4.282 -23.416,-4.282 -36.888,0 -66.779,30.288 -66.779,67.177 z"
     id="path19"
     inkscape:connector-curvature="0" /><path
     style="fill:#2f4859"
     d="m 80.2,420.02 c 0,26.654 21.62,48.273 48.315,48.273 26.654,0 48.273,-21.619 48.273,-48.273 0,-26.674 -21.619,-48.273 -48.273,-48.273 -26.696,0 -48.315,21.598 -48.315,48.273 z"
     id="path21"
     inkscape:connector-curvature="0" /><circle
     style="fill:#ebf0f3"
     cx="-128.49599"
     cy="420.02701"
     r="22.322001"
     id="circle23"
     transform="scale(-1,1)" /><path
     style="fill:#2f4859"
     d="m 283.136,194.423 c 0,3.175 2.569,5.744 5.744,5.744 l 41.589,0 0,-11.489 -41.589,0 c -3.175,0 -5.744,2.57 -5.744,5.745 z"
     id="path25"
     inkscape:connector-curvature="0" /><path
     style="fill:#d5d6db"
     d="m 315.767,175.79 41.864,0 0,44.214 -41.864,0 c -3.413,0 -6.179,-2.767 -6.179,-6.18 l 0,-31.854 c -0.001,-3.413 2.766,-6.18 6.179,-6.18 z"
     id="path27"
     inkscape:connector-curvature="0" /><g
     id="g29"
     transform="matrix(-1,0,0,1,468.299,0)"><path
       style="fill:#2f4859"
       d="m 110.682,173.663 0,48.461 c 0,2.089 -1.692,3.802 -3.802,3.802 l -8.146,0 c -2.089,0 -3.781,-1.713 -3.781,-3.802 l 0,-48.461 c 0,-2.089 1.692,-3.781 3.781,-3.781 l 8.146,0 c 2.11,0 3.802,1.692 3.802,3.781 z"
       id="path31"
       inkscape:connector-curvature="0" /><ellipse
       style="fill:#2f4859"
       cx="87.517998"
       cy="420.02701"
       rx="48.297001"
       ry="48.271999"
       id="ellipse33" /></g><circle
     style="fill:#ebf0f3"
     cx="-380.78101"
     cy="420.02701"
     r="22.322001"
     id="circle35"
     transform="scale(-1,1)" /><g
     id="g37"
     transform="matrix(-1,0,0,1,468.299,0)"><path
       style="fill:#d15241"
       d="m 151.025,419.989 -127.008,0 c 0,-35.081 28.434,-63.879 63.494,-63.879 35.081,-0.001 63.514,28.798 63.514,63.879 z"
       id="path39"
       inkscape:connector-curvature="0" /><path
       style="fill:#d15241"
       d="m 403.304,419.989 -127.008,0 c 0,-35.081 28.434,-63.879 63.494,-63.879 35.081,-0.001 63.514,28.798 63.514,63.879 z"
       id="path41"
       inkscape:connector-curvature="0" /></g><path
     style="fill:#f7be56"
     d="m 178.87,118.935 c 4.108,8.266 12.734,13.046 24.3,15.538 12.131,-12.257 13.689,-29.548 13.689,-29.548 L 192.568,89.387 c 10e-4,0 -1.567,17.291 -13.698,29.548 z"
     id="path43"
     inkscape:connector-curvature="0" /><g
     id="g45"
     transform="matrix(-1,0,0,1,468.299,0)"><path
       style="fill:#d5d6db"
       d="m 215.076,345.555 -13.792,33.426 c -4.35,1.904 -8.267,1.59 -11.521,-2.109 l 5.103,-35.459 20.21,4.142 z"
       id="path47"
       inkscape:connector-curvature="0" /><path
       style="fill:#d5d6db"
       d="m 181.65,374.113 c -0.243,-0.324 14.117,-34.805 14.117,-34.805 l -12.494,-9.817 -12.007,41.134 c 2.792,5.857 6.272,6.89 10.384,3.488 z"
       id="path49"
       inkscape:connector-curvature="0" /></g><path
     style="fill:#ce412d"
     d="m 261.929,387.245 c 47.218,8.218 53.69,-8.505 52.94,-9.878 -8.241,-0.749 -14.672,-3.684 -18.482,-9.553 -1.123,3.934 -10.614,3.372 -10.614,3.372 l -0.625,5.495 -0.063,0 c -4.558,2.623 -7.18,-2.623 -7.18,-2.623 l -12.488,0.25 c -4.807,3.996 -3.488,12.937 -3.488,12.937 z"
     id="path51"
     inkscape:connector-curvature="0" /><path
     style="fill:#2d93ba"
     d="m 286.649,330.464 -14.279,11.358 -27.26,-97.033 c 0,0 20.607,-11.521 29.694,45.271 l 11.845,40.404 z"
     id="path53"
     inkscape:connector-curvature="0" /><path
     style="fill:#1c75a1"
     d="m 113.677,214.609 c 0,0 -12.656,39.267 68.475,41.215 l 31.803,-1.947 c 0,0 21.094,-3.894 34.4,76.588 l 3.813,18.985 22.636,-6.815 -13.894,-82.37 c -2.597,-15.396 -12.771,-28.504 -27.124,-34.649 -10.174,-4.356 -23.202,-7.344 -38.329,-5.165 -37.658,5.424 -35.049,-20.916 -35.049,-20.916 l -46.731,15.074 z"
     id="path55"
     inkscape:connector-curvature="0" /><path
     style="fill:#e1e6e9"
     d="m 266.128,177.923 -70.712,17.655 1.502,-43.602 -21.743,0 0,61.822 69.935,-18.976 25.151,-6.175 -0.027,-7.529 c -0.008,-2.145 -2.025,-3.715 -4.106,-3.195 z"
     id="path57"
     inkscape:connector-curvature="0" /><path
     style="fill:#fcd462"
     d="m 184.505,70.403 c 0,0 -0.613,38.086 26.043,45.018 26.656,6.941 33.471,-11.07 33.471,-11.07 -12.783,-8.762 -7.915,-11.975 -7.915,-11.975 11.196,11.517 15.217,6.562 15.217,6.562 1.207,-8.821 7.536,-11.498 7.536,-11.498 15.704,-1.83 7.876,-11.001 7.876,-11.001 -13.99,-3.398 -18.138,-15.821 -18.138,-42.75 0,0 -5.316,-4.547 -6.776,-7.487 -1.46,-2.95 -1.577,0.263 -10.339,0.019 -8.762,-0.243 -4.624,1.46 -26.89,1.344 -22.275,-0.127 -9.736,7.789 -17.777,12.287 -8.023,4.498 -2.308,30.551 -2.308,30.551 z"
     id="path59"
     inkscape:connector-curvature="0" /><path
     style="fill:#3a556a"
     d="m 93.554,209.089 c 0,0 2.921,25.313 55.825,12.014 33.91,-28.594 55.396,-58.22 56.467,-89.569 0,0 -25.517,-4.254 -23.911,-16.063 0,0 -27.689,-4.712 -62.095,50.781 0,0 1.626,17.855 -26.286,42.837 z"
     id="path61"
     inkscape:connector-curvature="0" /><path
     style="fill:#f7be56"
     d="m 242.793,193.434 7.915,4.741 c 23.132,-7.146 31.865,5.053 34.708,11.235 0.876,1.898 3.252,2.522 4.975,1.334 5.812,-4.04 6.474,-11.235 2.95,-20.981 -1.266,-3.476 -4.147,-6.63 -7.847,-6.873 -11.664,-0.779 -29.305,-0.409 -42.701,10.544 z"
     id="path63"
     inkscape:connector-curvature="0" /><path
     style="fill:#d5d6db"
     d="m 230.097,70.199 c 14.282,12.812 18.947,-5.439 18.947,-5.439 -5.303,-3.915 -14.059,-2.048 -18.947,5.439 z"
     id="path65"
     inkscape:connector-curvature="0" /><circle
     style="fill:#dc8744"
     cx="-241.961"
     cy="67.795998"
     r="2.7850001"
     id="circle67"
     transform="scale(-1,1)" /><path
     style="fill:#fcd462"
     d="m 241.965,67.794 c 0,0.769 0.623,1.392 1.392,1.392 0.759,0 1.383,-0.623 1.383,-1.392 0,-0.769 -0.623,-1.392 -1.383,-1.392 -0.769,0 -1.392,0.623 -1.392,1.392 z"
     id="path69"
     inkscape:connector-curvature="0" /><path
     style="fill:#2f4859"
     d="m 224.548,59.431 c 0.175,0.097 0.38,0.088 0.536,-0.019 1.723,-1.149 3.398,-2.21 5.111,-2.959 1.713,-0.74 3.456,-1.168 5.179,-1.1 1.723,0.039 3.437,0.536 5.141,1.305 1.684,0.779 3.359,1.84 4.994,3.018 l 0.039,0.029 c 0.224,0.165 0.536,0.107 0.691,-0.107 0.117,-0.156 0.127,-0.351 0.049,-0.506 -0.944,-2.015 -2.434,-3.69 -4.293,-4.985 -1.84,-1.314 -4.167,-2.142 -6.562,-2.162 -1.197,-0.019 -2.395,0.165 -3.505,0.545 -1.12,0.36 -2.171,0.857 -3.096,1.509 -1.879,1.256 -3.378,2.891 -4.459,4.751 -0.137,0.233 -0.059,0.545 0.175,0.681 z"
     id="path71"
     inkscape:connector-curvature="0" /><path
     style="fill:#d5d6db"
     d="m 159.065,228.794 c 3.037,6.182 10.028,9.346 16.677,7.594 17.388,-4.595 49.458,-22.003 78.616,-36.869 l -1.626,-13.795 -66.059,20.039 c -3.749,1.137 -7.479,-1.826 -7.218,-5.735 l 2.207,-33.123 -26.286,-4.702 c 0,-0.002 -6.689,45.426 3.689,66.591 z"
     id="path73"
     inkscape:connector-curvature="0" /><path
     style="fill:#2f4859"
     d="m 151.405,162.265 c 0.748,6.556 31.095,13.174 31.095,13.174 10.552,-20.854 13.113,-36.152 2.061,-41.959 -5.058,-2.684 -11.427,-1.998 -16.11,1.312 -12.551,8.741 -17.046,27.473 -17.046,27.473 z"
     id="path75"
     inkscape:connector-curvature="0" /><g
     id="g77"
     transform="matrix(-1,0,0,1,468.299,0)"><path
       style="fill:#dc8744"
       d="m 233.894,32.415 c -2.132,3.963 -4.517,7.828 -7.613,11.079 -3.106,3.252 -6.98,5.89 -11.342,6.961 -3.339,0.828 -6.902,0.711 -10.184,-0.321 2.56,-0.097 5.121,-0.195 7.672,-0.282 0.721,-0.029 1.548,-0.117 1.957,-0.711 0.467,-0.672 0.068,-1.655 -0.613,-2.103 -0.681,-0.438 -1.538,-0.487 -2.356,-0.477 -4.177,0 -8.655,0.701 -12.287,-1.363 -1.762,-0.993 -3.125,-2.561 -4.459,-4.089 -1.013,-1.159 -2.054,-2.376 -2.473,-3.865 -0.263,-0.935 -0.253,-2.181 0.282,-3.037 0.857,-1.353 1.071,-0.73 1.509,0.389 0.847,2.161 2.298,3.933 4.274,5.179 2.395,1.519 5.247,2.181 8.071,2.463 10.028,1.004 20.426,-2.706 27.562,-9.823 z"
       id="path79"
       inkscape:connector-curvature="0" /><path
       style="fill:#dc8744"
       d="m 309.467,107.272 c 0,0 -9.931,12.744 -23.668,-2.969 -4.449,-5.092 -4.274,-12.744 0.302,-17.719 l 5.238,-0.857 c 0,0 3.777,16.424 12.53,9.385 -0.234,0.409 -5.462,8.967 -13.621,2.785 0.001,0 -0.486,9.619 19.219,9.375 z"
       id="path81"
       inkscape:connector-curvature="0" /></g><path
     style="fill:#64798a"
     d="m 183.298,89.738 c 0,0 1.246,14.448 23.911,27.688 1.373,0.798 2.901,1.188 4.41,1.188 2.278,0 4.537,-0.886 6.231,-2.58 -28.477,-13.99 -29.937,-30.911 -29.937,-30.911 l -4.615,4.615 z"
     id="path83"
     inkscape:connector-curvature="0" /><path
     style="fill:#ffffff"
     d="m 378.603,187.28 c 1.861,3.296 2.693,6.959 2.694,10.623 -0.007,3.665 -0.842,7.324 -2.694,10.625 1.285,-1.395 2.25,-3.109 2.861,-4.934 0.628,-1.825 0.918,-3.76 0.93,-5.691 -0.012,-1.931 -0.3,-3.867 -0.927,-5.691 -0.612,-1.825 -1.577,-3.539 -2.864,-4.932 z"
     id="path85"
     inkscape:connector-curvature="0" /><g
     id="g87"
     transform="matrix(-1,0,0,1,468.299,0)"><path
       style="fill:#dc8744"
       d="m 248.649,44.005 -6.431,-3.621 c 1.373,-0.5 2.934,-0.375 4.183,0.437 1.123,0.686 1.935,1.873 2.248,3.184 z"
       id="path89"
       inkscape:connector-curvature="0" /><path
       style="fill:#dc8744"
       d="m 284.862,64.548 c -2.809,1.311 -5.931,1.873 -8.991,2.435 -2.434,0.437 -4.869,0.936 -7.242,1.373 -1.686,0.313 -3.497,0.624 -5.058,0 -1.311,-0.5 -2.247,-1.561 -3.184,-2.623 -1.748,-1.935 -3.558,-3.871 -5.306,-5.807 -1.313,-1.436 -2.686,-2.997 -3.122,-4.932 -0.313,-1.187 -0.188,-2.498 -0.75,-3.559 -0.563,-1.187 -1.811,-1.936 -2.248,-3.184 -0.498,-1.187 -0.123,-2.56 -0.248,-3.872 0,-0.124 -0.063,-0.249 -0.063,-0.374 l 36.212,20.543 z"
       id="path91"
       inkscape:connector-curvature="0" /></g><path
     style="fill:#e56353"
     d="m 177.203,90.478 c 0,0 13.143,9.006 14.847,-12.17 1.704,-21.175 34.319,-34.562 34.319,-34.562 26.948,-3.388 36.811,3.592 45.028,-4.624 0,0 -61.092,-69.854 -99.305,-22.879 0,0 -35.292,26.043 5.111,74.235 z"
     id="path93"
     inkscape:connector-curvature="0" /><g
     id="g95"
     transform="matrix(-1,0,0,1,468.299,0)" /><g
     id="g97"
     transform="matrix(-1,0,0,1,468.299,0)" /><g
     id="g99"
     transform="matrix(-1,0,0,1,468.299,0)" /><g
     id="g101"
     transform="matrix(-1,0,0,1,468.299,0)" /><g
     id="g103"
     transform="matrix(-1,0,0,1,468.299,0)" /><g
     id="g105"
     transform="matrix(-1,0,0,1,468.299,0)" /><g
     id="g107"
     transform="matrix(-1,0,0,1,468.299,0)" /><g
     id="g109"
     transform="matrix(-1,0,0,1,468.299,0)" /><g
     id="g111"
     transform="matrix(-1,0,0,1,468.299,0)" /><g
     id="g113"
     transform="matrix(-1,0,0,1,468.299,0)" /><g
     id="g115"
     transform="matrix(-1,0,0,1,468.299,0)" /><g
     id="g117"
     transform="matrix(-1,0,0,1,468.299,0)" /><g
     id="g119"
     transform="matrix(-1,0,0,1,468.299,0)" /><g
     id="g121"
     transform="matrix(-1,0,0,1,468.299,0)" /><g
     id="g123"
     transform="matrix(-1,0,0,1,468.299,0)" /></svg>