<svg xmlns="http://www.w3.org/2000/svg" xmlns:xlink="http://www.w3.org/1999/xlink" version="1.1" style="" xml:space="preserve" width="654.857177734375" height="651.5604248046875"><rect id="backgroundrect" width="100%" height="100%" x="0" y="0" fill="none" stroke="none"/>

























<g class="currentLayer" style=""><title>Layer 1</title>
	
	<path style="" d="M283.8553326702118,335.1267936401367 l-55.906,55.224 c-26.141,29.509 -75.376,19.683 -87.503,-18.66 c-0.799,-2.536 -1.3960000000000001,-5.062 -1.8010000000000002,-7.566 c-1.513,-9.314 -0.3620000000000003,-18.34 2.803,-26.429 c8.835,-22.614 33.452,-37.864 59.87,-31.587 l63.739,10.742 l13.747,2.313 c0.4160000000000003,0.06400000000000022 0.81,0.16000000000000117 1.204,0.277 C286.6693326702118,321.44379364013673 289.01333267021175,330.03279364013673 283.8553326702118,335.1267936401367 z" id="svg_8" class="" stroke="#000000" stroke-opacity="1" stroke-width="10" fill="#ffffff" fill-opacity="1"/>
<path style="" d="M265.0573326702118,316.8507936401367 l-37.107,36.649 c-25.481,28.773 -72.893,20.152 -86.502,-15.804 c8.835,-22.614 33.452,-37.864 59.87,-31.587 L265.0573326702118,316.8507936401367 z" id="svg_9" class="" stroke="#000000" stroke-opacity="1" stroke-width="10" fill="#ffffff" fill-opacity="1"/>
	
	
	
	
<path style="" d="M546.2063326702119,423.39779364013674 c-1.6940000000000008,3.186 -3.5700000000000003,6.17 -5.606,8.941 c-1.929,2.622 -4.007,5.062 -6.213,7.321 c-30.638,31.459 -85.479,27.154 -109.616,-12.82 l-61.085,-87.471 c-0.3300000000000024,-0.4690000000000003 -0.6180000000000042,-0.9380000000000006 -0.8740000000000042,-1.428 c-4.401,-8.355 1.6940000000000008,-18.799 11.531,-18.66 l23.616,0.3520000000000003 l83.06,1.247 C534.4833326702118,318.12879364013673 571.8143326702118,375.16479364013674 546.2063326702119,423.39779364013674 z" id="svg_15" class="" stroke="#000000" stroke-opacity="1" stroke-width="10" fill="#ffffff" fill-opacity="1"/><path style="" d="M546.2063326702119,423.39779364013674 c-1.6940000000000008,3.186 -3.5700000000000003,6.17 -5.606,8.941 c-1.929,2.622 -4.007,5.062 -6.213,7.321 c-27.644,6.021 -58.453,-4.646 -74.939,-31.949 l-61.085,-87.471 c-0.139,-0.202 -0.277,-0.405 -0.405,-0.6070000000000016 l83.06,1.247 C534.4833326702118,318.12879364013673 571.8143326702118,375.16479364013674 546.2063326702119,423.39779364013674 z" id="svg_16" class="" stroke="#000000" stroke-opacity="1" stroke-width="10" fill="#ffffff" fill-opacity="1"/><g id="svg_17" class="" stroke="#000000" stroke-opacity="1" stroke-width="10" fill="#ffffff" fill-opacity="1">
</g><g id="svg_18" class="" stroke="#000000" stroke-opacity="1" stroke-width="10" fill="#ffffff" fill-opacity="1">
</g><g id="svg_19" class="" stroke="#000000" stroke-opacity="1" stroke-width="10" fill="#ffffff" fill-opacity="1">
</g><g id="svg_20" class="" stroke="#000000" stroke-opacity="1" stroke-width="10" fill="#ffffff" fill-opacity="1">
</g><g id="svg_21" class="" stroke="#000000" stroke-opacity="1" stroke-width="10" fill="#ffffff" fill-opacity="1">
</g><g id="svg_22" class="" stroke="#000000" stroke-opacity="1" stroke-width="10" fill="#ffffff" fill-opacity="1">
</g><g id="svg_23" class="" stroke="#000000" stroke-opacity="1" stroke-width="10" fill="#ffffff" fill-opacity="1">
</g><g id="svg_24" class="" stroke="#000000" stroke-opacity="1" stroke-width="10" fill="#ffffff" fill-opacity="1">
</g><g id="svg_25" class="" stroke="#000000" stroke-opacity="1" stroke-width="10" fill="#ffffff" fill-opacity="1">
</g><g id="svg_26" class="" stroke="#000000" stroke-opacity="1" stroke-width="10" fill="#ffffff" fill-opacity="1">
</g><g id="svg_27" class="" stroke="#000000" stroke-opacity="1" stroke-width="10" fill="#ffffff" fill-opacity="1">
</g><g id="svg_28" class="" stroke="#000000" stroke-opacity="1" stroke-width="10" fill="#ffffff" fill-opacity="1">
</g><g id="svg_29" class="" stroke="#000000" stroke-opacity="1" stroke-width="10" fill="#ffffff" fill-opacity="1">
</g><g id="svg_30" class="" stroke="#000000" stroke-opacity="1" stroke-width="10" fill="#ffffff" fill-opacity="1">
</g><g id="svg_31" class="" stroke="#000000" stroke-opacity="1" stroke-width="10" fill="#ffffff" fill-opacity="1">
</g><path style="" d="M356.7443326702118,214.88679364013672 l-22.631,44.265 c-0.12000000000000002,0.23700000000000004 -0.253,0.459 -0.3980000000000028,0.6700000000000055 c-2.475,3.6390000000000002 -8.107,3.418 -10.199,-0.6650000000000055 l-22.672,-44.245 c-12.829,-21.396 2.478,-49.23 27.926,-49.242 c1.681,-0.0010000000000000041 3.317,0.11900000000000074 4.904,0.3530000000000003 C356.11833267021177,169.30479364013672 368.7183326702118,194.8737936401367 356.7443326702118,214.88679364013672 z" id="svg_11" class="" stroke="#000000" stroke-opacity="1" stroke-width="10" fill="#ffffff" fill-opacity="1"/></g></svg>