<svg xmlns="http://www.w3.org/2000/svg" xmlns:xlink="http://www.w3.org/1999/xlink" version="1.1" style="" xml:space="preserve" width="654.8571480971118" height="651.5604446794862"><rect id="backgroundrect" width="100%" height="100%" x="0" y="0" fill="none" stroke="none"/>

























<g class="currentLayer" style=""><title>Layer 1</title><path style="fill:#07A9F0;" d="M340.4223326702118,549.3717936401367 c-7.119,2.472 -14.877,3.8360000000000003 -23.125,3.8360000000000003 c-3.6020000000000003,0 -7.119,-0.256 -10.518,-0.7570000000000043 c-48.158,-7.066 -75.173,-61.948 -49.458,-104.885 l48.606,-94.974 c0.266,-0.501 0.544,-0.98 0.8530000000000006,-1.428 c5.318,-7.811 17.403,-7.332 21.889,1.428 l11.765,22.987 l36.841,71.987 C400.6223326702118,486.5607936401367 380.4703326702118,535.4867936401367 340.4223326702118,549.3717936401367 z" id="svg_1" class=""/><path style="fill:#40C1FA;" d="M340.4223326702118,549.3717936401367 c-40.027,-13.897 -60.211,-62.78 -36.83,-101.805 l36.841,-71.987 l36.841,71.987 C400.6223326702118,486.5607936401367 380.4703326702118,535.4867936401367 340.4223326702118,549.3717936401367 z" id="svg_2" class=""/><path style="fill:#07A9F0;" d="M293.2333326702118,302.2397936401367 L135.9703326702118,202.82179364013672 C78.98833267021179,167.61179364013674 65.11333267021179,97.34079364013672 117.64033267021179,58.03779364013672 c0.139,-0.10700000000000012 0.277,-0.202 0.4160000000000003,-0.2980000000000003 c55.352,-40.933 132.582,-0.7030000000000006 133.275,64.367 c0.16000000000000117,14.845 2.067,57.377 17.36,106.036 c6.991,22.198 16.753,45.665 30.415,68.364 C301.3963326702118,300.3107936401367 296.9953326702118,304.6157936401367 293.2333326702118,302.2397936401367 z" id="svg_3" class=""/><path style="fill:#40C1FA;" d="M268.6903326702118,228.14279364013672 L165.6283326702118,162.98679364013674 C124.8443326702118,137.7937936401367 106.1413326702118,94.64379364013672 118.05633267021179,57.73979364013672 c55.352,-40.933 132.582,-0.7030000000000006 133.275,64.367 C251.49033267021179,136.9517936401367 253.3983326702118,179.48379364013672 268.6903326702118,228.14279364013672 z" id="svg_4" class=""/><path style="fill:#07A9F0;" d="M536.6143326702118,175.07179364013672 c0,0 -36.574,11.392 -96.764,54.435 c-24.021,17.179 -51.792,39.398 -82.505,67.948 c-2.963,2.7600000000000002 -7.513,-0.7250000000000006 -5.627,-4.305 L454.98333267021184,97.75579364013672 c27.548000000000002,-48.435 75.227,-71.071 113.868,-36.361 c10.945,9.826 17.925,21.74 20.919,34.187 C597.2733326702117,126.77479364013672 579.7113326702117,161.3557936401367 536.6143326702118,175.07179364013672 z" id="svg_5" class=""/><g id="svg_6" class="">
	<path style="fill:#40C1FA;" d="M536.6143326702118,175.07179364013672 c0,0 -36.574,11.392 -96.764,54.435 l47.178,-89.262 c24.958,-43.874 66.424,-66.584 102.743,-44.663 C597.2733326702117,126.77479364013672 579.7113326702117,161.3557936401367 536.6143326702118,175.07179364013672 z" id="svg_7"/>
	<path style="fill:#40C1FA;" d="M283.8553326702118,335.1267936401367 l-55.906,55.224 c-26.141,29.509 -75.376,19.683 -87.503,-18.66 c-0.799,-2.536 -1.3960000000000001,-5.062 -1.8010000000000002,-7.566 c-1.513,-9.314 -0.3620000000000003,-18.34 2.803,-26.429 c8.835,-22.614 33.452,-37.864 59.87,-31.587 l63.739,10.742 l13.747,2.313 c0.4160000000000003,0.06400000000000022 0.81,0.16000000000000117 1.204,0.277 C286.6693326702118,321.44379364013673 289.01333267021175,330.03279364013673 283.8553326702118,335.1267936401367 z" id="svg_8"/>
</g><path style="fill:#93DCFC;" d="M265.0573326702118,316.8507936401367 l-37.107,36.649 c-25.481,28.773 -72.893,20.152 -86.502,-15.804 c8.835,-22.614 33.452,-37.864 59.87,-31.587 L265.0573326702118,316.8507936401367 z" id="svg_9" class=""/><g id="svg_10" class="">
	<path style="fill:#0691CE;" d="M356.7443326702118,214.88679364013672 l-22.631,44.265 c-0.12000000000000002,0.23700000000000004 -0.253,0.459 -0.3980000000000028,0.6700000000000055 c-2.475,3.6390000000000002 -8.107,3.418 -10.199,-0.6650000000000055 l-22.672,-44.245 c-12.829,-21.396 2.478,-49.23 27.926,-49.242 c1.681,-0.0010000000000000041 3.317,0.11900000000000074 4.904,0.3530000000000003 C356.11833267021177,169.30479364013672 368.7183326702118,194.8737936401367 356.7443326702118,214.88679364013672 z" id="svg_11"/>
	<path style="fill:#0691CE;" d="M559.1193326702119,267.8987936401367 l-34.93,-7.783 c-0.18600000000000044,-0.04200000000000033 -0.3660000000000003,-0.094000000000001 -0.538,-0.15700000000000044 c-2.983,-1.068 -3.8440000000000003,-5.032 -1.377,-7.227 l26.74,-23.783 c12.594,-12.8 34.753,-7.157 39.354,10.575 c0.3040000000000003,1.171 0.516,2.334 0.6390000000000048,3.482 C590.7693326702117,259.23679364013674 575.2253326702119,272.6317936401367 559.1193326702119,267.8987936401367 z" id="svg_12"/>
	<path style="fill:#0691CE;" d="M165.61333267021178,491.8827936401367 l31.109,-17.688 c0.1660000000000013,-0.09500000000000103 0.3340000000000028,-0.1770000000000002 0.504,-0.2460000000000004 c2.927,-1.212 6.228,1.1480000000000001 5.873,4.431 l-3.846,35.579 c-0.7370000000000042,17.942 -20.947,28.639 -36.262,18.589 c-1.011,-0.6640000000000055 -1.949,-1.383 -2.811,-2.151 C147.9753326702118,519.5547936401367 150.50033267021178,499.19079364013675 165.61333267021178,491.8827936401367 z" id="svg_13"/>
	<path style="fill:#0691CE;" d="M121.4873326702118,241.98979364013672 l24.404,26.174 c0.131,0.14 0.24900000000000044,0.2830000000000003 0.3560000000000003,0.4340000000000021 c1.855,2.568 0.3240000000000024,6.324 -2.952,6.738 l-35.503,4.489 c-17.626,3.433 -32.708,-13.755 -26.473,-30.979 c0.4110000000000003,-1.137 0.8940000000000048,-2.217 1.4420000000000002,-3.232 C90.48833267021179,231.2307936401367 110.8823326702118,228.97779364013672 121.4873326702118,241.98979364013672 z" id="svg_14"/>
</g><path style="fill:#40C1FA;" d="M546.2063326702119,423.39779364013674 c-1.6940000000000008,3.186 -3.5700000000000003,6.17 -5.606,8.941 c-1.929,2.622 -4.007,5.062 -6.213,7.321 c-30.638,31.459 -85.479,27.154 -109.616,-12.82 l-61.085,-87.471 c-0.3300000000000024,-0.4690000000000003 -0.6180000000000042,-0.9380000000000006 -0.8740000000000042,-1.428 c-4.401,-8.355 1.6940000000000008,-18.799 11.531,-18.66 l23.616,0.3520000000000003 l83.06,1.247 C534.4833326702118,318.12879364013673 571.8143326702118,375.16479364013674 546.2063326702119,423.39779364013674 z" id="svg_15" class=""/><path style="fill:#93DCFC;" d="M546.2063326702119,423.39779364013674 c-1.6940000000000008,3.186 -3.5700000000000003,6.17 -5.606,8.941 c-1.929,2.622 -4.007,5.062 -6.213,7.321 c-27.644,6.021 -58.453,-4.646 -74.939,-31.949 l-61.085,-87.471 c-0.139,-0.202 -0.277,-0.405 -0.405,-0.6070000000000016 l83.06,1.247 C534.4833326702118,318.12879364013673 571.8143326702118,375.16479364013674 546.2063326702119,423.39779364013674 z" id="svg_16" class=""/><g id="svg_17" class="">
</g><g id="svg_18" class="">
</g><g id="svg_19" class="">
</g><g id="svg_20" class="">
</g><g id="svg_21" class="">
</g><g id="svg_22" class="">
</g><g id="svg_23" class="">
</g><g id="svg_24" class="">
</g><g id="svg_25" class="">
</g><g id="svg_26" class="">
</g><g id="svg_27" class="">
</g><g id="svg_28" class="">
</g><g id="svg_29" class="">
</g><g id="svg_30" class="">
</g><g id="svg_31" class="">
</g></g></svg>