<?xml version="1.0" encoding="UTF-8" standalone="no"?>
<svg
   xmlns:dc="http://purl.org/dc/elements/1.1/"
   xmlns:cc="http://creativecommons.org/ns#"
   xmlns:rdf="http://www.w3.org/1999/02/22-rdf-syntax-ns#"
   xmlns:svg="http://www.w3.org/2000/svg"
   xmlns="http://www.w3.org/2000/svg"
   xmlns:sodipodi="http://sodipodi.sourceforge.net/DTD/sodipodi-0.dtd"
   xmlns:inkscape="http://www.inkscape.org/namespaces/inkscape"
   height="512pt"
   viewBox="0 -165 512 512"
   width="512pt"
   id="svg2"
   version="1.1"
   inkscape:version="0.91 r13725"
   sodipodi:docname="sportscar-r-l.svg">
  <metadata
     id="metadata48">
    <rdf:RDF>
      <cc:Work
         rdf:about="">
        <dc:format>image/svg+xml</dc:format>
        <dc:type
           rdf:resource="http://purl.org/dc/dcmitype/StillImage" />
        <dc:title></dc:title>
      </cc:Work>
    </rdf:RDF>
  </metadata>
  <defs
     id="defs46" />
  <sodipodi:namedview
     pagecolor="#ffffff"
     bordercolor="#666666"
     borderopacity="1"
     objecttolerance="10"
     gridtolerance="10"
     guidetolerance="10"
     inkscape:pageopacity="0"
     inkscape:pageshadow="2"
     inkscape:window-width="811"
     inkscape:window-height="480"
     id="namedview44"
     showgrid="false"
     inkscape:zoom="0.36875"
     inkscape:cx="320"
     inkscape:cy="320"
     inkscape:window-x="0"
     inkscape:window-y="25"
     inkscape:window-maximized="0"
     inkscape:current-layer="svg2" />
  <path
     d="m 10.609375,81.46875 c 13.9375,-9.765625 43.179687,-23.664062 96.746095,-23.664062 l 8.25781,0 105.60938,-49.28125 C 233.25,2.910156 246.36328,0 259.63672,0 l 91.85156,0 c 7.83203,0 15.57813,1.589844 22.77344,4.675781 l 95.35937,40.867188 c 6.16797,2.644531 12.8086,4.007812 19.51953,4.007812 l 6.34375,0 C 504.60547,49.546875 512,56.941406 512,66.0625 l 0,52.28125 c 0,7.98438 -5.70703,14.82422 -13.5625,16.25 l -77.27734,14.05078 0,8.25781 -404.644535,0 C 7.394531,156.90234 0,149.50781 0,140.38672 L 0,101.81641 C 0,93.691406 3.957031,86.128906 10.609375,81.46875 Z m 0,0"
     id="path4"
     inkscape:connector-curvature="0"
     style="fill:#ff8086" />
  <path
     d="m 350.08594,16.515625 -67.16797,0 0,41.289063 99.15234,0 c 15.375,0 19.91406,-20.953126 5.91406,-27.316407 L 363.75391,19.476562 c -4.29297,-1.953124 -8.95313,-2.960937 -13.66797,-2.960937 z m 0,0"
     id="path6"
     inkscape:connector-curvature="0"
     style="fill:#e5646e" />
  <path
     d="m 7.78125,123.87109 c 6.472656,0 12.089844,-3.90234 15.027344,-9.67187 9.546875,-18.76172 29.019531,-31.621095 51.515625,-31.621095 22.492187,0 41.964841,12.859375 51.515621,31.621095 2.9336,5.76953 8.55078,9.67187 15.02344,9.67187 l 164.6875,0 0,-33.031246 79.01172,0 c 3.96875,0 7.96484,-0.667969 11.53125,-2.410156 7.58203,-3.707032 16.05859,-5.851563 25.06641,-5.851563 9.02343,0 17.51562,2.132813 25.10156,5.847656 3.57031,1.746094 7.57812,2.414063 11.55469,2.414063 l 54.18359,0 0,27.503906 c 0,0.96875 -0.0898,1.91797 -0.25391,2.84375 -0.16015,0.91406 -0.40234,1.80078 -0.70703,2.66406 -0.004,0.004 -0.004,0.0117 -0.004,0.0195 -1.9375,5.44141 -6.64454,9.64063 -12.59766,10.72266 l -77.27734,14.05078 -16.51563,8.25781 -388.128905,0 C 7.394531,156.90234 0,149.50781 0,140.38672 l 0,-16.51563 z m 0,0"
     id="path8"
     inkscape:connector-curvature="0"
     style="fill:#e5646e" />
  <path
     d="m 16.515625,156.90234 371.613285,0 0,-16.51562 -388.12891,0 c 0,9.12109 7.394531,16.51562 16.515625,16.51562 z m 0,0"
     id="path10"
     inkscape:connector-curvature="0"
     style="fill:#db4655" />
  <path
     d="m 115.61328,57.804688 88.48047,-41.289063 118.62109,0 c 7.16016,0 11.02344,8.402344 6.36328,13.839844 L 312.96484,49.15625 c -4.70703,5.488281 -11.57812,8.652344 -18.8125,8.652344 l -178.53906,0 z m 0,0"
     id="path12"
     inkscape:connector-curvature="0"
     style="fill:#c3ddff" />
  <path
     d="m 326.78125,33.03125 -13.81641,16.121094 c -4.70703,5.492187 -11.57812,8.652344 -18.8125,8.652344 l -178.53906,0 53.08594,-24.773438 z m 0,0"
     id="path14"
     inkscape:connector-curvature="0"
     style="fill:#a4ccff" />
  <path
     d="m 305.54687,90.839844 22.79297,0 c 4.21875,0 6.62891,4.816406 4.09766,8.191406 l -13.67578,18.23438 c -3.1211,4.15625 -8.01563,6.60546 -13.21485,6.60546 l -22.78906,0 c -4.21875,0 -6.6289,-4.8164 -4.09765,-8.19531 l 13.67578,-18.230468 c 3.11718,-4.160156 8.01562,-6.605468 13.21093,-6.605468 z m 0,0"
     id="path16"
     inkscape:connector-curvature="0"
     style="fill:#6f6571" />
  <path
     d="m 495.48437,74.320312 16.51563,0 0,16.519532 -16.51563,0 c -4.5664,0 -8.25781,-3.695313 -8.25781,-8.261719 0,-4.5625 3.69141,-8.257813 8.25781,-8.257813 z m 0,0"
     id="path18"
     inkscape:connector-curvature="0"
     style="fill:#ff9a9f" />
  <path
     d="m 33.03125,140.38672 c 0,22.80469 18.488281,41.28906 41.292969,41.28906 22.800781,0 41.289061,-18.48437 41.289061,-41.28906 0,-22.80469 -18.48828,-41.289064 -41.289061,-41.289064 -22.804688,0 -41.292969,18.484374 -41.292969,41.289064 z m 0,0"
     id="path20"
     inkscape:connector-curvature="0"
     style="fill:#5d5360" />
  <path
     d="m 49.550781,140.38672 c 0,13.67969 11.089844,24.77344 24.773438,24.77344 13.679687,0 24.773437,-11.09375 24.773437,-24.77344 0,-13.68359 -11.09375,-24.77344 -24.773437,-24.77344 -13.683594,0 -24.773438,11.08985 -24.773438,24.77344 z m 0,0"
     id="path22"
     inkscape:connector-curvature="0"
     style="fill:#b6b1b7" />
  <path
     d="m 74.324219,115.61328 c 8.960937,0 16.808593,4.74219 21.15625,11.875 -3.753907,-2.28906 -8.179688,-3.61719 -12.898438,-3.61719 -13.683593,0 -24.773437,11.08985 -24.773437,24.77344 0,4.71875 1.328125,9.14063 3.621094,12.89453 -7.132813,-4.35156 -11.878907,-12.1875 -11.878907,-21.15234 -0.0039,-13.68359 11.089844,-24.77344 24.773438,-24.77344 z m 0,0"
     id="path24"
     inkscape:connector-curvature="0"
     style="fill:#9b959d" />
  <path
     d="m 66.066406,140.38672 c 0,4.55859 3.695313,8.25781 8.257813,8.25781 4.558593,0 8.257812,-3.69922 8.257812,-8.25781 0,-4.5625 -3.699219,-8.25781 -8.257812,-8.25781 -4.5625,0 -8.257813,3.69531 -8.257813,8.25781 z m 0,0"
     id="path26"
     inkscape:connector-curvature="0"
     style="fill:#dad8db" />
  <path
     d="m 379.87109,140.38672 c 0,22.80469 18.48438,41.28906 41.28907,41.28906 22.80468,0 41.28906,-18.48437 41.28906,-41.28906 0,-22.80469 -18.48438,-41.289064 -41.28906,-41.289064 -22.80469,0 -41.28907,18.484374 -41.28907,41.289064 z m 0,0"
     id="path28"
     inkscape:connector-curvature="0"
     style="fill:#5d5360" />
  <path
     d="m 396.38672,140.38672 c 0,13.67969 11.09375,24.77344 24.77344,24.77344 13.68359,0 24.77343,-11.09375 24.77343,-24.77344 0,-13.68359 -11.08984,-24.77344 -24.77343,-24.77344 -13.67969,0 -24.77344,11.08985 -24.77344,24.77344 z m 0,0"
     id="path30"
     inkscape:connector-curvature="0"
     style="fill:#b6b1b7" />
  <path
     d="m 421.16016,115.61328 c 8.96484,0 16.80468,4.7461 21.15625,11.875 -3.75391,-2.28906 -8.17969,-3.61719 -12.89844,-3.61719 -13.67969,0 -24.77344,11.08985 -24.77344,24.77344 0,4.71875 1.33203,9.14453 3.62109,12.89453 -7.13281,-4.34765 -11.8789,-12.1875 -11.8789,-21.15234 0,-13.68359 11.09375,-24.77344 24.77344,-24.77344 z m 0,0"
     id="path32"
     inkscape:connector-curvature="0"
     style="fill:#9b959d" />
  <path
     d="m 412.90234,140.38672 c 0,4.55859 3.69922,8.25781 8.25782,8.25781 4.5625,0 8.25781,-3.69922 8.25781,-8.25781 0,-4.5625 -3.69531,-8.25781 -8.25781,-8.25781 -4.5586,0 -8.25782,3.69531 -8.25782,8.25781 z m 0,0"
     id="path34"
     inkscape:connector-curvature="0"
     style="fill:#dad8db" />
  <path
     d="m 275.12891,57.804688 -21.74219,0 35.39453,-41.289063 21.73828,0 z m 0,0"
     id="path36"
     inkscape:connector-curvature="0"
     style="fill:#857e87" />
  <path
     d="m 296.36328,33.03125 -21.23437,24.773438 -21.74219,0 21.23437,-24.773438 z m 0,0"
     id="path38"
     inkscape:connector-curvature="0"
     style="fill:#6f6571" />
  <path
     d="m 16.515625,99.097656 -16.363281,0 C 0.878906,92.59375 4.019531,86.703125 9.140625,82.578125 l 7.375,0 c 4.5625,0 8.257813,3.699219 8.257813,8.261719 0,4.558594 -3.695313,8.257812 -8.257813,8.257812 z m 0,0"
     id="path40"
     inkscape:connector-curvature="0"
     style="fill:#ffc269" />
  <path
     d="m 297.5625,119.3125 21.35547,-28.472656 9.42187,0 c 4.21875,0 6.62891,4.816406 4.09766,8.191406 l -13.67578,18.23438 c -3.1211,4.15625 -8.01563,6.60546 -13.21485,6.60546 l -17.10156,0 c 3.58594,0 6.96485,-1.6914 9.11719,-4.55859 z m 0,0"
     id="path42"
     inkscape:connector-curvature="0"
     style="fill:#5d5360" />
</svg>
