<?xml version="1.0" encoding="iso-8859-1"?>
<!-- Generator: Adobe Illustrator 19.0.0, SVG Export Plug-In . SVG Version: 6.00 Build 0)  -->
<svg version="1.1" id="Capa_1" xmlns="http://www.w3.org/2000/svg" xmlns:xlink="http://www.w3.org/1999/xlink" x="0px" y="0px"
	 viewBox="0 0 512 512" style="enable-background:new 0 0 512 512;" xml:space="preserve">
<path style="fill:#E10000;" d="M464.001,260.2v-46.501L475.699,196h0.601l-17.701-35.101C451.099,145.6,435.5,136,418.4,136H317
	c-8.401,0-15,6.599-15,15v225l30,30h135c24.901,0,45-20.101,45-45v-75L464.001,260.2z"/>
<path style="fill:#C5D3DD;" d="M287,46H45C20.099,46,0,66.099,0,91c0,272.68,0-2.462,0,270c0,24.899,20.099,45,45,45h287V91
	C332,66.099,311.901,46,287,46z"/>
<path style="fill:#53433F;" d="M510.5,264.399L475.813,196H377c-8.401,0-15,6.599-15,15v60c0,8.399,6.599,15,15,15h135v-15
	C512,268.599,511.399,266.499,510.5,264.399z"/>
<path style="fill:#FF7816;" d="M512,316v30h-45c-8.401,0-15-6.601-15-15c0-8.401,6.599-15,15-15H512z"/>
<path style="fill:#B6C4CF;" d="M332,91v315H211V46h76C311.901,46,332,66.099,332,91z"/>
<path style="fill:#3E322E;" d="M392,466c-33.091,0-60-26.909-60-60s26.909-60,60-60s60,26.909,60,60S425.091,466,392,466z"/>
<path style="fill:#C5D3DD;" d="M392,436c-16.538,0-30-13.462-30-30s13.462-30,30-30s30,13.462,30,30S408.538,436,392,436z"/>
<path style="fill:#53433F;" d="M121,466c-33.091,0-60-26.909-60-60s26.909-60,60-60s60,26.909,60,60S154.091,466,121,466z"/>
<path style="fill:#D9E7EC;" d="M121,436c-16.538,0-30-13.462-30-30s13.462-30,30-30s30,13.462,30,30S137.538,436,121,436z"/>
<path style="fill:#53433F;" d="M241,211v30c0,8.399-6.599,15-15,15s-15-6.601-15-15v-30c0-19.501-12.599-36.301-30-42.301V271
	c0,24.899-20.099,45-45,45s-45-20.101-45-45c0-24.901,20.099-45,45-45c5.4,0,10.201,1.199,15,2.699V121c0-8.401,6.599-15,15-15
	s15,6.599,15,15v16.5c11.1,2.1,21.301,6.899,30,13.801C229.3,164.5,241,186.4,241,211z"/>
<path style="fill:#3E322E;" d="M241,211v30c0,8.399-6.599,15-15,15s-15-6.601-15-15v-89.7C229.3,164.5,241,186.4,241,211z"/>
<g>
</g>
<g>
</g>
<g>
</g>
<g>
</g>
<g>
</g>
<g>
</g>
<g>
</g>
<g>
</g>
<g>
</g>
<g>
</g>
<g>
</g>
<g>
</g>
<g>
</g>
<g>
</g>
<g>
</g>
</svg>
