<?xml version="1.0" encoding="UTF-8" standalone="no"?>
<!-- Generator: Adobe Illustrator 19.0.0, SVG Export Plug-In . SVG Version: 6.00 Build 0)  -->

<svg
   xmlns:dc="http://purl.org/dc/elements/1.1/"
   xmlns:cc="http://creativecommons.org/ns#"
   xmlns:rdf="http://www.w3.org/1999/02/22-rdf-syntax-ns#"
   xmlns:svg="http://www.w3.org/2000/svg"
   xmlns="http://www.w3.org/2000/svg"
   xmlns:sodipodi="http://sodipodi.sourceforge.net/DTD/sodipodi-0.dtd"
   xmlns:inkscape="http://www.inkscape.org/namespaces/inkscape"
   version="1.1"
   id="Capa_1"
   x="0px"
   y="0px"
   viewBox="0 0 512 620"
   xml:space="preserve"
   inkscape:version="0.91 r13725"
   sodipodi:docname="truck-r.svg"
   width="512"
   height="620"><metadata
     id="metadata59"><rdf:RDF><cc:Work
         rdf:about=""><dc:format>image/svg+xml</dc:format><dc:type
           rdf:resource="http://purl.org/dc/dcmitype/StillImage" /><dc:title></dc:title></cc:Work></rdf:RDF></metadata><defs
     id="defs57" /><sodipodi:namedview
     pagecolor="#ffffff"
     bordercolor="#666666"
     borderopacity="1"
     objecttolerance="10"
     gridtolerance="10"
     guidetolerance="10"
     inkscape:pageopacity="0"
     inkscape:pageshadow="2"
     inkscape:window-width="811"
     inkscape:window-height="480"
     id="namedview55"
     showgrid="false"
     fit-margin-bottom="160"
     fit-margin-top="0"
     fit-margin-left="0"
     fit-margin-right="0"
     inkscape:zoom="0.4609375"
     inkscape:cx="256"
     inkscape:cy="319.92107"
     inkscape:window-x="2208"
     inkscape:window-y="254"
     inkscape:window-maximized="0"
     inkscape:current-layer="Capa_1" /><path
     style="fill:#e10000"
     d="m 464.001,254.2 0,-46.501 11.698,-17.699 0.601,0 -17.701,-35.101 C 451.099,139.6 435.5,130 418.4,130 L 317,130 c -8.401,0 -15,6.599 -15,15 l 0,225 30,30 135,0 c 24.901,0 45,-20.101 45,-45 l 0,-75 -47.999,-25.8 z"
     id="path3"
     inkscape:connector-curvature="0" /><path
     style="fill:#c5d3dd"
     d="M 287,40 45,40 C 20.099,40 0,60.099 0,85 c 0,272.68 0,-2.462 0,270 0,24.899 20.099,45 45,45 l 287,0 0,-315 C 332,60.099 311.901,40 287,40 Z"
     id="path5"
     inkscape:connector-curvature="0" /><path
     style="fill:#53433f"
     d="M 510.5,258.399 475.813,190 377,190 c -8.401,0 -15,6.599 -15,15 l 0,60 c 0,8.399 6.599,15 15,15 l 135,0 0,-15 c 0,-2.401 -0.601,-4.501 -1.5,-6.601 z"
     id="path7"
     inkscape:connector-curvature="0" /><path
     style="fill:#ff7816"
     d="m 512,310 0,30 -45,0 c -8.401,0 -15,-6.601 -15,-15 0,-8.401 6.599,-15 15,-15 l 45,0 z"
     id="path9"
     inkscape:connector-curvature="0" /><path
     style="fill:#b6c4cf"
     d="m 332,85 0,315 -121,0 0,-360 76,0 c 24.901,0 45,20.099 45,45 z"
     id="path11"
     inkscape:connector-curvature="0" /><path
     style="fill:#3e322e"
     d="m 392,460 c -33.091,0 -60,-26.909 -60,-60 0,-33.091 26.909,-60 60,-60 33.091,0 60,26.909 60,60 0,33.091 -26.909,60 -60,60 z"
     id="path13"
     inkscape:connector-curvature="0" /><path
     style="fill:#c5d3dd"
     d="m 392,430 c -16.538,0 -30,-13.462 -30,-30 0,-16.538 13.462,-30 30,-30 16.538,0 30,13.462 30,30 0,16.538 -13.462,30 -30,30 z"
     id="path15"
     inkscape:connector-curvature="0" /><path
     style="fill:#53433f"
     d="m 121,460 c -33.091,0 -60,-26.909 -60,-60 0,-33.091 26.909,-60 60,-60 33.091,0 60,26.909 60,60 0,33.091 -26.909,60 -60,60 z"
     id="path17"
     inkscape:connector-curvature="0" /><path
     style="fill:#d9e7ec"
     d="m 121,430 c -16.538,0 -30,-13.462 -30,-30 0,-16.538 13.462,-30 30,-30 16.538,0 30,13.462 30,30 0,16.538 -13.462,30 -30,30 z"
     id="path19"
     inkscape:connector-curvature="0" /><path
     style="fill:#53433f"
     d="m 241,205 0,30 c 0,8.399 -6.599,15 -15,15 -8.401,0 -15,-6.601 -15,-15 l 0,-30 c 0,-19.501 -12.599,-36.301 -30,-42.301 L 181,265 c 0,24.899 -20.099,45 -45,45 -24.901,0 -45,-20.101 -45,-45 0,-24.901 20.099,-45 45,-45 5.4,0 10.201,1.199 15,2.699 L 151,115 c 0,-8.401 6.599,-15 15,-15 8.401,0 15,6.599 15,15 l 0,16.5 c 11.1,2.1 21.301,6.899 30,13.801 18.3,13.199 30,35.099 30,59.699 z"
     id="path21"
     inkscape:connector-curvature="0" /><path
     style="fill:#3e322e"
     d="m 241,205 0,30 c 0,8.399 -6.599,15 -15,15 -8.401,0 -15,-6.601 -15,-15 l 0,-89.7 c 18.3,13.2 30,35.1 30,59.7 z"
     id="path23"
     inkscape:connector-curvature="0" /><g
     id="g25"
     transform="translate(0,-6)" /><g
     id="g27"
     transform="translate(0,-6)" /><g
     id="g29"
     transform="translate(0,-6)" /><g
     id="g31"
     transform="translate(0,-6)" /><g
     id="g33"
     transform="translate(0,-6)" /><g
     id="g35"
     transform="translate(0,-6)" /><g
     id="g37"
     transform="translate(0,-6)" /><g
     id="g39"
     transform="translate(0,-6)" /><g
     id="g41"
     transform="translate(0,-6)" /><g
     id="g43"
     transform="translate(0,-6)" /><g
     id="g45"
     transform="translate(0,-6)" /><g
     id="g47"
     transform="translate(0,-6)" /><g
     id="g49"
     transform="translate(0,-6)" /><g
     id="g51"
     transform="translate(0,-6)" /><g
     id="g53"
     transform="translate(0,-6)" /></svg>