<?xml version="1.0" encoding="UTF-8" standalone="no"?>
<svg
   xmlns:dc="http://purl.org/dc/elements/1.1/"
   xmlns:cc="http://creativecommons.org/ns#"
   xmlns:rdf="http://www.w3.org/1999/02/22-rdf-syntax-ns#"
   xmlns:svg="http://www.w3.org/2000/svg"
   xmlns="http://www.w3.org/2000/svg"
   xmlns:sodipodi="http://sodipodi.sourceforge.net/DTD/sodipodi-0.dtd"
   xmlns:inkscape="http://www.inkscape.org/namespaces/inkscape"
   id="Capa_1"
   enable-background="new 0 0 512 512"
   width="512"
   height="512"
   viewBox="0 0 512 512"
   version="1.1"
   inkscape:version="0.91 r13725"
   sodipodi:docname="trumpet-l.svg">
  <metadata
     id="metadata29">
    <rdf:RDF>
      <cc:Work
         rdf:about="">
        <dc:format>image/svg+xml</dc:format>
        <dc:type
           rdf:resource="http://purl.org/dc/dcmitype/StillImage" />
        <dc:title></dc:title>
      </cc:Work>
    </rdf:RDF>
  </metadata>
  <defs
     id="defs27" />
  <sodipodi:namedview
     pagecolor="#ffffff"
     bordercolor="#666666"
     borderopacity="1"
     objecttolerance="10"
     gridtolerance="10"
     guidetolerance="10"
     inkscape:pageopacity="0"
     inkscape:pageshadow="2"
     inkscape:window-width="811"
     inkscape:window-height="480"
     id="namedview25"
     showgrid="false"
     inkscape:zoom="0.4609375"
     inkscape:cx="256"
     inkscape:cy="256"
     inkscape:window-x="2224"
     inkscape:window-y="248"
     inkscape:window-maximized="0"
     inkscape:current-layer="Capa_1" />
  <g
     id="g3"
     transform="matrix(-1,0,0,1,512,0)">
    <g
       id="g5">
      <path
         d="M 455.277,149.974 C 419.414,187.487 369.09,209 317.191,209 L 276.334,209 219,219 208.999,259.072 219,303 l 98.191,0 c 51.899,0 102.221,21.51 138.083,59.022 l 30.639,33.096 0,-278.237 z"
         id="path7"
         inkscape:connector-curvature="0"
         style="fill:#fdcb02" />
      <path
         d="m 17.936,209 0,94 201.064,0 0,-84 -57.999,-10 z"
         id="path9"
         inkscape:connector-curvature="0"
         style="fill:#fde023" />
    </g>
    <path
       d="m 482,96 30,0 0,320 -30,0 z"
       id="path11"
       inkscape:connector-curvature="0"
       style="fill:#ff9900" />
    <path
       d="m 0,181.333 30,0 0,149.333 -30,0 z"
       id="path13"
       inkscape:connector-curvature="0"
       style="fill:#fdae02" />
    <g
       id="g15">
      <path
         d="M 277.333,209 219,209 208.999,222.334 219,239 l 58.334,0 c 27.019,0 49,21.982 49,49 0,27.019 -21.981,49 -49,49 L 219,337 208.999,352.999 219,367 l 58.334,0 c 43.561,0 79,-35.439 79,-79 -10e-4,-43.561 -35.44,-79 -79.001,-79 z"
         id="path17"
         inkscape:connector-curvature="0"
         style="fill:#ff9900" />
      <path
         d="m 160,337 c -27.019,0 -49,-21.981 -49,-49 0,-27.018 21.981,-49 49,-49 l 59,0 0,-30 -59,0 c -43.561,0 -79,35.439 -79,79 0,43.561 35.439,79 79,79 l 59,0 0,-30 z"
         id="path19"
         inkscape:connector-curvature="0"
         style="fill:#fdae02" />
    </g>
    <path
       d="m 161,181.333 30,0 0,213.333 -30,0 z"
       id="path21"
       inkscape:connector-curvature="0"
       style="fill:#fdcb02" />
    <path
       d="m 246.333,181.333 30,0 0,213.333 -30,0 z"
       id="path23"
       inkscape:connector-curvature="0"
       style="fill:#fdae02" />
  </g>
</svg>
