<?xml version="1.0" encoding="iso-8859-1"?>
<!-- Generator: Adobe Illustrator 19.0.0, SVG Export Plug-In . SVG Version: 6.00 Build 0)  -->
<svg version="1.1" id="Capa_1" xmlns="http://www.w3.org/2000/svg" xmlns:xlink="http://www.w3.org/1999/xlink" x="0px" y="0px"
	 viewBox="0 0 512 512" style="enable-background:new 0 0 512 512;" xml:space="preserve">
<path style="fill:#E84661;" d="M278.894,98.679c-4.266,0-7.723-3.457-7.723-7.723V25.157c0-4.266,3.457-7.723,7.723-7.723
	c4.266,0,7.723,3.457,7.723,7.723v65.798C286.618,95.222,283.16,98.679,278.894,98.679z"/>
<path style="fill:#00DDC2;" d="M504.277,484.684c-4.266,0-7.723-3.457-7.723-7.723v-92.079c0-4.266,3.457-7.723,7.723-7.723
	c4.266,0,7.723,3.457,7.723,7.723v92.079C512,481.226,508.543,484.684,504.277,484.684z"/>
<g>
	<path style="fill:#FFE269;" d="M41.283,206.733c-4.266,0-7.723-3.457-7.723-7.723v-92.079c0-4.266,3.458-7.723,7.723-7.723
		s7.723,3.457,7.723,7.723v92.079C49.007,203.276,45.549,206.733,41.283,206.733z"/>
	<path style="fill:#FFE269;" d="M423.327,220.003c-4.266,0-7.723-3.457-7.723-7.723v-59.869c0-3.487,2.335-6.541,5.7-7.454
		l61.943-16.815c2.322-0.63,4.805-0.142,6.715,1.318c1.911,1.461,3.032,3.73,3.032,6.136v59.373c0,4.266-3.457,7.723-7.723,7.723
		c-4.266,0-7.723-3.457-7.723-7.723v-49.272l-46.495,12.621v53.963C431.051,216.546,427.593,220.003,423.327,220.003z"/>
</g>
<path style="fill:#31A1F4;" d="M356.328,134.534L94.084,180.512c-1.812,0.318-3.134,1.892-3.134,3.731v207.678
	c-9.26-4.589-19.817-6.957-30.983-6.367c-32.343,1.708-58.204,28.414-58.922,60.795c-0.778,35.054,27.405,63.716,62.284,63.716
	c28.768,0,57.263-22.022,61.279-51.115c1.965-14.238,1.022-28.997,1.022-43.374c0-42.725,0-85.451,0-128.176v-38.451
	c0-1.848,1.334-3.426,3.156-3.735l192.886-32.671c2.312-0.392,4.421,1.39,4.421,3.735V359.85
	c-9.261-4.589-19.818-6.957-30.983-6.367c-32.343,1.708-58.204,28.416-58.921,60.797c-0.777,35.053,27.406,63.714,62.284,63.714
	c28.98,0,51.517-20.154,59.852-47.106c4.24-13.713,2.448-29.363,2.448-43.6c0-42.618,0-249.02,0-249.02
	C360.771,135.912,358.647,134.128,356.328,134.534z"/>
<path style="fill:#0781E5;" d="M358.324,430.885c-8.334,26.95-30.875,47.104-59.856,47.104c-3.341,0-6.622-0.265-9.819-0.773
	c24.268-3.932,42.785-22.465,50.166-46.331c4.235-13.714,2.447-29.359,2.447-43.596c0-42.618,0-249.022,0-249.022
	c0-0.371-0.053-0.727-0.152-1.068l15.221-2.667c2.318-0.402,4.44,1.379,4.44,3.735c0,0,0,206.404,0,249.022
	C360.771,401.526,362.567,417.172,358.324,430.885z"/>
<circle style="fill:#E84661;" cx="295.183" cy="26.65" r="24.714"/>
<path style="fill:#CE1D4C;" d="M319.901,26.654c0,13.645-11.07,24.705-24.715,24.705c-11.657,0-21.42-8.053-24.015-18.897
	c3.275,1.606,6.951,2.513,10.844,2.513c13.655,0,24.715-11.06,24.715-24.715c0-1.998-0.237-3.944-0.69-5.808
	C314.247,8.457,319.901,16.891,319.901,26.654z"/>
<circle style="fill:#00DDC2;" cx="487.285" cy="475.375" r="24.714"/>
<path style="fill:#00BCA1;" d="M512,475.377c0,13.645-11.07,24.705-24.715,24.705c-11.657,0-21.42-8.053-24.015-18.897
	c3.275,1.606,6.951,2.513,10.844,2.513c13.655,0,24.715-11.06,24.715-24.715c0-1.998-0.237-3.944-0.69-5.808
	C506.347,457.18,512,465.615,512,475.377z"/>
<circle style="fill:#FFE269;" cx="24.714" cy="198.222" r="24.714"/>
<path style="fill:#F7D443;" d="M49.432,198.221c0,13.645-11.07,24.705-24.715,24.705c-11.657,0-21.42-8.053-24.015-18.897
	c3.275,1.606,6.951,2.513,10.844,2.513c13.655,0,24.715-11.06,24.715-24.715c0-1.998-0.237-3.944-0.69-5.808
	C43.778,180.024,49.432,188.458,49.432,198.221z"/>
<circle style="fill:#FFE269;" cx="412.224" cy="212.812" r="18.802"/>
<path style="fill:#F7D443;" d="M431.032,212.819c0,10.381-8.422,18.795-18.803,18.795c-8.869,0-16.296-6.127-18.27-14.376
	c2.491,1.222,5.288,1.912,8.25,1.912c10.389,0,18.803-8.414,18.803-18.803c0-1.52-0.18-3.001-0.525-4.419
	C426.731,198.976,431.032,205.392,431.032,212.819z"/>
<circle style="fill:#FFE269;" cx="474.165" cy="194.972" r="18.802"/>
<path style="fill:#F7D443;" d="M492.974,194.972c0,10.381-8.422,18.795-18.803,18.795c-8.869,0-16.296-6.127-18.27-14.376
	c2.491,1.222,5.288,1.912,8.25,1.912c10.389,0,18.803-8.414,18.803-18.803c0-1.52-0.18-3.001-0.525-4.419
	C488.672,181.128,492.974,187.545,492.974,194.972z"/>
<g>
</g>
<g>
</g>
<g>
</g>
<g>
</g>
<g>
</g>
<g>
</g>
<g>
</g>
<g>
</g>
<g>
</g>
<g>
</g>
<g>
</g>
<g>
</g>
<g>
</g>
<g>
</g>
<g>
</g>
</svg>
