<svg id="Capa_1" enable-background="new 0 0 512.636 512.636" height="512" viewBox="0 0 512.636 512.636" width="512" xmlns="http://www.w3.org/2000/svg"><g><g id="Music_note_1_"><path d="m302.318 214.936c0 9.872 0 197.265 0 190.005-12.574-7.614-28.052-12.305-45-12.305-41.353 0-75 26.909-75 60s33.647 60 75 60 75-26.909 75-60v-122.29l150-25.009v69.604c-12.574-7.614-28.052-12.305-45-12.305-41.353 0-75 26.909-75 60s33.647 60 75 60 75-26.909 75-60c0-4.174 0-246.356 0-242.71z" fill="#ff7f40"/><path d="m90.318 36.642c0 4.498 0 158.996 0 152.062-8.809-3.765-18.937-6.068-30-6.068-33.647 0-60 19.761-60 45s26.353 45 60 45 60-19.761 60-45v-107.704l120-24.005v62.778c-8.809-3.765-18.937-6.068-30-6.068-33.647 0-60 19.761-60 45s26.353 45 60 45 60-19.761 60-45c0-5.868 0-210.465 0-197z" fill="#6cf"/><g><path d="m90.318 452.636h-30c0-33.091-26.909-60-60-60v-30c33.091 0 60-26.909 60-60h30c0 33.091 26.909 60 60 60v30c-33.091 0-60 26.91-60 60z" fill="#ffe566"/></g><g><path d="m390.318 152.636h-30c0-16.538-13.462-30-30-30v-30c16.538 0 30-13.462 30-30h30c0 16.538 13.462 30 30 30v30c-16.538 0-30 13.462-30 30z" fill="#ffe566"/></g><g><path d="m150.318 272.636h30v30h-30z" fill="#e1e6f0"/></g><g><path d="m210.318 332.636h30v30h-30z" fill="#e1e6f0"/></g><g><path d="m300.318 152.636h30v30h-30z" fill="#e1e6f0"/></g></g><path d="m437.318 362.636c-41.353 0-75 26.909-75 60s33.647 60 75 60 75-26.909 75-60c0-4.175 0-246.356 0-242.71l-165 27.508v120.41l135-22.507v69.604c-12.574-7.613-28.052-12.305-45-12.305z" fill="#f25a3c"/><path d="m210.318 152.636c-33.647 0-60 19.761-60 45s26.353 45 60 45 60-19.761 60-45c0-5.497 0-185.177 0-197l-135 27.004v89.29l105-21.004v62.778c-8.809-3.764-18.937-6.068-30-6.068z" fill="#59abff"/><g fill="#ffbe40"><path d="m390.318 62.636h-15v90h15c0-16.538 13.462-30 30-30v-30c-16.538 0-30-13.462-30-30z"/><path d="m90.318 302.636h-15v150h15c0-33.091 26.909-60 60-60v-30c-33.091 0-60-26.909-60-60z"/></g></g></svg>